<svg width="72" height="72" viewBox="0 0 72 72" fill="none" xmlns="http://www.w3.org/2000/svg">
<path fill-rule="evenodd" clip-rule="evenodd" d="M11 16C11 12.6863 13.6863 10 17 10C18.0474 10 19.0305 10.2676 19.8865 10.7385L21.3439 9.28109C20.0928 8.47078 18.6002 8 17 8C12.5817 8 9 11.5817 9 16C9 20.4183 12.5817 24 17 24C21.4183 24 25 20.4183 25 16C25 15.4926 24.9526 14.9955 24.8619 14.5131L22.9877 16.3873C22.7881 19.5205 20.1836 22 17 22C13.6863 22 11 19.3137 11 16Z" fill="#0B6CFF"/>
<path d="M14 15.375L16.7379 18L24 11" stroke="#0B6CFF" stroke-width="2"/>
<path d="M30 12.5H64" stroke="#0B6CFF" stroke-width="2"/>
<path d="M30 18H50.1481" stroke="#0B6CFF" stroke-width="2"/>
<path fill-rule="evenodd" clip-rule="evenodd" d="M11 36C11 32.6863 13.6863 30 17 30C18.0474 30 19.0305 30.2676 19.8865 30.7385L21.3439 29.2811C20.0928 28.4708 18.6002 28 17 28C12.5817 28 9 31.5817 9 36C9 40.4183 12.5817 44 17 44C21.4183 44 25 40.4183 25 36C25 35.4926 24.9526 34.9955 24.8619 34.5131L22.9877 36.3873C22.7881 39.5205 20.1836 42 17 42C13.6863 42 11 39.3137 11 36Z" fill="#0B6CFF"/>
<path d="M14 35.375L16.7379 38L24 31" stroke="#0B6CFF" stroke-width="2"/>
<path d="M30 32.5H64" stroke="#0B6CFF" stroke-width="2"/>
<path d="M30 38H50.1481" stroke="#0B6CFF" stroke-width="2"/>
<path fill-rule="evenodd" clip-rule="evenodd" d="M11 56C11 52.6863 13.6863 50 17 50C18.0474 50 19.0305 50.2676 19.8865 50.7385L21.3439 49.2811C20.0928 48.4708 18.6002 48 17 48C12.5817 48 9 51.5817 9 56C9 60.4183 12.5817 64 17 64C21.4183 64 25 60.4183 25 56C25 55.4926 24.9526 54.9955 24.8619 54.5131L22.9877 56.3873C22.7881 59.5205 20.1836 62 17 62C13.6863 62 11 59.3137 11 56Z" fill="#0B6CFF"/>
<path d="M14 55.375L16.7379 58L24 51" stroke="#0B6CFF" stroke-width="2"/>
<path d="M30 52.5H64" stroke="#0B6CFF" stroke-width="2"/>
<path d="M30 58H50.1481" stroke="#0B6CFF" stroke-width="2"/>
</svg>
