<svg width="42" height="43" viewBox="0 0 42 43" fill="none" xmlns="http://www.w3.org/2000/svg">
<path d="M42 21.496C41.8177 13.7326 38.4561 8.46889 34.9122 4.74976C31.1456 1.13225 27.1765 -0.940702 21 0.420945C14.8235 2.16873 10.6316 6.57884 6.88525 10.1151C3.30087 13.9155 0.202507 16.8623 0 21.496C0.182257 26.1297 3.30087 29.0765 6.88525 32.8769C10.6316 36.4132 14.8235 40.8233 21 42.571C27.1765 43.953 31.1456 41.8597 34.9122 38.2422C38.4764 34.5231 41.8177 29.2594 42 21.496Z" fill="#D9F1FF"/>
<path d="M33.3684 20.0521H38.1524C38.1524 20.0521 35.2535 21.3859 33.404 23.769L33.3684 20.0521Z" fill="#D9F1FF"/>
<path d="M33.3685 19.8565H38.1525C38.1525 19.8565 35.2536 18.5227 33.4041 16.1396L33.3685 19.8565Z" fill="#D9F1FF"/>
<path d="M37.0496 19.8565V20.0521H38.1522V19.8565H37.0496Z" fill="#D9F1FF"/>
<path d="M39 21C33.4772 21 29 26 29 30" stroke="#0B6CFF" stroke-width="2"/>
<path d="M39 21C33.4772 21 29 16 29 12" stroke="#0B6CFF" stroke-width="2"/>
<path d="M13 21H39" stroke="#0B6CFF" stroke-width="2"/>
</svg>
