<svg id="Layer_1" data-name="Layer 1" xmlns="http://www.w3.org/2000/svg" xmlns:xlink="http://www.w3.org/1999/xlink" viewBox="0 0 1172.92 1129.32"><defs><style>.cls-1,.cls-10,.cls-16,.cls-5{fill:none;}.cls-2{fill:url(#linear-gradient);}.cls-3{clip-path:url(#clip-path);}.cls-4{fill:#fff;stroke:#231f20;}.cls-4,.cls-5{stroke-miterlimit:10;}.cls-10,.cls-16,.cls-4,.cls-5{stroke-width:3px;}.cls-10,.cls-5{stroke:#24245b;}.cls-6{fill:#aec6f8;}.cls-7{fill:#efc2ea;}.cls-8{fill:#c57dba;}.cls-9{clip-path:url(#clip-path-2);}.cls-10,.cls-16{stroke-linecap:square;stroke-linejoin:bevel;}.cls-11{fill:#006cff;}.cls-12{clip-path:url(#clip-path-3);}.cls-13{fill:#24245b;}.cls-14{fill:#247c74;}.cls-15{clip-path:url(#clip-path-4);}.cls-16{stroke:#ffebe2;}.cls-17{clip-path:url(#clip-path-5);}.cls-18{fill:#ffebe2;}.cls-19{clip-path:url(#clip-path-6);}.cls-20{clip-path:url(#clip-path-7);}</style><linearGradient id="linear-gradient" x1="841.45" y1="874.92" x2="206.23" y2="229.24" gradientTransform="matrix(1, 0, 0, -1, 0, 1210.57)" gradientUnits="userSpaceOnUse"><stop offset="0.39" stop-color="#e8f7ff"/><stop offset="1" stop-color="#e8f7ff" stop-opacity="0"/></linearGradient><clipPath id="clip-path"><path class="cls-1" d="M-1575.67,420.07c-196.36-34.65-299.16,268-109.26,313.62C-1477.14,783.63-1369.67,456.42-1575.67,420.07Z"/></clipPath><clipPath id="clip-path-2"><path class="cls-1" d="M702.23,1052.29c-113.09,0-103.09-141.39-98.93-165.74,17-99.51,26.59-202,8.09-301.28-6.23-33.42-15.61-66.25-20-100s-4.47-69.73,10.37-100.19c46.51-95.47,199-98.62,240.49-50.87,28,32.25,33.26,79.7,30.18,122.73s-15.6,84.67-25.92,126.51a1261,1261,0,0,0-33.18,208.37C809.52,843.34,824.73,1052.29,702.23,1052.29Z"/></clipPath><clipPath id="clip-path-3"><path class="cls-1" d="M105.33,838.21l.77-48.52H81.48c-3.08,30-1.54,83.94-26.95,83.94v162.48H502.7l-5-20c-43.32-9.18-62-70.12-106.28-70.12-46.58,0-62-58.65-125.16-58.65-28.24,0-55.25-6.88-80.67-19.18S141.55,838.21,105.33,838.21Z"/></clipPath><clipPath id="clip-path-4"><path class="cls-1" d="M612.27,639.49c-2.8,16.13,14.75,51.21,44.17,50.14,31.61-1.16,37.7-37.93,40.3-72.4,2.12-28.24,1-54.63,17.2-61.17,16.48-6.67,29.45-1.76,34.36,20.33s24.19,25.24,24.19,25.24v8.77s-14.38,1.4-15.78,16.12-.7,116-1.75,134.27-1.4,51.89-35.06,51.89c-29.1,0-59.67-34.54-117.86-20.16l-6.6-154.43Z"/></clipPath><clipPath id="clip-path-5"><path class="cls-1" d="M757.33,688.29c3.49-7.37,11.14-13.62,18.26-17.61A56.5,56.5,0,0,0,781.9,667a9.62,9.62,0,0,0,4-5.91c.37-2.4-.88-5.15-3.2-5.9,1.9-1.12,2.53-3.61,2.56-5.81a6.54,6.54,0,0,0-3.06-5.55,8.85,8.85,0,0,0-3-8.46,8.52,8.52,0,0,0-8.67-1.41c0-3.42-2.62-6.54-5.79-7.82s-7.6-.68-10.84.44-5.35,2.71-8.23,4.57a28.79,28.79,0,0,0-17,2.48c-5,2.59-8.78,7-11.78,11.86C708.67,658.7,690,720.4,729,720.4,761.27,720.36,753.79,695.63,757.33,688.29Z"/></clipPath><clipPath id="clip-path-6"><path class="cls-1" d="M648.76,480.9c-10.79,4.62-287,171.47-308,186.36s-26.18,13.86-35.93,13.86h-78c-47.23,0-40.79,92.4,0,92.4h68.79c9.24,0,14.37,0,25.15,8.22s300.32,202,300.32,202C600,804.29,611.39,585.29,648.76,480.9Z"/></clipPath><clipPath id="clip-path-7"><path class="cls-1" d="M975.07,892.11c-3.86-5.67-2.29-13.72,1.91-19.13s10.48-8.77,16.63-11.79,12.53-6,17.28-11c2.24,2,4.5,3.77,6.74,5.76-5,5.92-5.35,14.93-8,22.26-2.54,7-7.18,13.56-13.81,17S979.33,898.29,975.07,892.11Z"/></clipPath></defs><path class="cls-2" d="M1157.4,501.79c-24.62-79-134.85-170.89-231.82-269.57-101.14-94.9-189-196.6-265.15-211.72C584.67-.3,490,70.78,373.3,168.7,262.31,268.51,129,394.79,104.74,523.34c-31.44,127.41,58,265.79,170.45,381.1C390.72,1016.73,529.36,1106,660.43,1071.55c131.44-26.84,263.64-162.95,363.26-276C1121.79,676.84,1188.08,581.19,1157.4,501.79Z"/><g id="art"><g class="cls-3"><path class="cls-4" d="M396.47,545.43a51.14,51.14,0,0,0,6.86-15.74H413a19.41,19.41,0,0,0,7.44,14.36c-1.42,6.24-6.17,13-11.82,16-1.91,1-4.3,1.75-6.18.67a6.53,6.53,0,0,1-2.4-3.06C398.41,554.09,394.33,548.74,396.47,545.43Z"/><path class="cls-4" d="M360.53,545.43a50.82,50.82,0,0,0,6.87-15.74h9.66a19.41,19.41,0,0,0,7.44,14.36c-1.42,6.24-6.17,13-11.81,16-1.91,1-4.31,1.75-6.18.67a6.41,6.41,0,0,1-2.4-3.06C362.47,554.09,358.33,548.74,360.53,545.43Z"/><path class="cls-5" d="M394.5,655.46A261.1,261.1,0,0,0,320.61,601c-1.84,2.93-5.19,4.4-7,7.34,18.72,20,34.31,42.58,48.72,65.82,2.94,4.73,5.84,9.6,10,13.29s9.91,6.09,15.33,4.84c6.67-1.53,11.22-8.35,11.68-15.18S399.2,660.43,394.5,655.46Z"/><path class="cls-5" d="M309.09,688.14c-20.33-20.5-42.92-45.53-35-99.43-6.42-13.86,14-52.36-3.39-72.9l3.65-12.32s14.88,4.62,19.76,30.8c6.42-30.8,17.71-45.17,17.71-45.17l6.16,2s1,27.21-5.13,52.36c15.91-8.72,29.26,8.73,29.26,8.73l-2.05,7.7s-13.62-10.24-30.52,7.19C294.11,583,284.9,588.58,284.9,588.58c-7,26.26-8,52.44,37.19,99.51Z"/><rect class="cls-5" x="382.19" y="621.51" width="12.83" height="43.89"/><path class="cls-5" d="M369.91,686.29c-5.17-11.29-2.6-23.62,22-37.48s59-48.25,59-48.25l8.22,8.45s-39.39,62.19-50,79.23-25,22.18-25,22.18Z"/><path class="cls-5" d="M284.17,701.09a36,36,0,0,0,24.92-13h13c3.66,5.46,10.69,9.89,17.25,9.59a19.6,19.6,0,0,0,16-10c.51,0,1.14-1.47,1.66-1.47h12.87c2.79,7.56,11.33,12.62,19.37,13.14a21.47,21.47,0,0,0,19.93-11.19l13.62-.41c4,6.39,11.7,11,19.21,10.52A21.35,21.35,0,0,0,459.62,686l13.9-.24c6.69,10.76,33.38,15.36,45.19,7.67,1,23.62,0,55.87,0,55.87h-230Z"/><path class="cls-4" d="M377.83,567.41c-9.24-19.51-15.2-28.32-28.29-38.84a63.8,63.8,0,0,0-5.39,5.64c7.19,14.12-4.82,87.3,38,87.3C382.19,579.21,377.83,567.41,377.83,567.41Z"/><path class="cls-4" d="M397.78,567.41c9.25-19.51,17.2-31.32,30.29-41.84a62.45,62.45,0,0,1,5.39,5.64c-7.18,14.12,2.83,90.3-40,90.3C393.42,579.21,397.78,567.41,397.78,567.41Z"/><path class="cls-4" d="M382.19,621.51c-14.11,0-25.15-23.5-19-43.42s20-41,21.56-49.44h12.32c.26,9.49,14.63,27.72,19.25,50.43,4,19.63-8.47,42.43-21.3,42.43Z"/></g><path class="cls-6" d="M693.33,1106.76c90.4,0,159.71-29.84,181.53-49.54,28.68-25.88,9.75-62.69-78.81-21.11S693.33,1106.76,693.33,1106.76Z"/><path class="cls-7" d="M568.62,705.37c0-150.7-133.25-480.12,210.23-462,226.82,12,83.55,345.37,197.51,345.37,15,24.26,10.4,125.9-16.17,161.71-47.36,2.31-102,41-102,127,0,57.33-4.24,229.31-164.8,229.31C507.81,1106.76,568.62,844,568.62,705.37Z"/><path class="cls-8" d="M702.23,1052.29c-113.09,0-103.09-141.39-98.93-165.74,17-99.51,26.59-202,8.09-301.28-6.23-33.42-15.61-66.25-20-100s-4.47-69.73,10.37-100.19c46.51-95.47,199-98.62,240.49-50.87,28,32.25,33.26,79.7,30.18,122.73s-15.6,84.67-25.92,126.51a1261,1261,0,0,0-33.18,208.37C809.52,843.34,824.73,1052.29,702.23,1052.29Z"/><g class="cls-9"><line class="cls-10" x1="790.7" y1="621.05" x2="853.08" y2="598.12"/><line class="cls-10" x1="795.29" y1="633.95" x2="845.88" y2="625.29"/><line class="cls-10" x1="798.96" y1="649.54" x2="840.08" y2="649.54"/><line class="cls-10" x1="798.96" y1="663.19" x2="835.06" y2="672.83"/></g><path class="cls-11" d="M105.33,838.21l.77-48.52H81.48c-3.08,30-1.54,83.94-26.95,83.94v162.48H502.7l-5-20c-43.32-9.18-62-70.12-106.28-70.12-46.58,0-62-58.65-125.16-58.65-28.24,0-55.25-6.88-80.67-19.18S141.55,838.21,105.33,838.21Z"/><g class="cls-12"><rect class="cls-13" x="54.53" y="770.44" width="79.32" height="67.76"/></g><path class="cls-6" d="M312.88,1106.76c17.33,0,34.73-57.71,59.37-57.71H493.53l9.17-12.94H259.33Z"/><path class="cls-8" d="M227.41,745.8l-43.89,340.75,20.21,20.21H312.88v-43.31c-32.21-34.78-30.67-82-9.11-101.52V938.29c-38.5-23.1-27.21-66.73-4.62-79.06v-19.5c-33.37-31.32-16.94-94-16.94-94Z"/><path class="cls-13" d="M648.75,480.9h6.17s63.67,225-24.39,502.85H621S508.09,644.92,648.75,480.9Z"/><path class="cls-14" d="M101.9,555c-2.7,19.25-8,65.84-50.37,80.47v10.39s21.25-2.38,28.18-6.62c-5.46,26.26-34.34,55.91-52,62.45v10.78s28.11.39,38.12-11.16c-8.86,35.42-42,72.77-61.61,81.24v8.85H180.52v-7.31c-18.1-16.18-49.29-47.75-50.06-79.32,16.94,15,32,15,32,15l.77-10c-24.64-18.87-38.89-51.6-39.27-72a52.06,52.06,0,0,0,30.33,10.78v-8.86c-22.71-11.16-44.34-50.74-42-85C107.21,554.67,101.9,555,101.9,555Z"/><path class="cls-6" d="M612.27,639.49c-2.8,16.13,14.75,51.21,44.17,50.14,31.61-1.16,37.7-37.93,40.3-72.4,2.12-28.24,1-54.63,17.2-61.17,16.48-6.67,29.45-1.76,34.36,20.33s24.19,25.24,24.19,25.24v8.77s-14.38,1.4-15.78,16.12-.7,116-1.75,134.27-1.4,51.89-35.06,51.89c-29.1,0-59.67-34.54-117.86-20.16l-6.6-154.43Z"/><g class="cls-15"><path class="cls-13" d="M691.16,598.71a24.63,24.63,0,0,0,24.13-25.11,24.91,24.91,0,0,0-1-6.31,26.22,26.22,0,0,0,27.88-14.6l-1.53-22.07L682,556.42Z"/><path class="cls-10" d="M738.84,567.29a17.26,17.26,0,0,0-9.57,14.35"/><path class="cls-10" d="M731.33,591.1c6.36,17,27.63,3.54,19.69-15.14"/><path class="cls-11" d="M681.54,652.12c1.47,7.75,3.78,15.74,9.32,21.35s15.16,7.87,21.42,3.08c2.71,9.54,10,17.71,19.42,20.71A30.73,30.73,0,0,0,759.76,692c7.32,20.39,17.06,40.07,20.18,61.5s1.78,44.06-7.71,63.53c-16.32,33.47-53.9,51.93-90.76,57.24C645.1,879.47,605,873,578.35,847.69c-21.44-20.39-31.35-50-37.17-79.06-4.48-22.32-7-45.3-4.23-67.91s11.11-45,26.3-61.92,37.67-28,60.41-26.73S677.33,629.74,681.54,652.12Z"/><path class="cls-16" d="M606.07,746.14A19.63,19.63,0,0,0,625.38,738a16.16,16.16,0,0,0,26.44-3,16.54,16.54,0,0,0,14,8.26,16.15,16.15,0,0,0,13.68-8.34c5.32,6.94,15.67,9.31,23.55,5.55"/><path class="cls-16" d="M606.07,708.56a19.63,19.63,0,0,0,19.31-8.17,16.16,16.16,0,0,0,26.44-3,16.55,16.55,0,0,0,14,8.26,16.08,16.08,0,0,0,13.68-8.33c5.32,6.93,15.67,9.3,23.55,5.55"/><path class="cls-16" d="M718.59,705.85a21.69,21.69,0,0,1-6.54,24A21.7,21.7,0,0,1,717,746.3a12.19,12.19,0,0,1-1.67,5.24,6.37,6.37,0,0,1-4.47,3,32.53,32.53,0,0,1-1.11,16.69c-1.83,5-6,9.31-11.26,10.19a14.69,14.69,0,0,1-10-2.17,22.76,22.76,0,0,1-7.18-7.43c-3.17,5.23-10.09,7.85-16.21,7.93a18.52,18.52,0,0,1-15.51-8.29,15.72,15.72,0,0,1-12.43,6.4,16,16,0,0,1-12.9-5.81c-3.12,6-11.24,9.64-17.93,8.76"/><path class="cls-16" d="M746.44,710.35a22.35,22.35,0,0,1-5.78,24.23c3.16,4.65,3.74,11.46,3.1,17a23.92,23.92,0,0,1-7.49,14.7c3.2,7.68,4.22,15.77,1.16,23.51S726.11,803.5,717.92,802a47,47,0,0,1-15.38,6.4c-5.21,1-11,.24-15.07-3.16"/></g><path class="cls-13" d="M713.94,556.06c19.64-8.71,12.42-53.41-19.28-39.27C668.72,528.36,686.24,568.29,713.94,556.06Z"/><path class="cls-6" d="M757.33,688.29c3.49-7.37,11.14-13.62,18.26-17.61A56.5,56.5,0,0,0,781.9,667a9.62,9.62,0,0,0,4-5.91c.37-2.4-.88-5.15-3.2-5.9,1.9-1.12,2.53-3.61,2.56-5.81a6.54,6.54,0,0,0-3.06-5.55,8.85,8.85,0,0,0-3-8.46,8.52,8.52,0,0,0-8.67-1.41c0-3.42-2.62-6.54-5.79-7.82s-7.6-.68-10.84.44-5.35,2.71-8.23,4.57a28.79,28.79,0,0,0-17,2.48c-5,2.59-8.78,7-11.78,11.86C708.67,658.7,690,720.4,729,720.4,761.27,720.36,753.79,695.63,757.33,688.29Z"/><g class="cls-17"><path class="cls-10" d="M784.45,653.81c-10.91-2-25.52,10-36.27,33.36"/><path class="cls-10" d="M787.14,642.82c-7.55-2.22-35.22,4.2-47.61,40.17"/><path class="cls-10" d="M775.19,630.78c-9.47,2.27-38,14.09-46.41,47.74"/></g><path class="cls-18" d="M648.76,480.9c-10.79,4.62-287,171.47-308,186.36s-26.18,13.86-35.93,13.86h-78c-47.23,0-40.79,92.4,0,92.4h68.79c9.24,0,14.37,0,25.15,8.22s300.32,202,300.32,202C600,804.29,611.39,585.29,648.76,480.9Z"/><g class="cls-19"><rect class="cls-13" x="185.52" y="665.18" width="94.07" height="136.04"/></g><path class="cls-6" d="M359.88,400.12a43.06,43.06,0,0,1,32.74,13.58c8.28,8.94,13,21.36,11.57,33.47a20.75,20.75,0,0,1,13.72,8,32.58,32.58,0,0,1,6.18,14.91,46,46,0,0,1-35.86,52.72,38.62,38.62,0,0,1-20.45-1,28.81,28.81,0,0,1-15.29-13.33c-11.46,11-26.43,18.74-42.27,19.77s-32-5-41.83-17.53c-14.73,8.52-35,5.12-46.82-7.14s-14.57-32-7.41-47.46,23.44-25.94,40.42-27c3.21-14.43,17-26.53,31.76-27.48C295.33,369.29,358.45,370.29,359.88,400.12Z"/><path class="cls-6" d="M276.18,197.38a35.77,35.77,0,0,0-25.33,10.29c-6.58-16.68-22.23-28.38-40.52-28.38-17.44,0-32.5,10.7-39.55,26.19a37.55,37.55,0,0,0-61.09.59,28.74,28.74,0,1,0,0,49.2,38.1,38.1,0,0,0,30.76,16c14.33,0,26.83-8.18,33.52-20.34,7.86,12.27,21.22,20.34,36.36,20.34,15.64,0,29.36-8.61,37.11-21.54a35.64,35.64,0,0,0,28.72,14.2c19.36,0,35-14.89,35-33.25S295.54,197.38,276.18,197.38Z"/><path class="cls-14" d="M910.21,1022.71c-4.24-18.48-28.49-87,0-119.74l7.31,5.39c-18.73,30.68-9.36,75.85,4.88,114.35Z"/><path class="cls-8" d="M909.07,974.29c-.33-3,1.32-8,3.16-10.46a97,97,0,0,1,12.94-14.15c2.28-2,4.86-4.43,4.79-7.49a6,6,0,0,0-4-5.26,9.08,9.08,0,0,0-6.81.36,19,19,0,0,0-5.65,4.06C906.09,948.58,907.33,961.05,909.07,974.29Z"/><path class="cls-8" d="M916.33,1005c-1.18-4.62.71-9.53,3.46-13.43s6.34-7.14,9.22-11a14,14,0,0,0,2.71-5.3,6.2,6.2,0,0,0-1.33-5.59c-1.65-1.69-4.33-1.93-6.61-1.36C915.86,970.35,908.67,983.06,916.33,1005Z"/><path class="cls-8" d="M908.87,931.07a48.31,48.31,0,0,1,3.81-12.73,23.37,23.37,0,0,1,8.44-9.69,12.08,12.08,0,0,1,7-2,7.18,7.18,0,0,1,6,3.7,7.65,7.65,0,0,1-.89,7.46,18,18,0,0,1-5.91,5.1C921.67,926.29,915,928.65,908.87,931.07Z"/><path class="cls-8" d="M901.5,988.5a37.44,37.44,0,0,0-6.16-17.43,17.17,17.17,0,0,0-5.68-5.69,8.21,8.21,0,0,0-7.77-.33,7.76,7.76,0,0,0-3.52,7.88,12.23,12.23,0,0,0,4.82,7.57,30.06,30.06,0,0,0,8.16,4.15C894.22,985.72,898.82,987,901.5,988.5Z"/><path class="cls-8" d="M896.55,953.54a47.2,47.2,0,0,0-5.78-21.48c-1.13-2.13-2.68-4.35-5-4.83a5.19,5.19,0,0,0-4.26,1.16,7.17,7.17,0,0,0-2.31,3.86c-1.11,4.56,1.55,9.26,5,12.46S893.1,950.36,896.55,953.54Z"/><path class="cls-8" d="M899.88,922.41c1.9-7,3.31-14.6.46-21.25-1-2.36-2.69-4.63-5.14-5.39-2.92-.91-6.26.71-7.83,3.34a10.52,10.52,0,0,0-.51,8.87,21,21,0,0,0,5.19,7.49C894.22,917.63,897.73,920.23,899.88,922.41Z"/><path class="cls-14" d="M1007.42,971.78c-8,15-10.75,33-6.34,49.39h-9.63c-2.7-14.24-.58-39.08,6.78-53.06C1000.67,969,1005,970.94,1007.42,971.78Z"/><path class="cls-14" d="M960.77,979.61c7.06,13.24,7.43,27.07,3.54,41.56h11c2.38-12.59,2.58-32.45-3.93-44.81C969.33,977.11,962.92,978.86,960.77,979.61Z"/><path class="cls-8" d="M1015.79,960c2.9-1.08,5.88-2.18,9-2.22s6.4,1.14,8.06,3.76c2.55,4,.09,9.7-4,12.08s-9.17,2.23-13.87,1.54c-6.55-1-13.06-2.93-18.55-6.63s-9.91-9.28-11.3-15.75c-.86-4,0-9.09,3.71-10.83,2.86-1.33,6.38-.1,8.62,2.1s3.51,5.2,4.71,8.11c-1.81-3.71,1.5-9,5.41-10.33s8.55.92,10.28,4.66a10.3,10.3,0,0,1-2.34,11.36C1014.86,957.82,1015.74,960.64,1015.79,960Z"/><path class="cls-8" d="M960.77,979.61a14.38,14.38,0,0,1-10.2-6c-2.38-3.46-3.73-7.51-5-11.51S943,954,940.79,950.47a58.79,58.79,0,0,1,11.77,6.76c-.45-4.29.27-8.66,1-12.92,3.51,3.3,6.94,6.33,9.84,10.19.66-4.56,2.67-9.72,3.32-14.28,1.2,6.08,5.28,12.16,7.48,18a19.89,19.89,0,0,1-2.72,18.13Z"/><path class="cls-6" d="M975.07,892.11c-3.86-5.67-2.29-13.72,1.91-19.13s10.48-8.77,16.63-11.79,12.53-6,17.28-11c2.24,2,4.5,3.77,6.74,5.76-5,5.92-5.35,14.93-8,22.26-2.54,7-7.18,13.56-13.81,17S979.33,898.29,975.07,892.11Z"/><g class="cls-20"><path class="cls-13" d="M1001.45,896.44l-26.24-26.32c3-4,5.69-7.9,9.3-11.44,8.72,8.28,17.53,16.3,26.26,24.59C1008.44,887.55,1005,893.11,1001.45,896.44Z"/></g><circle class="cls-13" cx="970.56" cy="900.76" r="9.72"/><path class="cls-6" d="M979.33,869.44a139.78,139.78,0,0,1-19.71-1.35,6.39,6.39,0,0,1-5.36-4.82c-.19-.81-.35-1.64-.49-2.46a6.43,6.43,0,0,1,5.23-7.44,6.26,6.26,0,0,1,2.07,0,46.34,46.34,0,0,1,12.31,3.56,31.48,31.48,0,0,1-3.06-11.56,6.4,6.4,0,0,1,5.81-6.89h.44a6.37,6.37,0,0,1,6.69,6c.4,7.14,1,14.66,1.25,21.53Z"/><path class="cls-10" d="M745.65,631.14c-9.39,5.31-21.78,22.74-25.77,45.47"/><path class="cls-10" d="M705.16,678.81c2-13.86,12-40.24,27.6-45.82"/></g></svg>