<svg width="70" height="70" viewBox="0 0 70 70" fill="none" xmlns="http://www.w3.org/2000/svg">
<path fill-rule="evenodd" clip-rule="evenodd" d="M27 58C39.1503 58 49 48.1503 49 36C49 33.2951 48.5118 30.7042 47.6188 28.3106L49.3736 27.2975C50.4238 29.9956 51 32.9305 51 36C51 49.2548 40.2548 60 27 60C13.7452 60 3 49.2548 3 36C3 22.7452 13.7452 12 27 12C34.9148 12 41.9347 15.8313 46.3064 21.7404L44.562 22.7475C40.546 17.4338 34.174 14 27 14C14.8497 14 5 23.8497 5 36C5 48.1503 14.8497 58 27 58ZM41 36C41 43.732 34.732 50 27 50C19.268 50 13 43.732 13 36C13 28.268 19.268 22 27 22C31.2085 22 34.9832 23.8569 37.5496 26.7961L39.3106 25.7794C36.3758 22.2482 31.9504 20 27 20C18.1634 20 11 27.1634 11 36C11 44.8366 18.1634 52 27 52C35.8366 52 43 44.8366 43 36C43 34.39 42.7622 32.8356 42.3199 31.3699L40.5332 32.4015C40.8377 33.5497 41 34.7559 41 36ZM32.8035 36.8642C32.3856 39.6945 29.9465 41.8667 27 41.8667C23.7599 41.8667 21.1333 39.2401 21.1333 36C21.1333 32.7599 23.7599 30.1333 27 30.1333C28.1657 30.1333 29.252 30.4733 30.1651 31.0595L32.1751 29.8991C30.78 28.7146 28.9735 28 27 28C22.5817 28 19 31.5817 19 36C19 40.4183 22.5817 44 27 44C31.4183 44 35 40.4183 35 36C35 35.8664 34.9967 35.7336 34.9903 35.6017L32.8035 36.8642Z" fill="#0B6CFF"/>
<path d="M26.4914 36.8529L50.1473 23.1952" stroke="#0B6CFF" stroke-width="2"/>
<path d="M55.5491 26.2493L49.9585 23.4851L50.3599 17.2613L61.5507 10.8003L61.2351 15.6935C61.1832 16.4992 61.6208 17.2572 62.3445 17.615L66.74 19.7883L55.5491 26.2493Z" stroke="#0B6CFF" stroke-width="2"/>
</svg>
