<?xml version="1.0" encoding="utf-8"?>
<!-- Generator: Adobe Illustrator 24.2.1, SVG Export Plug-In . SVG Version: 6.00 Build 0)  -->
<svg version="1.1" id="Layer_1" xmlns="http://www.w3.org/2000/svg" xmlns:xlink="http://www.w3.org/1999/xlink" x="0px" y="0px"
	 viewBox="0 0 2791.2 1729.5" style="enable-background:new 0 0 2791.2 1729.5;" xml:space="preserve">
<style type="text/css">
	.st0{fill:#24245B;}
	.st1{fill:#C57DBA;}
	.st2{fill:#EA9887;}
	.st3{clip-path:url(#SVGID_2_);}
	.st4{fill:none;stroke:#24245B;stroke-width:3;stroke-linecap:square;stroke-linejoin:bevel;}
	.st5{clip-path:url(#SVGID_4_);}
	.st6{fill:none;stroke:#FFEBE2;stroke-width:3;stroke-linecap:square;stroke-linejoin:bevel;}
	.st7{fill:#006CFF;}
	.st8{clip-path:url(#SVGID_6_);}
	.st9{clip-path:url(#SVGID_8_);}
	.st10{fill:#247C74;}
	.st11{clip-path:url(#SVGID_10_);}
	.st12{clip-path:url(#SVGID_12_);}
	.st13{fill:none;stroke:#AEC6F8;stroke-width:3;stroke-linecap:square;stroke-linejoin:bevel;}
	.st14{fill:#FFEBE2;}
	.st15{clip-path:url(#SVGID_14_);}
	.st16{fill:#AEC6F8;}
	.st17{clip-path:url(#SVGID_16_);}
	.st18{clip-path:url(#SVGID_18_);}
	.st19{clip-path:url(#SVGID_20_);}
	.st20{clip-path:url(#SVGID_22_);}
	.st21{clip-path:url(#SVGID_24_);}
	.st22{clip-path:url(#SVGID_26_);}
	.st23{clip-path:url(#SVGID_28_);}
	.st24{clip-path:url(#SVGID_30_);}
	.st25{clip-path:url(#SVGID_32_);}
	.st26{clip-path:url(#SVGID_34_);}
	.st27{clip-path:url(#SVGID_36_);}
	.st28{fill:#C57DBA;stroke:#24245B;stroke-width:3;stroke-linecap:square;stroke-linejoin:bevel;}
	.st29{clip-path:url(#SVGID_38_);}
	.st30{clip-path:url(#SVGID_40_);}
	.st31{clip-path:url(#SVGID_42_);}
	.st32{clip-path:url(#SVGID_44_);}
	.st33{clip-path:url(#SVGID_46_);}
	.st34{clip-path:url(#SVGID_48_);}
	.st35{clip-path:url(#SVGID_50_);}
	.st36{clip-path:url(#SVGID_52_);}
	.st37{clip-path:url(#SVGID_54_);}
	.st38{clip-path:url(#SVGID_56_);}
	.st39{clip-path:url(#SVGID_58_);}
	.st40{fill:none;stroke:#C57DBA;stroke-width:3;stroke-linecap:square;stroke-linejoin:bevel;}
	.st41{fill:none;stroke:#257C74;stroke-width:3;stroke-linecap:square;stroke-linejoin:bevel;}
	.st42{clip-path:url(#SVGID_60_);}
	.st43{clip-path:url(#SVGID_62_);}
	.st44{fill:#C57DBA;stroke:#231F20;stroke-width:3;stroke-miterlimit:10;}
	.st45{clip-path:url(#SVGID_64_);}
	.st46{clip-path:url(#SVGID_66_);}
	.st47{clip-path:url(#SVGID_68_);}
	.st48{fill:#FFFFFF;stroke:#231F20;stroke-width:3;stroke-miterlimit:10;}
	.st49{fill:none;stroke:#24245B;stroke-width:3;stroke-miterlimit:10;}
	.st50{clip-path:url(#SVGID_70_);}
</style>
<g id="art">
	<path class="st0" d="M1879.2,983.4l6.6-7.4l-17.1-31.7l1.8-27.9c1.2-6.7,1.7-13.4-0.2-19.9c-1.8-6.6-5.6-12.5-10.9-16.8
		c-4.2-3.3-9.6-5.4-15-4.9c-7.1,0.6-13.4,5.8-16,12.5c-2.5,6.8-2.5,14.2,0,21c2.4,6.8,6,13.4,6.1,20.6c0.1,8.1-4.1,15.6-5.6,23.6
		c-2.1,11.6,1.4,23.6,9.6,32.1c0.3,0.3,0.6,0.6,0.9,0.9C1850.8,996.2,1868.8,995,1879.2,983.4z"/>
	<polygon class="st1" points="1887.6,1052.7 1898.8,991.8 1908.9,989 1950.7,1040.1 1948,1065.6 1903.3,1080.4 	"/>
	<path class="st2" d="M1897.6,946.5c2.3-2.9,5.9-10,5.8-13.8c-0.1-1.8-1.2-3.5-2.9-4.1h-0.1c-1.1-0.5-2.4-0.5-3.5,0
		c-3.2,1.3-9.8,3.4-12.6,1.2c-3.3-2.6-5.6-6.2-8.5-9.3s-7-5.7-11.2-4.9l-3,3.3c1.3,3.2,2.5,6.6,2.6,10.1s-1.4,6.8-4.5,8.5
		c1.9,1.4,3.6,3.1,5,5c1.4,1.9,2.1,4.3,2,6.7c-0.1,2.4-1.2,4.9-3.3,6c3,0.7,5.4,2.8,6.4,5.7c0.9,3,0.3,6.2-1.6,8.6
		c2.9,3.1,5.9,6.1,8.6,9.3c7.6,8.8,20.7,22.9,32,10.3C1922.3,978.6,1919.1,957.5,1897.6,946.5z"/>
	<g>
		<defs>
			<path id="SVGID_1_" d="M1897.6,946.5c2.3-2.9,5.9-10,5.8-13.8c-0.1-1.8-1.2-3.5-2.9-4.1h-0.1c-1.1-0.5-2.4-0.5-3.5,0
				c-3.2,1.3-9.8,3.4-12.6,1.2c-3.3-2.6-5.6-6.2-8.5-9.3s-7-5.7-11.2-4.9l-3,3.3c1.3,3.2,2.5,6.6,2.6,10.1s-1.4,6.8-4.5,8.5
				c1.9,1.4,3.6,3.1,5,5c1.4,1.9,2.1,4.3,2,6.7c-0.1,2.4-1.2,4.9-3.3,6c3,0.7,5.4,2.8,6.4,5.7c0.9,3,0.3,6.2-1.6,8.6
				c2.9,3.1,5.9,6.1,8.6,9.3c7.6,8.8,20.7,22.9,32,10.3C1922.3,978.6,1919.1,957.5,1897.6,946.5z"/>
		</defs>
		<clipPath id="SVGID_2_">
			<use xlink:href="#SVGID_1_"  style="overflow:visible;"/>
		</clipPath>
		<g class="st3">
			<path class="st4" d="M1890.3,961c8.5,5.9,20.1,4.4,26.8-3.5"/>
			<circle class="st0" cx="1875.1" cy="930.2" r="2.9"/>
		</g>
	</g>
	<path class="st0" d="M1343.8,351.6c-7.2-0.7-13.7,12.4-11.8,25.6C1343.7,374.4,1353.3,352.5,1343.8,351.6z"/>
	<path class="st0" d="M621.4,1028.5c0-10.8-3.2-25.9-27.6-17.1c-13.9,5-16.6,21.1-17.7,39.5c-1,16.4-2.5,36.6-4.8,51.4
		c-3.3,21.6,2.4,35.5,19.2,36.8c28.5,2.2,30.2-35.1,30.2-35.1C623.2,1087,621.4,1028.5,621.4,1028.5z"/>
	<g>
		<defs>
			<path id="SVGID_3_" d="M621.4,1028.5c0-10.8-3.2-25.9-27.6-17.1c-13.9,5-16.6,21.1-17.7,39.5c-1,16.4-2.5,36.6-4.8,51.4
				c-3.3,21.6,2.4,35.5,19.2,36.8c28.5,2.2,30.2-35.1,30.2-35.1C623.2,1087,621.4,1028.5,621.4,1028.5z"/>
		</defs>
		<clipPath id="SVGID_4_">
			<use xlink:href="#SVGID_3_"  style="overflow:visible;"/>
		</clipPath>
		<g class="st5">
			<line class="st6" x1="621.4" y1="1028.5" x2="575.8" y2="1055"/>
		</g>
	</g>
	<path class="st7" d="M585.9,1073.9l18.9-10.1l-3,38.3c-0.3,3.2-2.3,6.1-5.3,7.3l0,0c-4.4,1.8-9.4-0.3-11.2-4.7
		c-0.5-1.2-0.7-2.4-0.6-3.7L585.9,1073.9z"/>
	<path class="st1" d="M618.6,909.4c-11.8-15-7.1-24.7,1.2-24.3c-0.8-6.2,7.1-8.1,10.8-6.2c1.7-6,10.3-6.5,13.5-2.7
		c3.4-6.5,11.5-3.3,14,1.2s4.2,11,0,13L618.6,909.4z"/>
	<g>
		<defs>
			<path id="SVGID_5_" d="M618.6,909.4c-11.8-15-7.1-24.7,1.2-24.3c-0.8-6.2,7.1-8.1,10.8-6.2c1.7-6,10.3-6.5,13.5-2.7
				c3.4-6.5,11.5-3.3,14,1.2s4.2,11,0,13L618.6,909.4z"/>
		</defs>
		<clipPath id="SVGID_6_">
			<use xlink:href="#SVGID_5_"  style="overflow:visible;"/>
		</clipPath>
		<g class="st8">
			<path class="st4" d="M619.8,883.6c7,1,14.1,13.1,14.1,13.1l-2.2,6.9"/>
			<path class="st4" d="M630.5,877c5.8,3.3,13.5,13,13.5,13l-2.1,8.3"/>
			<path class="st4" d="M644.1,874.1c5.9,4.6,9.4,11.8,9.4,11.8l-1.7,8.2"/>
		</g>
	</g>
	<polygon class="st0" points="669.6,894.4 800.7,829.9 798.1,823.3 606.7,915 610.7,924.9 	"/>
	<path class="st7" d="M620.5,953.6c-11.6,5.8-5.8,28.4-2.6,44c4.1,19.9,4.9,38.6,0.3,58.6c-6.1,26.7-8.8,55.5-6.6,82.8
		c2.1,25.9,9,87.2,8.8,104.8s19.2,28.5,33.5,18.2c0.1-0.1,0.2-0.1,0.3-0.2c3.1-2.3,9.5-33.4,10.3-36.2c3.1-10.5-13.3-18.7-24.1-0.1
		c-5.4-32-14.6-100.8,7.7-128.8c15.2-19.1,35.5-10.6,39.3-4.7c0,0.2-0.1,0.3-0.1,0.4c-3.3,16.7,16.6,28,29.5,16.8
		c8.3-7.3,13.8-16.8,16.8-30.4c3.1-12.8-11.5-29.8-28.8-3.6c0,0-18-14.1-37-14.9c10.8,0.5,18.5-10.4,20-20.3c1-0.7,2.4-1.9,3.3-2.6
		c12.5,3.2,27.6-4.4,28.8-18c1-0.6,2.3-1.7,3.3-2.3c6.3,2.1,12.7,1,18.8-1.1c6.7-2.3,16.9-6.9,20.2-13.6c8-16.2,32.6-69.8,41.3-77.8
		c4.7-4.2,9.2-8.6,13.4-13.3l1.5-6.7c0,0-20.2-7.5-41.3,8.9c-17.3,13.5-36.2,41.2-34.2,69.7c-5.4,2.1-11.4,4.7-16.9,6.4
		c18.5-32.1,16.4-107.5-56.5-95.7l-0.5,38.5c0,0,29.3-9,34.1,18.2s-50.3,59-50.3,59s-3.2-23.9-2.3-30.5c1-8,7.7-15.9,7.7-15.9
		l-2.1-4.9c0,0-8.5,4.2-15.2,0S629.8,949,620.5,953.6z"/>
	<g>
		<defs>
			<path id="SVGID_7_" d="M620.5,953.6c-11.6,5.8-5.8,28.4-2.6,44c4.1,19.9,4.9,38.6,0.3,58.6c-6.1,26.7-8.8,55.5-6.6,82.8
				c2.1,25.9,9,87.2,8.8,104.8s19.2,28.5,33.5,18.2c0.1-0.1,0.2-0.1,0.3-0.2c3.1-2.3,9.5-33.4,10.3-36.2
				c3.1-10.5-13.3-18.7-24.1-0.1c-5.4-32-14.6-100.8,7.7-128.8c15.2-19.1,35.5-10.6,39.3-4.7c0,0.2-0.1,0.3-0.1,0.4
				c-3.3,16.7,16.6,28,29.5,16.8c8.3-7.3,13.8-16.8,16.8-30.4c3.1-12.8-11.5-29.8-28.8-3.6c0,0-18-14.1-37-14.9
				c10.8,0.5,18.5-10.4,20-20.3c1-0.7,2.4-1.9,3.3-2.6c12.5,3.2,27.6-4.4,28.8-18c1-0.6,2.3-1.7,3.3-2.3c6.3,2.1,12.7,1,18.8-1.1
				c6.7-2.3,16.9-6.9,20.2-13.6c8-16.2,32.6-69.8,41.3-77.8c4.7-4.2,9.2-8.6,13.4-13.3l1.5-6.7c0,0-20.2-7.5-41.3,8.9
				c-17.3,13.5-36.2,41.2-34.2,69.7c-5.4,2.1-11.4,4.7-16.9,6.4c18.5-32.1,16.4-107.5-56.5-95.7l-0.5,38.5c0,0,29.3-9,34.1,18.2
				s-50.3,59-50.3,59s-3.2-23.9-2.3-30.5c1-8,7.7-15.9,7.7-15.9l-2.1-4.9c0,0-8.5,4.2-15.2,0S629.8,949,620.5,953.6z"/>
		</defs>
		<clipPath id="SVGID_8_">
			<use xlink:href="#SVGID_7_"  style="overflow:visible;"/>
		</clipPath>
		<g class="st9">
			<path class="st0" d="M667.8,1060.7c-10.5-1-57.5,7.2-56.9,70.3l-19.1,46.1l10.8,113.2l109.3-22l57.8-147.8l-32-80.9l-47.4,17.3
				l-15.5,3.6L667.8,1060.7z"/>
			<path class="st1" d="M620.6,1028.9c0,0,18.9-11.1,32.2-18.8l19-32.8l-15.4-32l-49.7-6.5l-19.6,50l21.9,39.7L620.6,1028.9z"/>
			<polygon class="st2" points="614.7,1242.9 642.5,1198.3 688,1201.6 655.4,1282.2 615.4,1284.3 			"/>
			<path class="st2" d="M700.6,1061.4c-7.5,10.1-14.1,20.8-19.9,31.9l10.4,37.2l48.3-11.6l10.6-57.8l-26.6-12.1L700.6,1061.4z"/>
			<path class="st0" d="M691.7,1113.1c2.2-7.5,9.7-12.1,17.4-10.6c-1.1-3.9-0.5-8.1,1.6-11.6c2-3.3,5.4-5.6,9.2-6.3
				c-2.2-5.4-2.1-11.4,0.3-16.7c2.3-5.3,6.7-9.4,12.1-11.4l19.4,26l-41.8,47.8L691.7,1113.1z"/>
			<path class="st0" d="M610.9,989.4c14.8-6,18.1-16.2,12.3-25c5.3-2.8,12.6-9.6,10.8-16.6l-24.5-2.5l-13.3,32.4L610.9,989.4z"/>
			<path class="st4" d="M632.8,967.1c1.3,2.1,4.8,3.4,6.8,1.6c3.8-3.4,1-12.2-0.7-15.9"/>
			<path class="st4" d="M638.2,981.5c2.9,6,8.1,14,15.6,14.4"/>
			<path class="st1" d="M764.7,997.8c-7.9,2.8-21-3.2-21.8-14.1l-3.3-33l46.9-69.3l54,15.4l-30.1,78.2L764.7,997.8z"/>
			<path class="st0" d="M668.7,1219.3c-9.5-0.7-17.7,6.5-18.3,16c-0.2,2.2,0.1,4.4,0.8,6.5c-3.5-0.4-7,1.5-9.2,4.3
				c-2.2,2.9-2.7,6.6-1.5,10c-6-1.4-13.2,2.4-15.8,8.1l26.6,13.7l16.2-13.9l6.7-35.7L668.7,1219.3z"/>
			<path class="st6" d="M748.8,995c-5.6,10.2-18.8,16.3-30.2,9.4c-0.9,7.8-7.1,15.3-13.7,19.7c-6.7,4.4-15,5.6-22.7,3.4
				c-2.8,8.9-11,16.4-19.3,20.8c-8.4,4.5-18.2,5.5-27.3,3c-2.1,11.6-12.1,21-23.3,24.3"/>
			<path class="st6" d="M610.7,1058.6c10.1-4.2,17.5-13.2,19.5-24c7.7,5.3,18.7,5.5,27,1.2c8.4-4.5,13.8-13.2,14-22.7
				c9.1,3,19.1,1,26.5-5.2c7.1-6.4,10.4-16,8.7-25.4c7.3-2.2,12.4-8.5,14.7-15.7c2.3-7.4,0.8-15.5-3.9-21.6
				c4.9-6.6,3.1-16.1-1.9-22.6c-5.3-6.5-14.3-8.9-22.2-5.8c-8.2-7-22.2-7.3-31.3-1.6"/>
		</g>
	</g>
	<path class="st0" d="M618.2,957.2c9.9-8.9-3.2-37.7-21.7-22.7C578.4,949.3,601.3,972.5,618.2,957.2z"/>
	<path class="st4" d="M803.5,925.2V919c-20.9,4.8-35.9,37.1-38.8,53.7"/>
	<path class="st4" d="M810.4,918.6v-7.6c-24.9,0-40.9,15.4-49.8,41.8"/>
	<line class="st4" x1="763" y1="821.1" x2="776.5" y2="859.6"/>
	<line class="st4" x1="776.5" y1="821.1" x2="786.5" y2="850.4"/>
	<path class="st10" d="M1558.5,586.4h10.3c0,0,6.2,73.8,71.3,121.5c-0.3,3.4-0.3,6.9,0,10.3c0,0-34.9-2.6-45.7-11.3
		c10.8,60.6,56.5,120.6,85.2,133.5l-1,8.2c0,0-37-10.3-50.3-21.6c5.6,40.5,77.5,115.5,102.7,127.8c0,6.7-2,9.2-2,9.2
		s-31.9-9.8-40.7-17c7.7,31.3,61.6,93.8,107.3,104.1l-49.2,96.3L1383.9,1307l-22.6-307.5c0,0,51.8-34.9,64.2-77.5
		c-17.5,12.8-40.6,24.7-40.6,24.7l-1.5-11.9c0,0,74.4-58.6,89.8-123.7c-16.2,16.5-35.1,30-56,40l-2.6-8.2c0,0,76-54.9,87.8-131.4
		c-30.3,17.5-41.1,16.4-41.1,16.4l-1-10.3C1460.4,717.6,1540.5,656.5,1558.5,586.4z"/>
	<g>
		<defs>
			<path id="SVGID_9_" d="M1558.5,586.4h10.3c0,0,6.2,73.8,71.3,121.5c-0.3,3.4-0.3,6.9,0,10.3c0,0-34.9-2.6-45.7-11.3
				c10.8,60.6,56.5,120.6,85.2,133.5l-1,8.2c0,0-37-10.3-50.3-21.6c5.6,40.5,77.5,115.5,102.7,127.8c0,6.7-2,9.2-2,9.2
				s-31.9-9.8-40.7-17c7.7,31.3,61.6,93.8,107.3,104.1l-49.2,96.3L1383.9,1307l-22.6-307.5c0,0,51.8-34.9,64.2-77.5
				c-17.5,12.8-40.6,24.7-40.6,24.7l-1.5-11.9c0,0,74.4-58.6,89.8-123.7c-16.2,16.5-35.1,30-56,40l-2.6-8.2c0,0,76-54.9,87.8-131.4
				c-30.3,17.5-41.1,16.4-41.1,16.4l-1-10.3C1460.4,717.6,1540.5,656.5,1558.5,586.4z"/>
		</defs>
		<clipPath id="SVGID_10_">
			<use xlink:href="#SVGID_9_"  style="overflow:visible;"/>
		</clipPath>
		<g class="st11">
			<path class="st4" d="M1630.3,830c-26.6-21.2-35-37.6-40.4-53"/>
			<path class="st4" d="M1592,634.8c0.6,5.4-1.2,10.8-4.8,14.9c-3.7,4-9.3,5.8-14.6,4.6c-5.2-1.4-9.4-6.3-9.4-11.7"/>
		</g>
	</g>
	<path class="st4" d="M1497.8,1049c3.8,21.6,8.8,42.7,10,49.3s6.1,12.3,19,7.7s23.6-20.8,23.6-20.8l-12.8-60.9L1497.8,1049z"/>
	<path class="st0" d="M1466.7,1042.4c12.4-7.5,124.8-66.4,133.8-72.1s16.7-14.1,12.8-27c7.2-3.8,9.5-5.1,9.5-5.1
		s-12.6-40.6-36.7-42.4c-33.3,13.9-134.5,62.9-149.4,69.8s-36.4,21.3-22.3,53.6C1428.5,1051.7,1454.3,1049.9,1466.7,1042.4z"/>
	<g>
		<defs>
			<path id="SVGID_11_" d="M1466.7,1042.4c12.4-7.5,124.8-66.4,133.8-72.1s16.7-14.1,12.8-27c7.2-3.8,9.5-5.1,9.5-5.1
				s-12.6-40.6-36.7-42.4c-33.3,13.9-134.5,62.9-149.4,69.8s-36.4,21.3-22.3,53.6C1428.5,1051.7,1454.3,1049.9,1466.7,1042.4z"/>
		</defs>
		<clipPath id="SVGID_12_">
			<use xlink:href="#SVGID_11_"  style="overflow:visible;"/>
		</clipPath>
		<g class="st12">
			<path class="st13" d="M1618.8,942.5l-136.2,67.4c4.6-16.4-20.5-60.2-55.4-40.5c-37.1,20.9,36.9-44.7,36.9-44.7l30.6-63.4
				l94.2-13.1l40.6,42.9l12.3,64.4l-21-7.4L1618.8,942.5z"/>
			<path class="st13" d="M1446.7,1017c-6.9,0-9.2-10.4-2-14.5s12.7,4.1,13.8,9.4c1.8,8.7-6.2,17.2-17.4,13.9
				c-11.5-3.4-15.9-25.4-0.8-32.9c15.6-7.6,23.8,5.4,26.4,15.7c2.1,8.7,2.6,22.3-13.4,27.7c-25.1,8.5-51.4-37.2-18.3-56.7
				c13.8-8.2,33.8-3.6,40.5,27.8c6.7,31.3-15.6,40.1-15.6,40.1"/>
		</g>
	</g>
	<path class="st0" d="M1507.6,1015.8c-23.1,10.4-34.2,133.9,7.1,125.1s40.8-76.5,40.8-76.5L1507.6,1015.8z"/>
	<path class="st14" d="M1456.6,1164.9c-1.5-38.1-4.9-126.2,74.2-164.5c18.2-8.9,20.8-11,36.9-18.7c21.8-10.4,78.7-31,112.6,54.7
		c28.1-6.2,57-2.3,72.8,15.3l-2.5,8.7c0,0-63.9,22.1-71.1,24.8c-16.4,3.9-28.8-16.9-38-46.5c-9.2-29.6-24-29.3-36.8-23.1
		c1,15.2,4.5,41.6,4.5,41.6l-72.9,41.4l-9.3-43.7c0,0-43.3,16.2-32.5,86.6c1.2,11.6,3.8,25.4,3.8,25.4l-4,10.6
		c0,0-33.8,24.4-49.1,39.5C1435.8,1213.4,1432.3,1190.7,1456.6,1164.9z"/>
	<g>
		<defs>
			<path id="SVGID_13_" d="M1456.6,1164.9c-1.5-38.1-4.9-126.2,74.2-164.5c18.2-8.9,20.8-11,36.9-18.7c21.8-10.4,78.7-31,112.6,54.7
				c28.1-6.2,57-2.3,72.8,15.3l-2.5,8.7c0,0-63.9,22.1-71.1,24.8c-16.4,3.9-28.8-16.9-38-46.5c-9.2-29.6-24-29.3-36.8-23.1
				c1,15.2,4.5,41.6,4.5,41.6l-72.9,41.4l-9.3-43.7c0,0-43.3,16.2-32.5,86.6c1.2,11.6,3.8,25.4,3.8,25.4l-4,10.6
				c0,0-33.8,24.4-49.1,39.5C1435.8,1213.4,1432.3,1190.7,1456.6,1164.9z"/>
		</defs>
		<clipPath id="SVGID_14_">
			<use xlink:href="#SVGID_13_"  style="overflow:visible;"/>
		</clipPath>
		<g class="st15">
			<path class="st16" d="M1456.6,1164.9c18.9-18.1,46.2-24.9,46.2-24.9l66.7-23.9l76.5-64.3c10.7-6.5,22.3-11.7,34.3-15.4
				c19.2-5.8,17.7-34.6,17.7-34.6l-61.2-60.1l-105,28.7l-83.3,76.6l-17.7,94.8L1456.6,1164.9z"/>
			<path class="st0" d="M1526.8,1054.8c-4.4-20-14.4-42.3-19-49.3c6.2-5.8,11.3-16.2,11.3-16.2s24.9,46.8,33.8,105.1
				c-9.6,17-24,12.8-24,12.8L1526.8,1054.8z"/>
			<path class="st0" d="M1604.5,1015.5l-9.7-56.1l-16.1-0.3c4.1,41,11.4,81.6,21.9,121.4c24.7-10.4,22.1-33.6,22.1-33.6
				L1604.5,1015.5z"/>
			<path class="st4" d="M1456.7,1210.7c4.4-14.9,13.6-28,26.1-37.2"/>
			<path class="st4" d="M1472.8,1171.1c-8.8,6.9-15.8,15.8-20.4,26c-2.1,4.5-3.5,10.2-0.4,14"/>
			<path class="st4" d="M1466.7,1167.3c-7.2,6.6-14.6,13.3-19.3,21.9s-6.4,19.4-1.8,28.1"/>
			<path class="st4" d="M1724.9,1068.7l2.7-7.7c0,0-22.3-3.1-43.1,3.8"/>
			<path class="st4" d="M1736.1,1065.3l1.9-6.6c0,0-20-11.6-48.1-5.4"/>
			<path class="st4" d="M1743,1062.1l2.3-5.8c0,0-23.1-18.5-52-13.5"/>
		</g>
	</g>
	<path class="st0" d="M1517.6,1060.3c5.5-3.3,11.2-6.2,17.1-8.8l8.7,42.8l-13.6,20.3L1517.6,1060.3z"/>
	<path class="st1" d="M1523.2,1165.7c-3.8-21.9-9.3-40.9-1.9-53.1s32.7-44.3,57.8-62s47.4-20.8,50.4,0c1.9,10.4,3.5,22.7,3.5,22.7
		s14.6-2.7,18.9,7.3s-0.9,15.6-6,17.6s-46.6,20-46.6,20s-12.5,7-15.7-6.8s15.2-25.4,15.2-25.4l-3.1-14.6
		c-28.5,14.6-40.4,35.4-32.7,71.2C1545.5,1152.6,1523.2,1165.7,1523.2,1165.7z"/>
	<g>
		<defs>
			<path id="SVGID_15_" d="M1523.2,1165.7c-3.8-21.9-9.3-40.9-1.9-53.1s32.7-44.3,57.8-62s47.4-20.8,50.4,0
				c1.9,10.4,3.5,22.7,3.5,22.7s14.6-2.7,18.9,7.3s-0.9,15.6-6,17.6s-46.6,20-46.6,20s-12.5,7-15.7-6.8s15.2-25.4,15.2-25.4
				l-3.1-14.6c-28.5,14.6-40.4,35.4-32.7,71.2C1545.5,1152.6,1523.2,1165.7,1523.2,1165.7z"/>
		</defs>
		<clipPath id="SVGID_16_">
			<use xlink:href="#SVGID_15_"  style="overflow:visible;"/>
		</clipPath>
		<g class="st17">
			<path class="st0" d="M1598.6,1086c17.7-10,24.3-10.4,34.3-12.7s10.4-8.9,10.4-8.9l17.3,19.6l-4.6,32l-68.2,19.5l-13.9-19.5
				l8.5-26.2L1598.6,1086z"/>
			<path class="st6" d="M1654.8,1078.8c-4.7-0.5-9.4,0.8-13.2,3.5c-4,3.2-6.8,7.6-8,12.5c-1.4,0.6-3.6,1.5-5.1,2.1
				c-3.1-2.6-7.4-3.2-11.2-1.7c-3.9,1.9-6.6,5.7-7.2,10c-1.2,0.5-3.3,1.6-4.5,2.1c-8.6-4.5-19.3-1.1-23.7,7.6
				c-0.1,0.2-0.2,0.5-0.3,0.7l10.5,23.1l70.1-35.4L1654.8,1078.8z"/>
			<path class="st6" d="M1603.2,1095.5c6.7-7,15.8-11.1,25.5-11.4"/>
		</g>
	</g>
	<path class="st0" d="M1508.6,1006.6c1.5,2.3,2.8,4.8,3.9,7.4c11-6,14.8-8.3,14.8-8.3l-3.2-6.8L1508.6,1006.6z"/>
	<path class="st0" d="M1579.5,971.7c0.9,2.7,1.5,5.4,1.8,8.2c12.1-2.9,16.4-4.1,16.4-4.1l-1.3-7.3L1579.5,971.7z"/>
	<path class="st2" d="M1541.4,958.9c11.7,5.3,26.6,1.9,34.9-7.9s9.9-25.2,2.8-35.8c-0.4,3.9-4.3,6.9-8.2,7.1s-7.7-2-10.2-5
		c-2.4-3.1-4.1-6.8-4.9-10.7c-1.7-6.6-2.2-13.3-3.4-20s-3-13.4-7-18.9s-10.4-9.5-17.2-9.2s-15.5,5.7-15.6,12.5
		c-5.2-3.4-12.6-1.9-17.1,2.4s-6.3,10.8-6.4,17s1.4,12.3,2.7,18.4c2.4,10.3,3.9,20.9,4.5,31.4c0.2,5,0,10.3-2.6,14.6
		s-8.5,7-12.8,4.5c3.8,11.2,14,19.8,25.8,20.9c12.1,1,23.7-5.1,29.8-15.5C1537.5,963,1541.1,961,1541.4,958.9z"/>
	<path class="st14" d="M1580.6,976.3c3.6,18.4-0.1,31.6-16.5,39.4s-31.7,3.8-38.5-12.8c-15.2-36.6-3-81.5-21.5-116.5l0,0l21.8-8.8
		c7,24.9,17.6,45.8,34.6,65.3C1569.6,953.4,1578,962.8,1580.6,976.3z"/>
	<path class="st4" d="M1530.3,927c4.7,13,6.8,26.8,6.4,40.6c2.8,2.7,7,4.2,10.4,2.3c3.5-1.9,5.4-5.8,4.8-9.8"/>
	<path class="st2" d="M1508.3,956.3c6.4,0.3,12.7-3,16.9-7.9s6.6-11.1,7.9-17.4c3.6,4.6,8.9,7.5,14.7,8.3c5.8,0.8,11.7-0.7,16.5-4.1
		c-8.3-5.8-14.4-15.9-18.2-25.2s-6.3-19.2-10.1-28.6c-1.7-4.4-4.2-9-8.6-10.7c-5-1.8-10.4,1-15,3.8c-4.1,2.5-8.4,5.1-10.4,9.4
		c-2.3,4.7-1.3,10.3-0.3,15.5l9.8,50.7"/>
	<path class="st4" d="M1526.1,969.8c0.4,7.4,1.2,14.9,4.2,21.7s8.5,12.8,15.6,14.8c8,2.3,17-0.9,22.4-7.2s7.3-15.2,5.8-23.3
		s-6.2-15.5-12.3-21"/>
	<path class="st0" d="M2255.4,315.3c0,0-18.1,16.5-31.8,30.5c1.3-6.7-7.2-11-11.6-7.3c0,0,5.2-9.1,19.9-33.5
		c-4.6-28-33.2-28.1-47.6-17.4c0,0-17,44.2-28.5,75.9c4.1,16.3,17.5,19.8,30,16.5c3.1,22.7,29,21.7,32.9,18.9s47.7-29.5,69.8-46
		C2289.5,329.7,2276.4,312.7,2255.4,315.3z M2203.9,361.2c-1.3,0.9-3.2,0.6-4.1-0.7c-0.6-0.8-0.7-1.9-0.3-2.9
		c2.9-6.6,6.5-12.1,11-7.9C2213.9,352.9,2208.9,357.7,2203.9,361.2z"/>
	<g>
		<defs>
			<path id="SVGID_17_" d="M2255.4,315.3c0,0-18.1,16.5-31.8,30.5c1.3-6.7-7.2-11-11.6-7.3c0,0,5.2-9.1,19.9-33.5
				c-4.6-28-33.2-28.1-47.6-17.4c0,0-17,44.2-28.5,75.9c4.1,16.3,17.5,19.8,30,16.5c3.1,22.7,29,21.7,32.9,18.9s47.7-29.5,69.8-46
				C2289.5,329.7,2276.4,312.7,2255.4,315.3z M2203.9,361.2c-1.3,0.9-3.2,0.6-4.1-0.7c-0.6-0.8-0.7-1.9-0.3-2.9
				c2.9-6.6,6.5-12.1,11-7.9C2213.9,352.9,2208.9,357.7,2203.9,361.2z"/>
		</defs>
		<clipPath id="SVGID_18_">
			<use xlink:href="#SVGID_17_"  style="overflow:visible;"/>
		</clipPath>
		<g class="st18">
			<path class="st14" d="M2157.7,358.3c11.7-17.5,36.3-7.6,33.8,13c20.4-11.6,40.9,5.2,30.7,25.4l-21.7,15.7l-21.8-20.3l-33-11.3
				L2157.7,358.3z"/>
		</g>
	</g>
	<path class="st10" d="M2075.8,448.2c-8.8-14.6-24.7-35.9-49.1-23.8c-27,13.3-9.2,48.3,2.8,69h39c0,0-13.4-28.5-15.1-34.9
		c7.4,10.8,38,30,38,30l27.7-4.4l-3.6-31.6L2075.8,448.2z"/>
	<path class="st1" d="M2005.2,492c33.1-4.9,105.1-11.4,105.1-11.4c-22.8-10.4-39.9-33.3-43.3-58.2s5.7-50.8,23.2-68.8
		s42.9-32,67.6-27.9c10.6,1.8,12.6,10.2,7.2,14.3c2.9,2.9,0.6,8.7-4,9.8c2.7,4.8,0.4,8.7-3.3,10.6c3.5,3.5,1.9,7.3-11.9,12.5
		s-47.4,17.3-45.8,41s27.5,19.2,27.5,19.2c0.8-17.9-1-42.4,29.3-42.4c24.6,0,23.1,27,23,37.9c-0.1,5,30.4,40.6,50.2,27.5
		s1.3-34.8-7.5-45c-12.3-14.2,2.3-23.7,9.4-16c-4.4-8.9,4.1-14.6,9.8-9.4c-2.7-6.9,5.8-11.9,11.2-5.8c-2.1-8.5,7.3-15,14.8-5.2
		s20.6,37.8,18.1,64.7c-2.7,27.9-16.1,52.2-47.5,66.8l-219.9,31.9L2005.2,492z"/>
	<g>
		<defs>
			<path id="SVGID_19_" d="M2005.2,492c33.1-4.9,105.1-11.4,105.1-11.4c-22.8-10.4-39.9-33.3-43.3-58.2s5.7-50.8,23.2-68.8
				s42.9-32,67.6-27.9c10.6,1.8,12.6,10.2,7.2,14.3c2.9,2.9,0.6,8.7-4,9.8c2.7,4.8,0.4,8.7-3.3,10.6c3.5,3.5,1.9,7.3-11.9,12.5
				s-47.4,17.3-45.8,41s27.5,19.2,27.5,19.2c0.8-17.9-1-42.4,29.3-42.4c24.6,0,23.1,27,23,37.9c-0.1,5,30.4,40.6,50.2,27.5
				s1.3-34.8-7.5-45c-12.3-14.2,2.3-23.7,9.4-16c-4.4-8.9,4.1-14.6,9.8-9.4c-2.7-6.9,5.8-11.9,11.2-5.8c-2.1-8.5,7.3-15,14.8-5.2
				s20.6,37.8,18.1,64.7c-2.7,27.9-16.1,52.2-47.5,66.8l-219.9,31.9L2005.2,492z"/>
		</defs>
		<clipPath id="SVGID_20_">
			<use xlink:href="#SVGID_19_"  style="overflow:visible;"/>
		</clipPath>
		<g class="st19">
			<polyline class="st10" points="2110.3,480.6 1995.3,481.1 2014.9,553.5 2192.2,527.8 2194.8,427.4 2180.7,390 2139.6,382.3 
				2110.3,409.5 2112.6,431.9 2110.3,480.6 			"/>
			<path class="st0" d="M2127.5,433.2c-1,15-3,63-3,63s39.8-2.8,50.6-2.8c1-17.2,4.7-64.6,4.7-64.6l17.7-14.7l-15.9-27.2l-46.7-3.9
				l-21.3,27.5L2127.5,433.2z"/>
			<polygon class="st2" points="2227.9,429.5 2292.1,419.7 2281.3,355.3 2229.4,358.9 2200.4,394.8 			"/>
			<polygon class="st2" points="2083.9,343.8 2114.5,396.9 2174.5,373.8 2178.9,325.1 2149.4,306 2086,333.8 			"/>
			<g>
				<defs>
					<polygon id="SVGID_21_" points="2083.9,343.8 2114.5,396.9 2174.5,373.8 2178.9,325.1 2149.4,306 2086,333.8 					"/>
				</defs>
				<clipPath id="SVGID_22_">
					<use xlink:href="#SVGID_21_"  style="overflow:visible;"/>
				</clipPath>
				<g class="st20">
					<path class="st4" d="M2158.7,359.5c-7.1-3.9-20.9-2.1-33.8,4.6"/>
				</g>
			</g>
		</g>
	</g>
	<path class="st7" d="M1343.9,353.9c6.6-1.3,13.2-4.9,15.7-13.2c0.4-1.3,0.6-2.6,0.6-4v-0.1c0.4-9.1-6.4-16.9-15.4-17.8
		c-1.2-0.1-2.4-0.1-3.6,0L1343.9,353.9z"/>
	<polygon class="st16" points="1026.1,919 1100,691.6 1107,691.6 1167,508.3 1198.6,479.8 1289.2,479.8 1304.8,563 1316.3,569.5 
		1330.8,687.7 1343.3,687.7 1371.8,960.3 1383.3,960.3 1447.3,1462.9 1112.9,1462.9 	"/>
	<path class="st16" d="M715.6,1109.5c-10.6,8.3-18.6,2.6-18.6,2.6L656.4,1251c-1.9,6.6-7.7,11.4-14.5,12.1l-8.7,0.9l-57.5,192.2
		l4.2,7.3l629.5-0.8v-59.9l-69.3-221.6h-16.1l-39.6-151.8l-11.9-3l-42.9-146l-22-5l-12.3-25.2c0,0-25.9-20.1-38.5-29.3h-78.2
		l-43.1,72l-34.6,33l-37.2,71.6L715.6,1109.5z"/>
	<polygon class="st14" points="1241.7,1117.3 1279.5,1097.6 1279.5,1100.4 1254.8,1119.6 1279.5,1133 1279.5,1136.6 1241.7,1124.3 	
		"/>
	<path class="st16" d="M897.5,1682.6c-36.8-1.4-184.6-13.6-213.3-17.2l-1.5,5.7c0,0,74.4,54.6,214.8,43.1
		C902.9,1701.1,897.5,1682.6,897.5,1682.6z"/>
	<path class="st14" d="M913.3,1577.4c13.5,12.8,56.9,18.2,87.2-10.3c30.3-28.5,35.2-31.9,38.4-34.7c6.9-6.2,1.4-16.6-7.8-10.9
		c5.5-5.9-1-14.5-7.7-10c5-6.3-1.1-13.9-8.6-9.2c3.5-5.7-2.5-15.9-12.1-8c-7.3,6.1-15.6,17.4-15.6,17.4c-1.2-0.9-2.4-2-3.4-3.1
		c0,0,9.9-12.5,12.4-18.9c3.3-8.7-13.3-16.6-17.6,4c-9.4,23.7-26.8,45.6-64.3,24.1C896.5,1524.3,877.4,1558.8,913.3,1577.4z"/>
	<g>
		<defs>
			<path id="SVGID_23_" d="M913.3,1577.4c13.5,12.8,56.9,18.2,87.2-10.3c30.3-28.5,35.2-31.9,38.4-34.7c6.9-6.2,1.4-16.6-7.8-10.9
				c5.5-5.9-1-14.5-7.7-10c5-6.3-1.1-13.9-8.6-9.2c3.5-5.7-2.5-15.9-12.1-8c-7.3,6.1-15.6,17.4-15.6,17.4c-1.2-0.9-2.4-2-3.4-3.1
				c0,0,9.9-12.5,12.4-18.9c3.3-8.7-13.3-16.6-17.6,4c-9.4,23.7-26.8,45.6-64.3,24.1C896.5,1524.3,877.4,1558.8,913.3,1577.4z"/>
		</defs>
		<clipPath id="SVGID_24_">
			<use xlink:href="#SVGID_23_"  style="overflow:visible;"/>
		</clipPath>
		<g class="st21">
			<path class="st4" d="M1037,1519.6c-8.4,5.6-16.2,12-23.4,19"/>
			<path class="st4" d="M1029.3,1508.6c-8.6,6.8-16.6,14.4-24.5,21.3"/>
			<path class="st4" d="M1020.8,1499.8c-5.9,4.2-17.1,14-24.5,21.2"/>
		</g>
	</g>
	<path class="st0" d="M865.4,1357c6.3-33.4,11.8-47.1,11.8-47.1h11.3l12.8,23.5h4.9l13.6-23.5h10.8L944,1352
		C944,1352,900.3,1383.5,865.4,1357z"/>
	<path class="st16" d="M141.8,1298.6c-35.2-1.5-76.3-13.3-84.2-18l0.8-5.1h69.7L141.8,1298.6z"/>
	<path class="st0" d="M222.1,1139.9c5.4,14.5,23.6,54.5,33.6,64.9c-0.8,5.3-1,9.4-1,9.4l-15,8.5l-9.4-3.4c-0.7-3-1.6-6.1-2.7-9
		c-5.6-16.2-14.7-46.3-37.2-51.4L222.1,1139.9z"/>
	<path class="st16" d="M189.3,1158.8l-14.9-27c0,0,28.8-17.8,35.4-22.5c6.9-24.5,40.8-140.5,40.8-140.5
		c26.4,19.8,95.2,142,107.6,181.5c-58.7-6.9-108.3-10.6-131.7-12.9C218.1,1142,189.3,1158.8,189.3,1158.8z"/>
	<g>
		<defs>
			<path id="SVGID_25_" d="M189.3,1158.8l-14.9-27c0,0,28.8-17.8,35.4-22.5c6.9-24.5,40.8-140.5,40.8-140.5
				c26.4,19.8,95.2,142,107.6,181.5c-58.7-6.9-108.3-10.6-131.7-12.9C218.1,1142,189.3,1158.8,189.3,1158.8z"/>
		</defs>
		<clipPath id="SVGID_26_">
			<use xlink:href="#SVGID_25_"  style="overflow:visible;"/>
		</clipPath>
		<g class="st22">
			<path class="st0" d="M358.2,1150.3c-77.6-47.2-102.2-149.9-107.6-181.5l49.5,7.4l67.4,117L358.2,1150.3z"/>
		</g>
	</g>
	<path class="st2" d="M85.4,1164.4c46,35.3,112.7,22.3,112.7,22.3l1.5-3.6c0,0-10.1-5.4-15.1-7.5c-7.2-3-4.1-23.8,14.1-14.3
		s29,49,29,49c-12.5,6.6-29.1,9-48.8,10.3c2.3,21.1,4.7,31.6,7.2,37.9c28.2,9.5,19.8,40,4.4,40h-48.5c-21.8,0-16.4-24.4-5.9-38.8
		c0.7-12.3,0.6-24.6-0.3-36.9c-20.2,1.2-42.2,3.1-65.2,7.9c-17.2,3.6-39,11.3-45.4-1.3c-5.9,2.6-19.2-3.3-17.7-15.1
		c-5.6-4.1-11-12.1-3.9-19.3c-3.6-5.9,1.8-22.1,35.4-13.9c18,4.4,40.5,4.6,40.5,4.6l0.6-4.6c-30.8-7.2-28-20-24.6-24.6
		S64.3,1148.2,85.4,1164.4z"/>
	<g>
		<defs>
			<path id="SVGID_27_" d="M85.4,1164.4c46,35.3,112.7,22.3,112.7,22.3l1.5-3.6c0,0-10.1-5.4-15.1-7.5c-7.2-3-4.1-23.8,14.1-14.3
				s29,49,29,49c-12.5,6.6-29.1,9-48.8,10.3c2.3,21.1,4.7,31.6,7.2,37.9c28.2,9.5,19.8,40,4.4,40h-48.5c-21.8,0-16.4-24.4-5.9-38.8
				c0.7-12.3,0.6-24.6-0.3-36.9c-20.2,1.2-42.2,3.1-65.2,7.9c-17.2,3.6-39,11.3-45.4-1.3c-5.9,2.6-19.2-3.3-17.7-15.1
				c-5.6-4.1-11-12.1-3.9-19.3c-3.6-5.9,1.8-22.1,35.4-13.9c18,4.4,40.5,4.6,40.5,4.6l0.6-4.6c-30.8-7.2-28-20-24.6-24.6
				S64.3,1148.2,85.4,1164.4z"/>
		</defs>
		<clipPath id="SVGID_28_">
			<use xlink:href="#SVGID_27_"  style="overflow:visible;"/>
		</clipPath>
		<g class="st23">
			<rect x="112.1" y="1254" class="st14" width="112.4" height="63.4"/>
			<path class="st7" d="M178.8,1220.7c-1.8-15.1-1.9-30.4-0.5-45.5l-56.7-3.1c0,0,12.3,32.1,14.1,50.8l-14.1,33.1l14.4,3.8l50-1.3
				l12.8-9L178.8,1220.7z"/>
			<path class="st4" d="M122.5,1293.3c2.8-9.5,17.1-15.7,24.1-3.3c5.2-8.1,15-6.9,18.7,0.8c4.5-9.4,15.5-8.3,19.9-0.2
				c4.4-9.2,20-8.2,21.8,2.6"/>
			<path class="st4" d="M162.1,1225.7c-0.8,11.4,2.6,33.5,2.6,33.5c20.9,8,21.7,41.5,3.6,41.5"/>
			<path class="st4" d="M23,1229.6c-3.6-6.7,1.3-14.4,14.9-13.9s24.1,5.1,38.5,1s20.3-8.7,32.1-7.4"/>
			<path class="st4" d="M5.3,1214.4c2.3-8.7,11.8-11.6,29-9.2s44.9,3.6,59.3-3.3"/>
			<path class="st4" d="M1.5,1195.2c14.1-12.3,65.5,10.3,83.4-1"/>
		</g>
	</g>
	<path class="st2" d="M166.8,1209.3c8.2-51.8-2.4-58.3-4.7-67.8c-2.6-10.8,3.6-27.2,3.6-27.2s-2-3.6-5.1-7.8
		c-7.2,0.8-20-1.4-26.7-6.5s-11.8-22.1-28.8-24.1c2.1-7.2-2-19.5-14.4-18.5c3.6-6.2-0.5-17.4-12.8-16.9c-3.1-9.2-8.2-11.8-15.4-7.7
		c-7.2,4.1-7.2,15.9,4.6,16.9c-3.6,4.6-4.6,18.5,9.8,17.5c-6.7,7.2,0.5,23.6,13.4,19.5c-2.6,5.6,1,16.9,7.2,26.7s36.5,53.4,52.9,96
		H166.8z"/>
	<g>
		<defs>
			<path id="SVGID_29_" d="M166.8,1209.3c8.2-51.8-2.4-58.3-4.7-67.8c-2.6-10.8,3.6-27.2,3.6-27.2s-2-3.6-5.1-7.8
				c-7.2,0.8-20-1.4-26.7-6.5s-11.8-22.1-28.8-24.1c2.1-7.2-2-19.5-14.4-18.5c3.6-6.2-0.5-17.4-12.8-16.9
				c-3.1-9.2-8.2-11.8-15.4-7.7c-7.2,4.1-7.2,15.9,4.6,16.9c-3.6,4.6-4.6,18.5,9.8,17.5c-6.7,7.2,0.5,23.6,13.4,19.5
				c-2.6,5.6,1,16.9,7.2,26.7s36.5,53.4,52.9,96H166.8z"/>
		</defs>
		<clipPath id="SVGID_30_">
			<use xlink:href="#SVGID_29_"  style="overflow:visible;"/>
		</clipPath>
		<g class="st24">
			<path class="st0" d="M173.4,1170.5c-15.4-4.6-30.8-15.4-34.9-19.8c0.2-1.7,0.5-3.3,1-4.9c0,0,14.9,0,32.6,12.3"/>
			<path class="st0" d="M90.3,1112.9c8.3-4.1,14.7-11.6,15.1-24.5c9.6,3.6,22.8,0.7,27.5-2.5L90.8,981.9l-87.3,48.9l61.1,102.8
				L90.3,1112.9z"/>
			<path class="st0" d="M135.9,1185.9c0,0,14.6,5.2,37.3,2.9c0.2,9.2-1.2,18.4-4.2,27.2l-25.6-0.4L135.9,1185.9z"/>
		</g>
	</g>
	<circle class="st0" cx="124.4" cy="1109.3" r="2.9"/>
	<line class="st4" x1="316.9" y1="981.9" x2="361.6" y2="907.2"/>
	<line class="st4" x1="394.9" y1="958.3" x2="340.2" y2="1006"/>
	<line class="st4" x1="361.6" y1="1041.2" x2="420.8" y2="1011.1"/>
	<line class="st4" x1="375.4" y1="1075.8" x2="431.4" y2="1064.8"/>
	<line class="st4" x1="383.9" y1="1115.9" x2="426" y2="1113.2"/>
	<path class="st2" d="M246.7,1195.7c2.1,3.1,6.2,4,9.5,2.2c4-2.1,8.2-5.9,12.2-11.6c5.6-7.9,4.6-17.5-4-19.2
		c0.2-6.6-2.9-15.4-9.4-14.4c-2.5-5.2-10.8-5.6-14.6-2.4c-4.6-1-9.4-0.2-11.3,6.1l3.2,7.1c0,0-0.6,1.4-2.2,6.4s1.1,7,3.9,8.3
		c0,0-0.8,4.2,3,5.8c-0.7,2,0,7.5,9.3,7.5C245.7,1192.8,245.9,1194.4,246.7,1195.7z"/>
	<g>
		<defs>
			<path id="SVGID_31_" d="M246.7,1195.7c2.1,3.1,6.2,4,9.5,2.2c4-2.1,8.2-5.9,12.2-11.6c5.6-7.9,4.6-17.5-4-19.2
				c0.2-6.6-2.9-15.4-9.4-14.4c-2.5-5.2-10.8-5.6-14.6-2.4c-4.6-1-9.4-0.2-11.3,6.1l3.2,7.1c0,0-0.6,1.4-2.2,6.4s1.1,7,3.9,8.3
				c0,0-0.8,4.2,3,5.8c-0.7,2,0,7.5,9.3,7.5C245.7,1192.8,245.9,1194.4,246.7,1195.7z"/>
		</defs>
		<clipPath id="SVGID_32_">
			<use xlink:href="#SVGID_31_"  style="overflow:visible;"/>
		</clipPath>
		<g class="st25">
			<path class="st4" d="M232.4,1179c9.8,2.3,20.2-28.2,6.9-30.8"/>
			<path class="st4" d="M255.8,1150.8c4.2,9.3-6.2,37.9-19.2,34.2"/>
			<path class="st4" d="M265.8,1167.2c0,9.5-9,26.1-21.2,25.9"/>
		</g>
	</g>
	<path class="st7" d="M833.6,1477c1,23.4,16.4,90.9-38.5,154.3c-29.8-24-68.1,17.8-38.5,41.8c22.1,18,49.8,39.8,74.9,39.8
		c12.6,0,29-1.9,31.1-21.8c1-10.1-5.1-17.5-26.4-32.9c10.5-15.4,32.1-53.4,33.4-75.2c11,48.5,20,83.9,20,83.9
		c-16.7,6.9-17.3,24.2-13.6,33.3c4.4,10.8,14.1,23.9,62.1,1.8c47.6-21.9,47.4-31.2,42.8-43.8c-4.5-12.2-18.8-20.5-46.7-8.8
		c-23.3-43.2-27.2-88.8-15.1-172.5L833.6,1477z"/>
	<g>
		<defs>
			<path id="SVGID_33_" d="M833.6,1477c1,23.4,16.4,90.9-38.5,154.3c-29.8-24-68.1,17.8-38.5,41.8c22.1,18,49.8,39.8,74.9,39.8
				c12.6,0,29-1.9,31.1-21.8c1-10.1-5.1-17.5-26.4-32.9c10.5-15.4,32.1-53.4,33.4-75.2c11,48.5,20,83.9,20,83.9
				c-16.7,6.9-17.3,24.2-13.6,33.3c4.4,10.8,14.1,23.9,62.1,1.8c47.6-21.9,47.4-31.2,42.8-43.8c-4.5-12.2-18.8-20.5-46.7-8.8
				c-23.3-43.2-27.2-88.8-15.1-172.5L833.6,1477z"/>
		</defs>
		<clipPath id="SVGID_34_">
			<use xlink:href="#SVGID_33_"  style="overflow:visible;"/>
		</clipPath>
		<g class="st26">
			<path class="st1" d="M932.7,1605.1c-12.7,7-46.5,15.4-61.1,15.4l-6.2,44.9l20.7,87.3L1031,1698l-40.8-87L932.7,1605.1z"/>
			<path class="st1" d="M811.5,1594.8c13.8,12.5,34.2,18.6,50.8,26.2l-4.9,38.5l13.1,49.3c0,0-13.9,37.7-17.7,41.6
				s-116.3-34.7-116.3-34.7l-14-70.1l37.9-32.3l36.1,6.2L811.5,1594.8z"/>
			<path class="st4" d="M805.9,1604.6c15,12.5,35,21.8,52.9,29.3"/>
			<path class="st4" d="M797.7,1612.8c18.5,12.4,36.9,24.4,58,32.3"/>
			<path class="st4" d="M871.6,1642.6c7.3,0,14.9-2.3,22-3.8c16.8-3.5,33.7-7.5,49.3-14.7"/>
			<path class="st4" d="M872.1,1630.8c21.6-4.4,45.8-6.5,64.7-19"/>
			<path class="st0" d="M739.4,1634.9l77.3,54.7c0,0,20.9-33.3,36.1-18.1c14.8,1.8,8,9.8,8,9.8s-14.6-17.8-34.1,16
				c25.2,15.9,34.9,23.1,34.9,23.1l-44.7,18l-61.3-46.5l-22.4-30.8L739.4,1634.9z"/>
			<path class="st0" d="M874.2,1706.5l68-31.1c0,0-10.5-25.2,4.4-30c2.6-10.8,9.5-13.6,9.5-13.6l5.7,12.3
				c-10.6,0.4-8.2,14.1-5.1,21.6c12.6-6.2,31.3-14.6,31.3-14.6l19.7,49.8l-123.9,40L874.2,1706.5z"/>
		</g>
	</g>
	<path class="st1" d="M1236.7,1200.6c29.7-31,7.5-54.7,7.5-54.7l0,0c0,0-0.1-0.2-0.2-0.6c-1.1-4.9-0.5-10,1.7-14.6
		c5-10.4,5.1-26.4-9.2-26.4c-14.1,0-15.2,15.5-11.3,25.9c1.9,5,2.3,10.4,1.3,15.7l0,0c-15.2,10.3-12.8,36.7,3.7,54.7L1236.7,1200.6z
		"/>
	<g>
		<defs>
			<path id="SVGID_35_" d="M1236.7,1200.6c29.7-31,7.5-54.7,7.5-54.7l0,0c0,0-0.1-0.2-0.2-0.6c-1.1-4.9-0.5-10,1.7-14.6
				c5-10.4,5.1-26.4-9.2-26.4c-14.1,0-15.2,15.5-11.3,25.9c1.9,5,2.3,10.4,1.3,15.7l0,0c-15.2,10.3-12.8,36.7,3.7,54.7
				L1236.7,1200.6z"/>
		</defs>
		<clipPath id="SVGID_36_">
			<use xlink:href="#SVGID_35_"  style="overflow:visible;"/>
		</clipPath>
		<g class="st27">
			<path class="st28" d="M1224.1,1111.4c0.7,8.9,20.2,9.9,24.2,0"/>
			<path class="st28" d="M1226.5,1145.9c9.8,0,17.7,9.5,13.9,26.9c-2.5,11.3-10.2,27.7-10.2,27.7"/>
		</g>
	</g>
	<path class="st4" d="M881.7,901.5c-11.2,19.1-15,37.2-4.6,37.2s31.2-27.5,36.2-37.2c-4.6,14.2-13.5,37.2,1.5,37.2
		s31.6-40.4,31.6-40.4"/>
	<path class="st4" d="M897.9,942.6c-11.6,12.7-26.9,37-26.9,37l4.2,4.2l25.8-16.6"/>
	<path class="st4" d="M858.2,975c-6.2,14.2-13.9,48.1,3.5,48.1s51.2-44.3,51.2-44.3"/>
	<path class="st14" d="M920.5,791.8c10.9-5.7,19.4-2.8,22.3-0.1s5.1,7.6,3.7,11.3h3.8c9.9-10.5,20.1-21.2,33.1-27.5
		c2.7-1.5,5.7-2.3,8.8-2.6c3.1-0.2,6.1,1,8.2,3.4c2,2.6,2.2,6.3,1.2,9.4c-1.2,3.1-3,5.9-5.2,8.3c-10.8,12.5-24.5,22.2-37.2,32.9
		c-8.6,7.2-17.1,15.1-27.8,18.5c-3.6,1.1-8,1.5-10.6-1.2c-1.6-1.8-2.4-4.3-2-6.7c0.3-2.2,1-4.4,2-6.5c-8.1,10-14.2,20.1-24.3,28.1
		c-2.8,2.2-6.3,4.4-9.9,3.7c-3.9-0.8-6.3-5-6.4-9c-0.1-4,0.8-7.9,2.4-11.5c-5.6,7.6-15.2,22.8-22.5,28.1c-2.3,1.5-5.1,2.1-7.8,1.6
		c-3.5-1-5.3-5-5.7-8.6c-0.7-6.7,1.6-13.3,4.2-19.4c4.7-10.9,14.8-33.3,28.5-37.6c6.9-2.2,11.6,0.9,13.2,5.3h4.1
		C896.5,811.6,913.7,795.4,920.5,791.8z"/>
	<path class="st14" d="M1022.5,805.5c6.2,4.4-13.9,28-22.8,24.6S1013.7,799.3,1022.5,805.5z"/>
	<path class="st14" d="M993.2,722.3c-3.8-0.6-7.6-2-11.3-1.2c-3.3,0.7-6,3-8.4,5.3c-10.3,9.7-19.4,20.6-28.5,31.5
		c-1.5,1.6-2.8,3.5-3.7,5.6c-0.9,2.1-0.7,4.5,0.5,6.4c2.2,3,6.8,2.7,10.1,0.9c4.8-2.5,8-7.1,11.6-11s8.5-7.5,13.8-7
		c3,0.3,5.9,1.8,8.9,1.5s5.6-2.5,7.6-4.9s3.7-5.1,6.2-6.9c4-3,9.4-3.4,14.3-4.7c5.2-1.4,10.3-4.2,13.3-8.7s3.5-10.9,0.3-15.3
		c-2.9-3.9-8.3-5.5-13-4.4C1005.6,711.7,1004,723.9,993.2,722.3z"/>
	<path class="st14" d="M1206.7,474.8c-13.5,0-32.4,2.3-44.3,28.9c-11.9,26.6-11.5,25.9-13.6,32c-5.4,15.9,14.3,19.6,23.7,3.4
		c4.8-8.3,13.1-21.6,13.1-21.6h6c0,0,1.2,15,1.5,21.2s1.3,14.1,14.8,14.1s24-35.8,24-35.8h4.8c1.6,12.3,5,35.8,21.8,35.8
		s16.9-36.6,16.9-36.6h7.3c1.3,8.7,2.6,35.1,19.3,31.9c14.4-2.8,8.3-27.1,6-36.9c-5-21-11.6-36.4-36.2-36.4L1206.7,474.8z"/>
	<path class="st16" d="M891.7,369.3c-8.1-42-98.2-72.8-127.1,0c-25-23.9-86.2,2.7-80.9,42c-33.1-18.9-64.7,13.1-60.8,47.7
		s45.8,58.1,83.9,36.6c8.5,38.1,66.6,52,103.2,11.5c15.8,41.2,90.1,44.3,107.4-3.8c53.1,28.5,99.7-52.4,62-79.7
		C997.2,380.1,934.4,333.1,891.7,369.3z"/>
	<path class="st14" d="M844.3,430H895C891.1,411.5,852.1,406.7,844.3,430z"/>
	<g>
		<defs>
			<path id="SVGID_37_" d="M844.3,430H895C891.1,411.5,852.1,406.7,844.3,430z"/>
		</defs>
		<clipPath id="SVGID_38_">
			<use xlink:href="#SVGID_37_"  style="overflow:visible;"/>
		</clipPath>
		<g class="st29">
			<path class="st0" d="M880.6,441.6c-3-9.9-2.4-20.6,1.6-30.1c4.3,0.3,8.2,1,11.6,3.6c3.5,2.5,5.8,6.4,6.1,10.8
				c0.2,4.9-2.6,9.7-6.4,12.7S885.4,440.4,880.6,441.6z"/>
		</g>
	</g>
	<path class="st14" d="M894,430h46.2c0,0-3-13.9-23.7-13.9S894,430,894,430z"/>
	<g>
		<defs>
			<path id="SVGID_39_" d="M894,430h46.2c0,0-3-13.9-23.7-13.9S894,430,894,430z"/>
		</defs>
		<clipPath id="SVGID_40_">
			<use xlink:href="#SVGID_39_"  style="overflow:visible;"/>
		</clipPath>
		<g class="st30">
			<path class="st0" d="M924.4,433.4c-1.8-7.2,0.1-14.9,4.9-20.6c3.6,1.5,7.7,1.7,10.5,4.4s4.6,6.7,3.6,10.4s-4.7,6.3-8.4,7.2
				S928.3,433.9,924.4,433.4z"/>
		</g>
	</g>
	<path class="st4" d="M893,429c1.9,10.1,3.3,23.4,3.3,23.4h-15.4"/>
	<path class="st4" d="M864.4,460.4c6,12.5,39.1,16,49.7,0"/>
	<path class="st16" d="M554.4,472.6c4-2.5,6.5-6.9,6.3-11.6c-0.4-4.4-3.2-8.3-7.3-10c-4.3-1.8-9.6,0.5-12.7,3.7l0,0
		c-1.3-2.3-3.3-4.1-5.8-5.1c-4.3-1.8-9.6,0.5-12.7,3.7c-2.7,2.8-4,6.6-3.5,10.5c0.3,1.8,1,3.4,2,4.9c-1,0.6-2,1.4-2.8,2.3
		c-2.7,2.8-4,6.6-3.5,10.5c0.6,3.9,3.1,7.1,6.7,8.6c2.7,0.9,5.6,0.9,8.3-0.2c2-0.8,3.7-2,5.2-3.6c1.1,2.6,3.2,4.6,5.8,5.6
		c2.7,0.9,5.6,0.9,8.3-0.2c5.1-1.9,8.9-7.2,8.6-12.7C556.9,476.8,555.9,474.5,554.4,472.6z"/>
	<path class="st2" d="M1270,387.4c-19-35.5-27-47.7-45.6-37.3c-16.4,9.2-6.5,27.7-6.5,27.7c-13.5,10.4-13.6,49.4,11.7,49.3
		c-0.5,12.3,0,28,0,28s-12.4,0.7-12.4,9s5.6,10.7,22.8,10.7s20.7-3.6,20.7-10.6s-10.4-9-10.4-9l0.3-21.6c0.1-2.8,1.3-5.5,3.5-7.3
		l0.1-0.1c4.2-3.5,10.5-3,14,1.2c0.2,0.2,0.4,0.5,0.6,0.7c5.2,7.3,15.4,15.9,34.7,15.9c33.5,0,48.5-26.2,48.5-44.7
		c0-19.6-8.5-27.6-14.4-25.7c-1.7,0.6-2.9,2.2-3,4c0,0-2.2-2.4-4.4-1.1s-1.2,4.1-1.2,4.1s-2-2.3-4-1.5s-2.7,2.6-1,8.2
		c2,6.8,7.5,26.4-10.3,33.9c-14.5,6-24.1-1-30.8-11.7S1270,387.4,1270,387.4z"/>
	<g>
		<defs>
			<path id="SVGID_41_" d="M1270,387.4c-19-35.5-27-47.7-45.6-37.3c-16.4,9.2-6.5,27.7-6.5,27.7c-13.5,10.4-13.6,49.4,11.7,49.3
				c-0.5,12.3,0,28,0,28s-12.4,0.7-12.4,9s5.6,10.7,22.8,10.7s20.7-3.6,20.7-10.6s-10.4-9-10.4-9l0.3-21.6c0.1-2.8,1.3-5.5,3.5-7.3
				l0.1-0.1c4.2-3.5,10.5-3,14,1.2c0.2,0.2,0.4,0.5,0.6,0.7c5.2,7.3,15.4,15.9,34.7,15.9c33.5,0,48.5-26.2,48.5-44.7
				c0-19.6-8.5-27.6-14.4-25.7c-1.7,0.6-2.9,2.2-3,4c0,0-2.2-2.4-4.4-1.1s-1.2,4.1-1.2,4.1s-2-2.3-4-1.5s-2.7,2.6-1,8.2
				c2,6.8,7.5,26.4-10.3,33.9c-14.5,6-24.1-1-30.8-11.7S1270,387.4,1270,387.4z"/>
		</defs>
		<clipPath id="SVGID_42_">
			<use xlink:href="#SVGID_41_"  style="overflow:visible;"/>
		</clipPath>
		<g class="st31">
			<path class="st0" d="M1259.4,368.7l-20.1,12.5l6,11.3l-15,12.2c0,0-0.5,14.6-0.8,22.4l-0.2,5.1h21.2l19.4,6.2l28.1-22.3
				l-21.1-52.2L1259.4,368.7z"/>
			<polygon class="st14" points="1225.8,443.6 1255.2,443.3 1255.3,459.5 1230.7,465.2 1220.2,451.8 			"/>
			<polygon class="st0" points="1229.5,455.2 1250.2,455.2 1275,457.5 1269.8,478 1220.2,480.3 1203.2,462.7 1221.4,439 			"/>
			<path class="st4" d="M1226.6,429.4c-5.8-10.6-6.6-23.1-2.3-34.4"/>
			<path class="st4" d="M1218.2,393.6c-3.6,11.6-2.7,24,2.4,35"/>
		</g>
	</g>
	<path class="st4" d="M1329,380.6c2.5,3.9,5,16.3,5,16.3"/>
	<path class="st4" d="M1341.7,394.5c-0.8-4.2-3.1-13-7.2-16.8"/>
	<path class="st2" d="M1270,387.4c4.4,7.8,13.6,4.7,25.1-2.2c4.7-2.3,13.7,3.2,13.7,3.2l5.1-3.5c0,0-6.5-8.6,1.4-15
		c9.5-7.6,15.8-12.3,15.8-12.3l-12-19.9c-18.3,10-33.7,19.6-40.6,24.7C1273.8,365.9,1262.6,374.3,1270,387.4z"/>
	<g>
		<defs>
			<path id="SVGID_43_" d="M1270,387.4c4.4,7.8,13.6,4.7,25.1-2.2c4.7-2.3,13.7,3.2,13.7,3.2l5.1-3.5c0,0-6.5-8.6,1.4-15
				c9.5-7.6,15.8-12.3,15.8-12.3l-12-19.9c-18.3,10-33.7,19.6-40.6,24.7C1273.8,365.9,1262.6,374.3,1270,387.4z"/>
		</defs>
		<clipPath id="SVGID_44_">
			<use xlink:href="#SVGID_43_"  style="overflow:visible;"/>
		</clipPath>
		<g class="st32">
			<path class="st0" d="M1296.4,389.1c-2.3-2.5-4.1-5.5-5.4-8.7c-1.3-3.2-1.6-6.7-0.9-10.1c1-4.5,3.9-8.3,7.5-11.1s7.7-4.9,11.8-6.8
				c3.7,5.7,7.7,11.5,11.4,17.2c2.6-1.4,5.1-3.1,7.4-5.1c2.2-2,3.7-4.7,4.2-7.7c0.2-2,0-4-0.6-5.9c-0.9-4.5-2.7-8.8-5.1-12.6
				c-2.5-3.9-6.2-6.9-10.5-8.5c-6.3-2.1-13.2-0.5-19.4,1.8c-11.3,4.3-21.9,11.4-28.6,21.6s-8.8,23.6-3.7,34.7c2,4.5,5.4,8.5,10,10.2
				c4,1.3,8.3,1,12.1-0.7C1290.5,395.7,1293.5,392.1,1296.4,389.1z"/>
		</g>
	</g>
	<path class="st0" d="M1343.9,353.9c9.4-0.8,6-35.6-2.7-35.1S1332.6,354.9,1343.9,353.9z"/>
	<circle class="st0" cx="1304.1" cy="366" r="2.9"/>
	<polygon class="st0" points="1163,1418 1183.7,1418 1180.1,1462.9 1160.1,1462.9 	"/>
	<polygon class="st0" points="1205.3,1418 1203.7,1462.8 1232.2,1462.8 1233.8,1418 	"/>
	<polygon class="st0" points="1262.3,1418 1261.7,1462.8 1284.6,1462.8 1286.4,1418 	"/>
	<path class="st4" d="M1269.2,582c-5.8-1-11.7-0.8-17.4,0.4"/>
	<polyline class="st4" points="1249.7,633.3 1275.5,633.3 1269.9,592.9 	"/>
	<path class="st4" d="M1271.5,1248.1c9.2,0.3,18.7-8.2,21-15.4c3.3,7.7,5.8,15.4,22.7,15.4"/>
	<path class="st4" d="M1352.6,1202.2c-9-0.8-16.1,7-17.8,12.2c-2.4-5.6-4.2-11.2-16.5-11.2"/>
	<path class="st2" d="M2232.8,1462.8h-886c-11.6-114.4,26.2-252.9,281.5-358.5c254.5-105.3,424.3-91.6,422-196.9
		s-112.1-74.1-154.8-67c-61.2,10.2-155.9,4.4-169.8-118s112-160.5,261-183.7s548.7-128.2,636.4,225.2c12.7,46.3,10.6,130.1-11.7,215
		c-5.9,22.3-92.8,47.3-101.5,69s60.6,40.3,48.8,60.2c-33.7,56.8-80.4,103.4-142.4,124.7c121.3,2.3,153.6,61.2,146.7,105.1
		s-40.4,90.6-146.7,67.3S2305.6,1462.8,2232.8,1462.8z"/>
	<g>
		<defs>
			<path id="SVGID_45_" d="M2232.8,1462.8h-886c-11.6-114.4,26.2-252.9,281.5-358.5c254.5-105.3,424.3-91.6,422-196.9
				s-112.1-74.1-154.8-67c-61.2,10.2-155.9,4.4-169.8-118s112-160.5,261-183.7s548.7-128.2,636.4,225.2
				c12.7,46.3,10.6,130.1-11.7,215c-5.9,22.3-92.8,47.3-101.5,69s60.6,40.3,48.8,60.2c-33.7,56.8-80.4,103.4-142.4,124.7
				c121.3,2.3,153.6,61.2,146.7,105.1s-40.4,90.6-146.7,67.3S2305.6,1462.8,2232.8,1462.8z"/>
		</defs>
		<clipPath id="SVGID_46_">
			<use xlink:href="#SVGID_45_"  style="overflow:visible;"/>
		</clipPath>
		<g class="st33">
			<path class="st4" d="M1998.7,825.8c-52.1,7.8-115.3-124.3,28.5-151.9c341.1-65.5,560.6-88.6,603.8,119.5"/>
			<path class="st4" d="M2162.3,802.9c-64.9,7.9-80.5-9.5-84-36.3c-4.6-35.1,19.7-51.7,74.4-61.2c130.6-22.7,478.3-75.1,478.3,158.9
				"/>
			<path class="st4" d="M1926.8,837.5c-55.9,12-94-51.6-92.3-103s34.3-113,154.7-131.5c120.4-18.5,483.3-103.5,589.5,51.8"/>
			<path class="st14" d="M1824.7,565.1c-71.5,24.9-92.2,65.8-23,53.3C1964.7,588.8,1946.9,522.6,1824.7,565.1z"/>
			<path class="st4" d="M2416.4,1405.3c42-14.3,106.7-22,109.7-9.1s-16.5,28.5-51.3,27.8C2443.6,1423.3,2416.4,1405.3,2416.4,1405.3
				z"/>
			<path class="st4" d="M1931.3,835.9c327.4-49.2,504-83.3,521,71.4c9.1,83.4-53.1,167.3-306.6,194.5s-359.9,161.1-386.4,269.6"/>
			<path class="st4" d="M2433.8,1230.9c-85.2,0-138.6,37.9-200.2,38.5c-77,0.8-270.6-98.1-397,110.6"/>
		</g>
	</g>
	<path class="st7" d="M1503.2,422.5c30.3-31.5,107.7-70.5,143.9-77.1c6.2-26.2,8.8-36.2,8.8-36.2h6.6l12.7,38.9
		c0,0,35.4-3.9,42.7-3.5c0.8,3.9,1.5,6.8,1.5,6.8l-45,18l27.7,24.1l-4.3,4.2l-35.4-12l-35,37.4l-3.8-4.3l14-27.4
		c0,0-41.3,14.7-104.9,67.4c-3.5-2.7-7.3-6.2-7.3-6.2s28.5-29.6,58.3-49c-41.3,19.5-64.2,40.7-64.2,40.7l-6-5.9
		c0,0,27.3-31.6,61.6-47c-46.2,17.8-66.7,37.7-66.7,37.7L1503.2,422.5z"/>
	<path class="st16" d="M2023.4,532.5c-5.4-21.1-20.5-68-22-73.5c-8.1-28.9-49.9-15.4-46.2,11.2c1.9,13.9,16,71,16,71L2023.4,532.5z"
		/>
	<g>
		<defs>
			<path id="SVGID_47_" d="M2023.4,532.5c-5.4-21.1-20.5-68-22-73.5c-8.1-28.9-49.9-15.4-46.2,11.2c1.9,13.9,16,71,16,71
				L2023.4,532.5z"/>
		</defs>
		<clipPath id="SVGID_48_">
			<use xlink:href="#SVGID_47_"  style="overflow:visible;"/>
		</clipPath>
		<g class="st34">
			<path class="st14" d="M1960.9,445.9c10.7,5.2,15.1,18.1,9.8,28.8c-0.2,0.4-0.4,0.8-0.6,1.1c0.6,1.7,0.9,3.5,1.5,5.2
				c8.5,1.7,13.9,10,12.2,18.5c-0.7,3.5-2.6,6.6-5.3,8.8c0.3,1.3,0.6,3.4,0.8,4.7c5.7,1.4,10.4,5.3,12.9,10.6
				c2.2,5.2,1.8,11.2-1.1,16.1l-20.2,9.9l-24.3-45v-61.7L1960.9,445.9z"/>
		</g>
	</g>
	<path class="st4" d="M2162,348.8c-6-3.5-22.6-5.3-37,3.1"/>
	<path class="st4" d="M2167,340c-4.9-4.2-24.9-9.4-41.1,1.9"/>
	<path class="st4" d="M2229.5,392c5.1,4.9,15.6,20.3,15.6,20.3"/>
	<path class="st16" d="M2484.8,881.5h36.7c4.7,0,6,7.5,6.1,12.3s-1.4,9.3-2.4,13.9s-1.9,9.4-0.5,14c2,6.6,8.4,11.4,9.8,18.2
		c1.1,5.3-1,10.7-3.6,15.4s-5.6,9.4-6.5,14.7c-1.3,7.5,2,15.1,5.9,21.6c3,4.9,2.4,11.4,0.6,16.8c-1.9,5.5-5.8,10.1-10.9,12.9
		l-41.2,0.2c-8-6.9-10.6-19-6.6-28.7c2.4-5.9,7-11.3,6.3-17.6c-0.6-5.1-4.6-9-7-13.6c-2.5-4.9-3.2-10.6-1.7-16
		c1.1-4.2,3.4-7.9,5.2-11.8s3.1-8.3,2.1-12.5c-1.8-7.2-4.6-14-3.1-21.3S2478.9,886,2484.8,881.5z"/>
	<g>
		<defs>
			<path id="SVGID_49_" d="M2484.8,881.5h36.7c4.7,0,6,7.5,6.1,12.3s-1.4,9.3-2.4,13.9s-1.9,9.4-0.5,14c2,6.6,8.4,11.4,9.8,18.2
				c1.1,5.3-1,10.7-3.6,15.4s-5.6,9.4-6.5,14.7c-1.3,7.5,2,15.1,5.9,21.6c3,4.9,2.4,11.4,0.6,16.8c-1.9,5.5-5.8,10.1-10.9,12.9
				l-41.2,0.2c-8-6.9-10.6-19-6.6-28.7c2.4-5.9,7-11.3,6.3-17.6c-0.6-5.1-4.6-9-7-13.6c-2.5-4.9-3.2-10.6-1.7-16
				c1.1-4.2,3.4-7.9,5.2-11.8s3.1-8.3,2.1-12.5c-1.8-7.2-4.6-14-3.1-21.3S2478.9,886,2484.8,881.5z"/>
		</defs>
		<clipPath id="SVGID_50_">
			<use xlink:href="#SVGID_49_"  style="overflow:visible;"/>
		</clipPath>
		<g class="st35">
			<path class="st14" d="M2471.9,913.1c9.2-11.9,20.6-10.4,27.1-3.1c5-11.5,20-14.2,30-5.5c-5.1,12.7-19.4,15-29.6,8.7
				C2487.1,926.6,2474.6,921.2,2471.9,913.1z"/>
			<g>
				<defs>
					<path id="SVGID_51_" d="M2471.9,913.1c9.2-11.9,20.6-10.4,27.1-3.1c5-11.5,20-14.2,30-5.5c-5.1,12.7-19.4,15-29.6,8.7
						C2487.1,926.6,2474.6,921.2,2471.9,913.1z"/>
				</defs>
				<clipPath id="SVGID_52_">
					<use xlink:href="#SVGID_51_"  style="overflow:visible;"/>
				</clipPath>
				<g class="st36">
					<circle class="st0" cx="2480.1" cy="907.8" r="8"/>
					<circle class="st0" cx="2505.4" cy="905" r="8"/>
				</g>
			</g>
		</g>
	</g>
	<path class="st4" d="M2240.6,382.8c5,4.4,14.7,22.5,14.7,22.5"/>
	<path class="st4" d="M2251.8,377.1c4.6,5.5,12.8,21.9,12.8,21.9"/>
	<circle class="st0" cx="2173.7" cy="365.1" r="4.7"/>
	<circle class="st0" cx="2205.5" cy="382.9" r="4.7"/>
	<path class="st16" d="M2371.6,7l10.8-7.7c0,0,208.4,224.1,63.7,475.1l-11.6-5.4c0,0,101-217.2-100.8-246.4c-1.5-6.9-2-10.5-2-10.5
		C2409.4,186.7,2418.9,82.5,2371.6,7z"/>
	<g>
		<defs>
			<path id="SVGID_53_" d="M2371.6,7l10.8-7.7c0,0,208.4,224.1,63.7,475.1l-11.6-5.4c0,0,101-217.2-100.8-246.4
				c-1.5-6.9-2-10.5-2-10.5C2409.4,186.7,2418.9,82.5,2371.6,7z"/>
		</defs>
		<clipPath id="SVGID_54_">
			<use xlink:href="#SVGID_53_"  style="overflow:visible;"/>
		</clipPath>
		<g class="st37">
			<path class="st0" d="M2441.3,283.4c6.3-13.4,23.6-35.7,23.6-35.7l6.2,1.9c0,0,3,24.3-17,63.5l-17.6,4.6L2441.3,283.4z"/>
			<path class="st4" d="M2398,115.2c-1.2,20.9,26,24.3,25.3-3.8"/>
		</g>
	</g>
	<path class="st4" d="M2128.7,807.1c64.5-7.3,119.8,16,124.1,89.8s-52,131.5-227.4,174.6c-147.1,36.1-332,120.5-355.1,296.1"/>
	<path class="st4" d="M1523.9,1357c19.7-82.5,107-243.3,330.6-290c223.6-46.7,308.5-102.8,301.3-176
		c-9.6-97.4-126.2-69.9-126.2-69.9"/>
	<path class="st14" d="M1922.2,618.5c-63.7,25.2-80.9,62.9-18.9,49C2049.9,634.7,2031.4,575.4,1922.2,618.5z"/>
	<path class="st14" d="M2004.4,677.2c-57,15.9-53.6,52.5,0.1,40.6C2138.4,688,2102.8,649.7,2004.4,677.2z"/>
	<path class="st14" d="M2130.6,708.3c-46.5,12-61,36.1-16.6,32.3C2218.5,731.5,2198.7,690.8,2130.6,708.3z"/>
	<path class="st16" d="M2329.6,862c-3.3-0.5-6.6,1.1-8.3,3.9c-1.7,2.8-3.1,6.3-2.4,9.5c-3,1.1-10.4,7-5.1,16.6
		c-3.8,5.4-3.1,13,0.2,18.7s8.7,9.8,14.3,13.3c13.7,8.2,29,13.5,44.9,15.3c2.1,84.7,34.4,98,95,108.3
		c-165.8,14.9-265.4,121.7-265.4,121.7s4.6,12.8,20.5,32.8c46.7-46.7,176.6-130.4,262.8-110.4s137.1,163.8,155.6,223.3l33.4-13
		c-13.9-86.8-85.7-228.8-151.4-252.2c102.4,10,123-106.5,126.3-121.7c6.7,1.8,30.8-2.6,40-7.4c3.1,3.1,8,4.6,22.6-1
		s15.4-16.4,7.2-17.2c4.1-6.9,3.6-16.4-4.1-14.9c3.1-5.9,3.3-15.7-6.2-15.2c9.4-5.6,29.3-5.6,41.1-7.2s11.8-15.9,0-15.9
		c-8.2,0-29,1.2-40.8,2c-5.5,0.3-10.9,2-15.6,4.8c-11.2,6.6-33.4,19.3-50.4,27.1c-23.6,10.8-26.2,19-27.7,36.5
		c-8.7,47.8-41.6,97.5-95.5,101.7c0,0-19.5,0.5-41.6,0c-74.4-2.6-78.8-67.7-76.4-93.5c0.8-8.2,11.7-8.6,21.2-8.1
		c14.4,0.9,15.5-18.5-4.4-17.8c-16.7,0.5-34.9,2-49.3-13.3S2340.3,848.6,2329.6,862z"/>
	<g>
		<defs>
			<path id="SVGID_55_" d="M2329.6,862c-3.3-0.5-6.6,1.1-8.3,3.9c-1.7,2.8-3.1,6.3-2.4,9.5c-3,1.1-10.4,7-5.1,16.6
				c-3.8,5.4-3.1,13,0.2,18.7s8.7,9.8,14.3,13.3c13.7,8.2,29,13.5,44.9,15.3c2.1,84.7,34.4,98,95,108.3
				c-165.8,14.9-265.4,121.7-265.4,121.7s4.6,12.8,20.5,32.8c46.7-46.7,176.6-130.4,262.8-110.4s137.1,163.8,155.6,223.3l33.4-13
				c-13.9-86.8-85.7-228.8-151.4-252.2c102.4,10,123-106.5,126.3-121.7c6.7,1.8,30.8-2.6,40-7.4c3.1,3.1,8,4.6,22.6-1
				s15.4-16.4,7.2-17.2c4.1-6.9,3.6-16.4-4.1-14.9c3.1-5.9,3.3-15.7-6.2-15.2c9.4-5.6,29.3-5.6,41.1-7.2s11.8-15.9,0-15.9
				c-8.2,0-29,1.2-40.8,2c-5.5,0.3-10.9,2-15.6,4.8c-11.2,6.6-33.4,19.3-50.4,27.1c-23.6,10.8-26.2,19-27.7,36.5
				c-8.7,47.8-41.6,97.5-95.5,101.7c0,0-19.5,0.5-41.6,0c-74.4-2.6-78.8-67.7-76.4-93.5c0.8-8.2,11.7-8.6,21.2-8.1
				c14.4,0.9,15.5-18.5-4.4-17.8c-16.7,0.5-34.9,2-49.3-13.3S2340.3,848.6,2329.6,862z"/>
		</defs>
		<clipPath id="SVGID_56_">
			<use xlink:href="#SVGID_55_"  style="overflow:visible;"/>
		</clipPath>
		<g class="st38">
			<polygon class="st7" points="2468.2,1047.6 2482.8,1015 2518.5,1017.6 2523.6,1049.9 2572.4,1062 2626.5,1108.4 2632.4,1156.9 
				2550.3,1156.9 2391.2,1114.6 2391.2,1055.8 2433.3,1046.3 			"/>
			<path class="st4" d="M2652.7,902.8c13.3-8.9,22.5-12.5,27.9-16.2c7.9-5.4,2.2-26-16.3-15.8"/>
			<path class="st4" d="M2714.7,872.2c-20.9,8.7-38.2,21-33,28.7c2.9,4.2,8.7,4.6,19.7-1.7c6.5-3.7,12.7-8,18.6-12.7"/>
			<path class="st4" d="M2685.6,904c-2,14.8,28.8,9.5,36.7-2.2"/>
			<path class="st4" d="M2688.9,921.8c-2.1-2.5-1.2-7.7,0.2-9.7"/>
			<path class="st4" d="M2327.6,861c-6.5,8.7,13.3,36.2,51.8,48.8"/>
			<path class="st4" d="M2316.9,874.4c1.5,11,21.8,37.8,59.2,44.1"/>
			<path class="st4" d="M2310.8,890c3.8,7.3,18.9,31.8,61.2,37"/>
		</g>
	</g>
	<path class="st4" d="M2501.4,920.3c-1.2,7.6-5,14.6-10.7,19.7v6c3.6,2.9,6.8,7,9.8,10.5"/>
	<path class="st14" d="M2218.2,1181.1c-7.5-18.7-18-42.1-42.6-28.2s-3.6,44.2,3.1,60.1s13.8,55.9,43.1,58s48.6-3.7,55-5.5
		c13.2-3.6,18.4-36.6-11.8-33.5C2246,1233.8,2227.4,1204.2,2218.2,1181.1z"/>
	<g>
		<defs>
			<path id="SVGID_57_" d="M2218.2,1181.1c-7.5-18.7-18-42.1-42.6-28.2s-3.6,44.2,3.1,60.1s13.8,55.9,43.1,58s48.6-3.7,55-5.5
				c13.2-3.6,18.4-36.6-11.8-33.5C2246,1233.8,2227.4,1204.2,2218.2,1181.1z"/>
		</defs>
		<clipPath id="SVGID_58_">
			<use xlink:href="#SVGID_57_"  style="overflow:visible;"/>
		</clipPath>
		<g class="st39">
			<path class="st40" d="M2237.9,1205.4c-4.9,4.6-20,15.4-22.8,8.7s5.9-11,13.8-17.5L2237.9,1205.4z"/>
			<path class="st40" d="M2249.6,1220.3c-4.9,4.6-20,15.4-22.8,8.7s5.9-11,13.8-17.5L2249.6,1220.3z"/>
			<path class="st41" d="M2161.4,1159.8c11-0.2,20.2,8.6,20.4,19.6c0.1,2.6-0.4,5.1-1.3,7.5c0.7,1.3,1.5,2.7,2.2,4
				c8.4,0.2,15.7,6.6,18.6,14.5s2.1,16.7-0.5,24.7c0.9,1.2,1.5,2.8,2.4,4c4-2.6,10.4-2.5,14.7-0.4c4.3,2.3,7.6,6,9.5,10.4
				c1.9,4.4,3,9.1,3.2,13.9h2.6c2.7-6.5,10.2-11,17.2-11.4s13.9,2.6,19.1,7.2s8.9,10.9,11.4,17.4c-17.1,4.4-34.9,9.5-52.5,9.5
				s-36-5-48.7-17.2c-11-10.5-16.9-25.3-20.8-40C2153.8,1202.5,2154.6,1180.4,2161.4,1159.8z"/>
		</g>
	</g>
	<path class="st14" d="M2657.9,1305c-19.8,9-41.1,17.7-34.4,42.4s37.7,14.6,56.2,7.2s66.7-21,72.9-23.1s21.1-7.4,16.7-26.4
		s-29.8-16.4-38.8-15.9C2710.7,1290.2,2678,1295.9,2657.9,1305z"/>
	<g>
		<defs>
			<path id="SVGID_59_" d="M2657.9,1305c-19.8,9-41.1,17.7-34.4,42.4s37.7,14.6,56.2,7.2s66.7-21,72.9-23.1s21.1-7.4,16.7-26.4
				s-29.8-16.4-38.8-15.9C2710.7,1290.2,2678,1295.9,2657.9,1305z"/>
		</defs>
		<clipPath id="SVGID_60_">
			<use xlink:href="#SVGID_59_"  style="overflow:visible;"/>
		</clipPath>
		<g class="st42">
			<path class="st41" d="M2774.9,1309.7c-6.1-5.2-14.4-6.9-22-4.3c-7.4,2.5-13.7,9.5-15.2,17.2c-1,0.4-2,0.6-3,1
				c-4.4-5.6-11.7-8-18.6-6.1c-6.6,1.9-12.5,8-13.1,14.9c-1.5,0.3-3.5,0.4-4.9,0.7c-4-5.8-12.6-7.3-19-4.5s-11.2,9.2-13.2,16
				c-1.2,0.4-2.9,0.6-4.1,1.1c-5.4-5.6-14.8-6.2-21.5-2.2s-10.6,11.6-11.3,19.4c11.1,7.9,26.2,8.8,39.7,7
				c20.7-2.8,40.6-9.8,59.8-18.1c10.3-4.4,20.6-9.3,29.2-16.5S2773.4,1320.8,2774.9,1309.7z"/>
			<path class="st40" d="M2673.6,1293.9c1.4,8.2,2,24,9.9,21.2s4.6-14.6,2.6-26.3"/>
			<path class="st40" d="M2697.4,1287.1c0.6,6.2,0.5,23.9,9.4,21.6s4-21.8,3.7-24.4"/>
		</g>
	</g>
	<path class="st1" d="M2502,976.5h-2.5c-3.1-6.4-13.9-7.4-13.9,3.3c-0.3,11.3,6.2,22.1,15.8,22.1s15-12.4,16-22.9
		C2519.2,970.3,2506.2,969.3,2502,976.5z"/>
	<g>
		<defs>
			<path id="SVGID_61_" d="M2502,976.5h-2.5c-3.1-6.4-13.9-7.4-13.9,3.3c-0.3,11.3,6.2,22.1,15.8,22.1s15-12.4,16-22.9
				C2519.2,970.3,2506.2,969.3,2502,976.5z"/>
		</defs>
		<clipPath id="SVGID_62_">
			<use xlink:href="#SVGID_61_"  style="overflow:visible;"/>
		</clipPath>
		<g class="st43">
			<path class="st44" d="M2519.4,979c-5.9,14.9-33.8,11.1-35.8,0.8"/>
		</g>
	</g>
	<path class="st0" d="M2527.9,863.9c-1,0-2,0.2-3,0.5c0.8-5-2.6-9.7-7.6-10.5c-0.5-0.1-1-0.1-1.6-0.1c-1.1,0-2.2,0.2-3.2,0.6
		c-6.5,1-13.2,1.1-19.7,0.3c-5.1,0-9.2,4.1-9.2,9.2c0,0.3,0,0.7,0,1c-4.6-2.3-10.1-0.5-12.4,4.1c-2.3,4.6-0.5,10.1,4.1,12.4
		c1.3,0.7,2.7,1,4.2,1h48.5c5.1,0,9.2-4.2,9.2-9.3C2537.1,868,2532.9,863.9,2527.9,863.9L2527.9,863.9z"/>
	<path class="st0" d="M1285.7,573.3c28.8,0,18.5,36.2,0,36.2S1257.2,573.3,1285.7,573.3z"/>
	<path class="st0" d="M1235.1,573.3c28.8,0,18.5,36.2,0,36.2S1206.6,573.3,1235.1,573.3z"/>
	<path class="st2" d="M944,1358.8c2,12.3,8.9,28.7,22,31c2.6,7.7,4.2,12.9,4.2,12.9c-4.4,4.7-7.9,6.7-14.1,12.1
		c34.2,30.9,34.2,108.7-7.7,116.9c-61,11.9-62.2-52.7-114.2-52.7h-0.5l31.8-116L944,1358.8z"/>
	<g>
		<defs>
			<path id="SVGID_63_" d="M944,1358.8c2,12.3,8.9,28.7,22,31c2.6,7.7,4.2,12.9,4.2,12.9c-4.4,4.7-7.9,6.7-14.1,12.1
				c34.2,30.9,34.2,108.7-7.7,116.9c-61,11.9-62.2-52.7-114.2-52.7h-0.5l31.8-116L944,1358.8z"/>
		</defs>
		<clipPath id="SVGID_64_">
			<use xlink:href="#SVGID_63_"  style="overflow:visible;"/>
		</clipPath>
		<g class="st45">
			<path class="st4" d="M947.8,1441.8c8.1,23.9,28.3,38.2,47,46.7"/>
			<path class="st14" d="M956,1414.8c-18.2,14.7-27,18.8-27,18.8V1370l27-15.4l28.1,24.8l-9.4,38.6L956,1414.8z"/>
		</g>
	</g>
	<circle class="st0" cx="938.9" cy="1382.3" r="2.9"/>
	<path class="st0" d="M843.4,1359.2c13.9,12.3,60.6,42.1,125.8-7.2c-6.7-10.3-10.8-17.5-10.8-17.5c-38.5,26.2-63.7,27.2-104.2,5.7
		C850.2,1346.4,846.6,1352.7,843.4,1359.2z"/>
	<path class="st14" d="M833.6,1477c-36.6,0.8-63.5,23.9-92,60.1c-7.7,9.4-23.7,25.5-27.8,29c-9.6,7.8-4,22.2,8.9,15.3
		c-5.5,7.8,3.3,12.2,8.3,9.4c-2.3,4.6,3.2,9.2,11.8,4.4c0,7.1,8.5,9.2,18.5,1s14.8-14,14.8-14l3.6,0.9c0,0-1.9,10.8-2.8,14.5
		s-0.6,9.6,9.4,9.8s8.8-13.7,10.3-20.2s1.8-42.5,24-46.4s63-2.1,65.6-29.1C888.5,1484.5,869.3,1477,833.6,1477z"/>
	<g>
		<defs>
			<path id="SVGID_65_" d="M833.6,1477c-36.6,0.8-63.5,23.9-92,60.1c-7.7,9.4-23.7,25.5-27.8,29c-9.6,7.8-4,22.2,8.9,15.3
				c-5.5,7.8,3.3,12.2,8.3,9.4c-2.3,4.6,3.2,9.2,11.8,4.4c0,7.1,8.5,9.2,18.5,1s14.8-14,14.8-14l3.6,0.9c0,0-1.9,10.8-2.8,14.5
				s-0.6,9.6,9.4,9.8s8.8-13.7,10.3-20.2s1.8-42.5,24-46.4s63-2.1,65.6-29.1C888.5,1484.5,869.3,1477,833.6,1477z"/>
		</defs>
		<clipPath id="SVGID_66_">
			<use xlink:href="#SVGID_65_"  style="overflow:visible;"/>
		</clipPath>
		<g class="st46">
			<path class="st4" d="M741.7,1598.1c10.5-6.2,21.8-19.5,21.8-19.5"/>
			<path class="st4" d="M729.9,1593.7c10.5-6.2,21.6-21,21.6-21"/>
			<path class="st4" d="M721.6,1584.4c8.8-5.5,21.2-20.4,21.2-20.4"/>
		</g>
	</g>
	<path class="st4" d="M854.1,402.5c12.8-4.3,30-0.4,40.4,6.9c9.6-10.5,26.6-14.6,39.3-8.3"/>
	<path class="st4" d="M871.3,387.1c8.2,0,16.1,2.8,22.4,8c5.5-6.4,14.8-10.2,23.2-10.5"/>
	<path class="st4" d="M848.5,462.5c9.5,2.5,19.2-3.1,21.7-12.5c0.4-1.5,0.6-3.1,0.6-4.7"/>
	<path class="st4" d="M909.4,447.8c-1,7.2,4.1,13.9,11.3,14.8c3.8,0.5,7.6-0.6,10.5-3.2"/>
	<path class="st4" d="M1223.2,638.5l6.9-5c0,0,6.4,20.3,30.3,20.3s29.2-21.4,29.2-21.4l7.8,3.7"/>
	<g>
		<defs>
			<path id="SVGID_67_" d="M2151.9,2695.6c-196.4-34.6-299.2,268-109.3,313.6C2250.5,3059.2,2357.9,2732,2151.9,2695.6z"/>
		</defs>
		<clipPath id="SVGID_68_">
			<use xlink:href="#SVGID_67_"  style="overflow:visible;"/>
		</clipPath>
		<g class="st47">
			<path class="st48" d="M584.1,781c3.2-4.8,5.5-10.1,6.9-15.7h9.7c0.3,5.6,3,10.9,7.4,14.4c-1.4,6.2-6.2,13-11.8,16
				c-1.9,1-4.3,1.8-6.2,0.7c-1.1-0.7-1.9-1.8-2.4-3.1C586,789.6,581.9,784.3,584.1,781z"/>
			<path class="st48" d="M548.1,781c3.2-4.8,5.5-10.1,6.9-15.7h9.7c0.3,5.6,3,10.9,7.4,14.4c-1.4,6.2-6.2,13-11.8,16
				c-1.9,1-4.3,1.8-6.2,0.7c-1.1-0.7-1.9-1.8-2.4-3.1C550.1,789.6,545.9,784.3,548.1,781z"/>
			<path class="st49" d="M582.1,891c-21.2-22.4-46.2-40.8-73.9-54.5c-1.8,2.9-5.2,4.4-7,7.3c18.7,20,34.3,42.6,48.7,65.8
				c2.9,4.7,5.8,9.6,10,13.3s9.9,6.1,15.3,4.8c6.7-1.5,11.2-8.3,11.7-15.2S586.8,896,582.1,891z"/>
			<path class="st49" d="M496.7,923.7c-20.3-20.5-42.9-45.5-35-99.4c-6.4-13.9,14-52.4-3.4-72.9l3.7-12.3c0,0,14.9,4.6,19.8,30.8
				c6.4-30.8,17.7-45.2,17.7-45.2l6.2,2c0,0,1,27.2-5.1,52.4c15.9-8.7,29.3,8.7,29.3,8.7l-2,7.7c0,0-13.6-10.2-30.5,7.2
				c-15.4,15.9-24.6,21.5-24.6,21.5c-7,26.3-8,52.4,37.2,99.5L496.7,923.7z"/>
			<rect x="569.8" y="857" class="st49" width="12.8" height="43.9"/>
			<path class="st49" d="M557.5,921.8c-5.2-11.3-2.6-23.6,22-37.5s59-48.2,59-48.2l8.2,8.5c0,0-39.4,62.2-50,79.2s-25,22.2-25,22.2
				L557.5,921.8z"/>
			<path class="st49" d="M471.8,936.6c9.7-0.8,18.7-5.5,24.9-13h13c3.7,5.5,10.7,9.9,17.2,9.6c6.7-0.4,12.7-4.1,16-10
				c0.5,0,1.1-1.5,1.7-1.5h12.9c2.8,7.6,11.3,12.6,19.4,13.1c8.2,0.4,16-3.9,19.9-11.2l13.6-0.4c4,6.4,11.7,11,19.2,10.5
				c7.7-0.6,14.4-5.3,17.6-12.3l13.9-0.2c6.7,10.8,33.4,15.4,45.2,7.7c1,23.6,0,55.9,0,55.9h-230L471.8,936.6z"/>
			<path class="st48" d="M565.4,802.9c-9.2-19.5-15.2-28.3-28.3-38.8c-1.9,1.8-3.7,3.7-5.4,5.6c7.2,14.1-4.8,87.3,38,87.3
				C569.8,814.7,565.4,802.9,565.4,802.9z"/>
			<path class="st48" d="M585.4,802.9c9.2-19.5,17.2-31.3,30.3-41.8c1.9,1.8,3.7,3.7,5.4,5.6c-7.2,14.1,2.8,90.3-40,90.3
				C581,814.7,585.4,802.9,585.4,802.9z"/>
			<path class="st48" d="M569.8,857c-14.1,0-25.2-23.5-19-43.4s20-41,21.6-49.4h12.3c0.3,9.5,14.6,27.7,19.2,50.4
				c4,19.6-8.5,42.4-21.3,42.4H569.8z"/>
		</g>
	</g>
	<polyline class="st4" points="1209.4,1402.8 1140.1,1181.3 1123.9,1181.3 1084.3,1029.5 1072.5,1026.5 1029.6,880.6 1007.6,875.6 	
		"/>
	<path class="st10" d="M1230.2,1200.6h6.5c0,0,15.8,106.4,70,151.6v7.1c0,0-10-2-16.9-13.3c8.2,23.6,27.7,45.9,27.7,45.9v5.1
		c-8.2-3.3-15.1-9.2-19.8-16.7c4.4,14.9,21.3,30.7,25.9,31.7v5.9h-197.7v-4.9c0,0,24.1-16.6,31.3-36.3
		c-15.4,14.6-23.4,17.2-23.4,17.2v-6.9c0,0,29.8-25,36.4-44.4c-15.7,14.6-18.7,15.4-18.7,15.4v-7.2
		C1151.6,1350.8,1210.5,1279.6,1230.2,1200.6z"/>
	<g>
		<defs>
			<path id="SVGID_69_" d="M1230.2,1200.6h6.5c0,0,15.8,106.4,70,151.6v7.1c0,0-10-2-16.9-13.3c8.2,23.6,27.7,45.9,27.7,45.9v5.1
				c-8.2-3.3-15.1-9.2-19.8-16.7c4.4,14.9,21.3,30.7,25.9,31.7v5.9h-197.7v-4.9c0,0,24.1-16.6,31.3-36.3
				c-15.4,14.6-23.4,17.2-23.4,17.2v-6.9c0,0,29.8-25,36.4-44.4c-15.7,14.6-18.7,15.4-18.7,15.4v-7.2
				C1151.6,1350.8,1210.5,1279.6,1230.2,1200.6z"/>
		</defs>
		<clipPath id="SVGID_70_">
			<use xlink:href="#SVGID_69_"  style="overflow:visible;"/>
		</clipPath>
		<g class="st50">
			<path class="st4" d="M1192,1291.2c4.8,25,15.8,47.6,26.6,54.9v6.2c0,0-13.6-4.7-17.4-14.7c8.9,22.7,21.3,34.6,25.6,38.4v8.6
				c-7-1.8-13.1-6-17.3-11.8c4.6,30.4,29.6,39.2,29.6,39.2v6"/>
			<path class="st4" d="M1266.5,1290.8v14.5c-8.8-6.3-15.4-15.1-19.1-25.2c3.1,23.7,13.5,44.7,29.8,62.1v7.7
				c-12.9-6.8-20.8-13.7-27.5-26.6c2.5,25.1,15.2,38.9,35.9,57v6.4c-14.6-5-25.1-8.4-32.7-21.8c5.2,21.2,21,35.8,41.2,44.1v7.9"/>
		</g>
	</g>
	<path class="st16" d="M2409.5,1431.7c41.4-0.6,82.4,6.6,123.8,8.5c37.9,1.7,75.9-1.1,113.2-8.3c6.7-1.3,13.6-2.8,20.5-2.3
		s14.1,3.4,17.1,8.6c4.2,7.3-1.6,16.4-10.1,20.3s-18.7,4.1-28.5,4.2c-57.6,0.5-270.9-10.2-341.2,1.9c3.5-12.2,32.6-21,45.7-24.8
		C2369,1434.4,2389.3,1432,2409.5,1431.7z"/>
	<path class="st0" d="M328.4,1561.3c0.6-10,10.1-19.5,20-19.1s18.7,9.7,18.6,19.7L328.4,1561.3z"/>
	<path class="st0" d="M429.9,1467.7c0.3-5.2,5.3-10.3,10.5-10c5.4,0.4,9.7,4.9,9.8,10.3L429.9,1467.7z"/>
	<path class="st0" d="M318.3,1369.8c0.2-2.4,2.2-4.3,4.7-4.4c2.4,0.2,4.3,2.2,4.3,4.6L318.3,1369.8z"/>
	<path class="st1" d="M669,932.8c-15.9,3.6-30.3,0.5-39.3-8.5s-14.7-18.2-8.8-22.6s11.5,4.6,16.2,9.2l32.3-16.7L669,932.8z"/>
	<path class="st4" d="M633.4,904.8c7.2,9.1,18.2,14.2,18.2,14.2"/>
</g>
</svg>
