<svg width="4276" height="2038" viewBox="0 0 4276 2038" fill="none" xmlns="http://www.w3.org/2000/svg">
<g clip-path="url(#clip0)">
<path d="M4418.16 149.303C4245.56 32.5131 2802.6 275.869 2459.52 236.012C2113.68 209.386 1716.19 11.8629 1320.56 526.614C866.016 1012.98 -23.9848 476.926 -105.544 840.907C-106.38 844.641 -106.604 848.755 -106.26 852.566C-70.2283 1251.34 -106.309 1679.45 -70.1792 2027.78C-69.8811 2030.65 -69.8927 2033.56 -70.2073 2036.43C-98.5341 2295.14 -104.921 2503.94 -106.361 2584.97C-106.728 2605.63 -93.3231 2622.61 -72.7856 2623.75C464.842 2653.77 4273.57 2583.48 4689.22 2575.69C4710.98 2575.29 4726.01 2557.93 4725.34 2536.08C4715.67 2219.55 4603.65 1297.75 4619.29 935.584C4623.18 547.665 4602.55 256.545 4418.16 149.303Z" fill="url(#paint0_linear)"/>
</g>
<defs>
<linearGradient id="paint0_linear" x1="1946.25" y1="-328.063" x2="1908.18" y2="1979.98" gradientUnits="userSpaceOnUse">
<stop stop-color="#E8F7FF"/>
<stop offset="1" stop-color="#E8F7FF" stop-opacity="0"/>
</linearGradient>
<clipPath id="clip0">
<rect width="4276" height="2038" fill="white"/>
</clipPath>
</defs>
</svg>
