<svg id="Layer_1" data-name="Layer 1" xmlns="http://www.w3.org/2000/svg" xmlns:xlink="http://www.w3.org/1999/xlink" viewBox="0 0 1133.29 1099.6"><defs><style>.cls-1,.cls-19,.cls-9{fill:none;}.cls-2{fill:url(#linear-gradient);}.cls-3{fill:#ffebe2;}.cls-4{fill:#24245b;}.cls-5{fill:#c57dba;}.cls-6{fill:#006cff;}.cls-7{fill:#ea9887;}.cls-8{clip-path:url(#clip-path);}.cls-19,.cls-9{stroke:#24245b;}.cls-9{stroke-linecap:square;stroke-linejoin:bevel;}.cls-18,.cls-19,.cls-9{stroke-width:3px;}.cls-10{fill:#257c74;}.cls-11{fill:#efc2ea;}.cls-12{clip-path:url(#clip-path-2);}.cls-13{clip-path:url(#clip-path-3);}.cls-14{fill:#aec6f8;}.cls-15{clip-path:url(#clip-path-4);}.cls-16{clip-path:url(#clip-path-5);}.cls-17{clip-path:url(#clip-path-6);}.cls-18{fill:#fff;stroke:#231f20;}.cls-18,.cls-19{stroke-miterlimit:10;}</style><linearGradient id="linear-gradient" x1="816.11" y1="836.14" x2="233.81" y2="235.51" gradientTransform="matrix(1, 0, 0, -1, 0, 1159.05)" gradientUnits="userSpaceOnUse"><stop offset="0.39" stop-color="#e8f7ff"/><stop offset="1" stop-color="#e8f7ff" stop-opacity="0"/></linearGradient><clipPath id="clip-path"><path class="cls-1" d="M267.22,811.19c10-14.64,40-30,58.14-13.48s6.93,39.66,6.93,39.66c14.24-8.47,38.88,17.71,13.86,48.9,20.4-6.16,23,21.56,10.74,38.5s-38.1,54.67-66.57,52.75c-13.86-10.4-47.21-43.86-56.91-109.14C253,834.57,267.22,811.19,267.22,811.19Z"/></clipPath><clipPath id="clip-path-2"><path class="cls-1" d="M486.68,1074.52C433.55,975.19,344.61,827.34,459,680.64s89.83-251.06,7.47-269.23l.49-15.56s33.67-25.15,50.2-49.54,2.93-78.29-1.18-101.39-8.72-44.41,20.54-67S723.86,95.81,797,200.52s-27.51,366-30.33,379.64C759,617.23,831,1071.36,831,1071.36S580.56,1075.11,486.68,1074.52Z"/></clipPath><clipPath id="clip-path-3"><polygon class="cls-1" points="887.68 1073.53 1038.52 1073.54 1003.78 790.55 987.73 790.55 887.68 1073.53"/></clipPath><clipPath id="clip-path-4"><polygon class="cls-1" points="989.73 1073.54 887.68 1073.53 947.75 903.63 965.05 903.61 989.73 1073.54"/></clipPath><clipPath id="clip-path-5"><path class="cls-1" d="M266.76,420.68c-13.93-8.42-21.16-25.84-17.82-41.77h5.81c1.84,12.13,10.59,22.44,21.85,27.28,2.58-7.12,3.59-14.76,1.91-22.14,6.2-.34,14.12-4.07,17.94-9-.53-2.13-1.55-4.19-2.07-6.32-5.45-1-10.69-7-11.1-12.49s1.2-11,1.64-16.51-.59-12-5-15.32H274c-2.08,4.09-4.23,8.27-7.62,11.36s-8,4.64-12.27,3.08a30.19,30.19,0,0,1-.54,9.29,14.26,14.26,0,0,1-4.76,7.85c-2.45,1.93-5.88,3.06-8.81,2a11.75,11.75,0,0,1,.1,11.27,12.34,12.34,0,0,1-9.9,6q-.75,8.34-1.52,16.69c-1.76,20.54-3.87,42.87,18.46,42.87C257.41,434.89,264.75,431.12,266.76,420.68Z"/></clipPath><clipPath id="clip-path-6"><path class="cls-1" d="M-1544,2434.3c-196.36-34.65-299.16,268-109.26,313.62C-1445.43,2797.86-1338,2470.65-1544,2434.3Z"/></clipPath></defs><path class="cls-2" d="M1110.71,522.55c45.91-174.55,6.88-297.19-74.38-381.25C951.85,60,825.13,16.36,634.59,61.37c-190.08,53.75-322.77,164.45-406.8,243.91-81.72,86.82-115.24,142.4-69.32,248C213.1,657.13,321,734.76,400.89,819.74c85.86,80.84,143.71,168.57,233.7,194.3,90,17,142.79-34,229.1-115.76C943.58,814.23,1056.53,698.93,1110.71,522.55Z"/><g id="art"><path class="cls-3" d="M950.51,520.52H957c.77,10.29,21.44,15,26.19.13h6.67c.26,3.39,2.62,6.23,5.89,8,10,5.29,21.72-3.42,20.17-14.61-8-57.54-75.59-447.82-441.5-447.82-377.3,0-501.25,306.39-535.88,444.15C35.14,524,52.06,533.83,61.85,523.72a8.29,8.29,0,0,0,2.06-3.17h6.55c.77,10.29,21.43,15,26.18.13h6.67c.77,10.16,20.47,15.46,27,.41h14l75,52,88.79-35.57,3.23-17h6.54c.77,10.29,21.44,15,26.18.13h6.68c.77,10.16,20.47,15.46,26.95.41v-.54h6.55c.77,10.29,21.43,15,26.18.13H417c.77,10.16,20.47,15.46,27,.41v-.54h6.54c.77,10.29,21.43,15,26.18.13h6.68c.77,10.16,20.47,15.46,27,.41v-.54H517c.77,10.29,21.44,15,26.19.13h6.67c.77,10.16,20.47,15.46,27,.41l174.71-.54H758c.77,10.29,21.44,15,26.19.13h6.67c.77,10.16,20.47,15.46,27,.41v-.54h6.55c.77,10.29,21.43,15,26.18.13h6.67c.77,10.16,20.47,15.46,27,.41v-.54h6.54c.77,10.29,21.44,15,26.18.13h6.68c.77,10.16,20.47,15.46,27,.41Z"/><path class="cls-4" d="M226,398.44h13.07l16.06-44.66,29-22.77c7.61-4.73,14.63-10.13,19.41-17.71a42.94,42.94,0,0,0,6.87-25.54c-.48-7.07-3.15-14.17-8.31-19-6.84-6.46-17.55-8.09-26.35-4.77a39.68,39.68,0,0,0-20.67,18.53c-4.51,8.38-7.93,17.7-14.92,24.15-7.85,7.26-18.93,9.72-28.1,15.2A48.54,48.54,0,0,0,189,359.52c0,.55-.07,1.09-.08,1.64C188.4,381.73,205.47,398.44,226,398.44Z"/><polygon class="cls-5" points="199.19 500.6 239.8 429.62 253.61 430.62 283.28 512.41 268.76 542.95 206.64 541.92 199.19 500.6"/><path class="cls-6" d="M479,1060.65l7.64,13.89c-6.23,14.21-23.69,12.67-26.91,3.08a5,5,0,0,0-4.74-3.5h-.52a5,5,0,0,0-4.21,2.33,32.89,32.89,0,0,1-6.79,8.16c-3.51,2.87-8.28,4.67-12.81,3.77s-7.87-4.19-9.91-8.13a8.08,8.08,0,0,0-7.15-4.43,8,8,0,0,0-6.13,2.86,30.61,30.61,0,0,1-9.08,7.64,21.61,21.61,0,0,1-15.39,2.2,17.43,17.43,0,0,1-9.63-6.83,9,9,0,0,0-7.41-4,8.84,8.84,0,0,0-7,3.34,34.87,34.87,0,0,1-5.66,5.92c-3.26,2.61-7.44,4.43-11.7,4.13-4.85-.34-9.57-4.2-11.31-8.65a5,5,0,0,0-8.81-.88,24.06,24.06,0,0,1-8.22,7.83,17.42,17.42,0,0,1-14,1.47,14.33,14.33,0,0,1-7.34-6.36,9,9,0,0,0-7.82-4.78h-.3a8.79,8.79,0,0,0-6.22,2.58,39.17,39.17,0,0,1-7.57,6.13,21.63,21.63,0,0,1-13,3.32c-4.54-.42-8.67-2.63-10.59-6.53l10.48-24.6c9.79,0,18.54-7,28.29-6.13,9.39.88,18.06,6.25,27.49,6.24,11.67,0,22-8.23,33.64-9,13.16-.91,25.33,7.71,38.51,8,14.24.34,27.3-9,41.54-9,8.31,0,16.24,3.15,24.19,5.59S471.24,1063.52,479,1060.65Z"/><path class="cls-6" d="M108.36,1079.31c-3.75,4.78-8.79,8.86-14.75,10.08-4.87,1-10.46-.25-14-3.62a9.16,9.16,0,0,0-6.28-2.56H72.21a8.92,8.92,0,0,0-7.21,3.52,12.62,12.62,0,0,1-10.1,5.15,12.38,12.38,0,0,1-9.61-4.86A9.28,9.28,0,0,0,38,1083.2h-.08a9,9,0,0,0-7,3.34c-3,3.71-7.14,6.48-12.08,6.33a9.62,9.62,0,0,1-8.09-4.56c-3.09-5.25.5-10.83,5.19-13.21A36.65,36.65,0,0,1,32,1071.8c5.26.09,10.52.78,15.77.41,9.8-.7,18.9-5,28.14-8.38s19.54-5.68,28.78-2.35a132.26,132.26,0,0,1,4.48,16.7C108.94,1077.69,108.64,1079.8,108.36,1079.31Z"/><path class="cls-7" d="M276.31,1017.17c-11.4,25-29.85,67.38-29.85,67.38H104s-10.79-45.43-19.26-93.17S67,862,104.71,812.73s89.36-92.44,114.73-111.66c50.83-38.5,93.12,4.75,54.46,44.66-16.19,16.71-73,90.1-73,90.1Z"/><path class="cls-7" d="M267.22,811.19c10-14.64,40-30,58.14-13.48s6.93,39.66,6.93,39.66c14.24-8.47,38.88,17.71,13.86,48.9,20.4-6.16,23,21.56,10.74,38.5s-38.1,54.67-66.57,52.75c-13.86-10.4-47.21-43.86-56.91-109.14C253,834.57,267.22,811.19,267.22,811.19Z"/><g class="cls-8"><path class="cls-9" d="M255.65,909.35C289,898,328.06,851.15,338.84,830"/><path class="cls-9" d="M355.77,876.52c-13,20.64-51.86,54.41-78,69.3"/><path class="cls-9" d="M283.52,787.52c-23.87,38.51-55.68,93-60.3,102.19"/></g><polygon class="cls-4" points="235.64 898.04 261.57 889.73 277.75 927.85 302.13 952.11 271.84 982.52 235.64 898.04"/><path class="cls-3" d="M288.7,938.1c-24.95,18.62-8.78,49.43,18.08,37.24C335.15,962.52,306,925.19,288.7,938.1Z"/><path class="cls-3" d="M247,872.73c19.29-19.94,57.54,3.3,30.05,24.93C244.5,923.23,230.5,889.73,247,872.73Z"/><path class="cls-3" d="M264.29,903.75c22.34-17.77,54.06,9.54,28.11,32S237,925.52,264.29,903.75Z"/><path class="cls-10" d="M202.88,661.57c-7.59,37.73-18.06,116.5-18.06,155S183.61,968.27,286.63,1043c29.87-13.86,19.86-51.59,19.86-51.59s-69.92-43.89-73.08-146.31,13-182.5,13-182.5Z"/><path class="cls-4" d="M286.63,1043c-12.36-5.37,8.88-60,19.86-51.59C317.56,1000.14,302.13,1049.71,286.63,1043Z"/><path class="cls-7" d="M127.84,968.28c4.62-28.5.77-75.47,8.47-96.26s52.15-81.44,62.37-97c30.8-47,96.32-8.62,68.54,36.2-23.88,38.5-54.68,93.94-59.3,103.18s-7,63.15-7,63.15"/><path class="cls-11" d="M202.88,661.57c-24.68,0-31.92-14.15-39.11-43.41s-35.93-145.64-35.93-145.64L142,472l38.12,60.83.74-63h14l20.23,62.6,21.36-64h14l5.67,63.49L290,470h13.7l-11,63.79,47-61,16-.43s-47.59,120.61-61.32,151.86c-14.09,32.06-30.94,38.37-48,38.37S202.88,661.57,202.88,661.57Z"/><path class="cls-9" d="M63.92,680.66c10.78-.38,22-8.47,25-15.78,1.92,6.54,10,15,22,15.78"/><path class="cls-9" d="M332.29,719.52c10.78-.39,21.94-8.47,25-15.79,1.93,6.55,10,15,22,15.79"/><path class="cls-9" d="M360,630.52c10.78-.39,22-8.48,25-15.79,1.92,6.54,10,15,21.94,15.79"/><path class="cls-9" d="M829.35,701.87c10.79-.39,22-8.47,25-15.79,1.93,6.55,10,15,22,15.79"/><path class="cls-9" d="M864.78,806.34c10.78-.39,21.94-8.47,25-15.79,1.93,6.55,10,15,22,15.79"/><path class="cls-9" d="M929,734.18c10.78-.38,21.94-8.47,25-15.79,1.93,6.55,10,15,22,15.79"/><path class="cls-7" d="M486.68,1074.52C433.55,975.19,344.61,827.34,459,680.64s89.83-251.06,7.47-269.23l.49-15.56s33.67-25.15,50.2-49.54,2.93-78.29-1.18-101.39-8.72-44.41,20.54-67S723.86,95.81,797,200.52s-27.51,366-30.33,379.64C759,617.23,831,1071.36,831,1071.36S580.56,1075.11,486.68,1074.52Z"/><g class="cls-12"><path class="cls-5" d="M480.52,630.52c57.37-32.26,124.29-52.82,124.29-52.82l-.31,13.63s-82,78.16-167.1,109Z"/><path class="cls-9" d="M603.66,584.38c-22.49,14.07-107.47,65.26-144.18,80.19"/><path class="cls-4" d="M729,263.35v99.17h8.18c10.79-43.12,22.59-54.93,46.72-54.93s46.2,35.94,39,137.58c95.48,0,82.14-110.88,82.14-110.88l-76.5-148.37L668.93,86.33,535.7,138.16l0,33.79c9.23,19.34,41,31.28,71.1,25.89h0a40,40,0,0,0,26.86,37.89c18,6.16,37.82,6.56,51.15,4.08h0a24.37,24.37,0,0,0,21,24.24A71,71,0,0,0,729,263.35Z"/><path class="cls-4" d="M502.34,237.41c21.7-.45,36.31,9.17,50.16,29.12l3-8.14c-6.84-19.89-28.38-36.61-50.41-37.33C503.45,226.21,504,232.26,502.34,237.41Z"/></g><path class="cls-3" d="M766.68,580.17h-13L632.74,1045.64a23.63,23.63,0,0,0,3.86,20h0a23.58,23.58,0,0,0,19.26,9.6l174.74-1.8a18.07,18.07,0,0,0,17.11-12.9h0M672.28,979l84.53-358.35,57,363.75c6.68,42.61-25.26,71.52-68.35,73.28h0c-47.73,1.92-84.15-32.17-73.18-78.71Z"/><polygon class="cls-6" points="887.68 1073.53 1038.52 1073.54 1003.78 790.55 987.73 790.55 887.68 1073.53"/><g class="cls-13"><path class="cls-3" d="M969.76,812.3c11.81,1.67,20.66-4.36,23.52-13.14,2.41,9.68,14.21,15.07,21.53,14.17l-8.09-42.1H982Z"/></g><polygon class="cls-14" points="989.73 1073.54 887.68 1073.53 947.75 903.63 965.05 903.61 989.73 1073.54"/><g class="cls-15"><path class="cls-3" d="M980.72,929.78a8.67,8.67,0,0,1-7.31.5c-2.35-.91-4.65-3.84-5.44-6.24H962.4a11.2,11.2,0,0,1-4,7.17,6.92,6.92,0,0,1-7.86.46c-2.27-1.58-3.41-4.92-3.85-7.66h-7a9.81,9.81,0,0,1-13.81,6.71l8.94-37.93L972,878.62l21.85,19.81-3.75,29.7Z"/></g><path class="cls-7" d="M266.76,420.68c-13.93-8.42-21.16-25.84-17.82-41.77h5.81c1.84,12.13,10.59,22.44,21.85,27.28,2.58-7.12,3.59-14.76,1.91-22.14,6.2-.34,14.12-4.07,17.94-9-.53-2.13-1.55-4.19-2.07-6.32-5.45-1-10.69-7-11.1-12.49s1.2-11,1.64-16.51-.59-12-5-15.32H274c-2.08,4.09-4.23,8.27-7.62,11.36s-8,4.64-12.27,3.08a30.19,30.19,0,0,1-.54,9.29,14.26,14.26,0,0,1-4.76,7.85c-2.45,1.93-5.88,3.06-8.81,2a11.75,11.75,0,0,1,.1,11.27,12.34,12.34,0,0,1-9.9,6q-.75,8.34-1.52,16.69c-1.76,20.54-3.87,42.87,18.46,42.87C257.41,434.89,264.75,431.12,266.76,420.68Z"/><g class="cls-16"><path class="cls-9" d="M284.64,343.29c-3.85-5.94-16.91-2.66-23.58,4"/><path class="cls-9" d="M285.75,346.29c.16,3.31.3,6.74-1,9.8s-4.31,5.66-7.6,5.26c-3.13-.38-5.35-3.2-6.84-6"/></g><line class="cls-9" x1="541.12" y1="319.57" x2="742.95" y2="319.57"/><path class="cls-4" d="M520.59,265.62c28,0,27.32,112.78-1.66,112.78S491,265.62,520.59,265.62Z"/><path class="cls-9" d="M268.22,812.19c-23.88,38.5-55.68,92.94-60.3,102.18s-7,63.15-7,63.15"/><path class="cls-9" d="M127.84,968.28c4.62-28.5.77-75.47,8.47-96.26s52.15-81.44,62.37-97"/><path class="cls-3" d="M204.86,764.24c-9.65,10.34-18.17,29.62-3.29,40.91s35.4-3.59,46.18-18.48,11.06-26.79-1.29-33.53C233.86,746.27,219,749.14,204.86,764.24Z"/><g class="cls-17"><path class="cls-18" d="M428.18,519.66A50.93,50.93,0,0,0,435,503.92h9.67a19.38,19.38,0,0,0,7.44,14.36c-1.42,6.24-6.17,13-11.82,16-1.91,1-4.3,1.75-6.18.67a6.36,6.36,0,0,1-2.4-3.06C430.12,528.32,426,523,428.18,519.66Z"/><path class="cls-18" d="M392.24,519.66a51,51,0,0,0,6.87-15.74h9.66a19.38,19.38,0,0,0,7.44,14.36c-1.42,6.24-6.17,13-11.81,16-1.91,1-4.31,1.75-6.18.67a6.31,6.31,0,0,1-2.4-3.06C394.18,528.32,390,523,392.24,519.66Z"/><path class="cls-19" d="M426.21,629.69a261.29,261.29,0,0,0-73.89-54.47c-1.84,2.93-5.19,4.4-7,7.34,18.72,20,34.31,42.58,48.72,65.82,2.94,4.73,5.84,9.6,10,13.29s9.91,6.09,15.33,4.84c6.67-1.53,11.22-8.35,11.68-15.18S430.91,634.66,426.21,629.69Z"/><path class="cls-19" d="M340.8,662.37c-20.33-20.5-42.92-45.53-35-99.43-6.42-13.86,14-52.36-3.39-72.9l3.65-12.32s14.88,4.62,19.76,30.8c6.42-30.8,17.71-45.17,17.71-45.17l6.16,2s1,27.21-5.13,52.36c15.91-8.72,29.26,8.73,29.26,8.73l-2.05,7.7s-13.62-10.24-30.52,7.19c-15.43,15.91-24.64,21.48-24.64,21.48-7,26.26-8,52.44,37.19,99.51Z"/><rect class="cls-19" x="413.9" y="595.74" width="12.83" height="43.89"/><path class="cls-19" d="M401.62,660.52c-5.17-11.29-2.6-23.62,22-37.48s59-48.25,59-48.25l8.22,8.45s-39.39,62.19-50,79.23-25,22.18-25,22.18Z"/><path class="cls-19" d="M315.88,675.32a36,36,0,0,0,24.92-13h13c3.66,5.46,10.69,9.89,17.25,9.59a19.56,19.56,0,0,0,16-10c.51,0,1.14-1.47,1.66-1.47h12.87c2.79,7.56,11.33,12.62,19.37,13.14a21.43,21.43,0,0,0,19.93-11.19L454.5,662c4,6.39,11.7,11,19.21,10.52a21.32,21.32,0,0,0,17.62-12.31l13.9-.24c6.69,10.76,33.38,15.36,45.19,7.67,1,23.62,0,55.87,0,55.87h-230Z"/><path class="cls-18" d="M409.54,541.64c-9.24-19.51-15.2-28.32-28.29-38.84a65.21,65.21,0,0,0-5.39,5.64c7.19,14.12-4.82,87.3,38,87.3C413.9,553.44,409.54,541.64,409.54,541.64Z"/><path class="cls-18" d="M429.49,541.64c9.25-19.51,17.2-31.32,30.29-41.84a63.8,63.8,0,0,1,5.39,5.64c-7.18,14.12,2.83,90.3-40,90.3C425.13,553.44,429.49,541.64,429.49,541.64Z"/><path class="cls-18" d="M413.9,595.74c-14.11,0-25.15-23.5-19-43.42s20-41,21.56-49.44h12.32c.26,9.49,14.63,27.72,19.25,50.43,4,19.63-8.47,42.43-21.3,42.43Z"/></g></g></svg>
