<svg id="Layer_1" data-name="Layer 1" xmlns="http://www.w3.org/2000/svg" xmlns:xlink="http://www.w3.org/1999/xlink" viewBox="0 0 1243.6 1122.06"><defs><style>.cls-1,.cls-23,.cls-5,.cls-9{fill:none;}.cls-2{fill:url(#linear-gradient);}.cls-3{fill:#ea9887;}.cls-4{fill:#aec6f8;}.cls-5,.cls-9{stroke:#24245b;}.cls-23,.cls-5{stroke-miterlimit:10;}.cls-23,.cls-5,.cls-9{stroke-width:3px;}.cls-6{fill:#c57dba;}.cls-7{clip-path:url(#clip-path);}.cls-8{fill:#24245b;}.cls-9{stroke-linecap:square;stroke-linejoin:bevel;}.cls-10{fill:#ffebe2;}.cls-11{clip-path:url(#clip-path-2);}.cls-12{clip-path:url(#clip-path-3);}.cls-13{fill:#257c74;}.cls-14{fill:#006cff;}.cls-15{clip-path:url(#clip-path-4);}.cls-16{fill:#134f48;}.cls-17{clip-path:url(#clip-path-5);}.cls-18{fill:#c66960;}.cls-19{fill:#efc2ea;}.cls-20{clip-path:url(#clip-path-6);}.cls-21{clip-path:url(#clip-path-7);}.cls-22{clip-path:url(#clip-path-8);}.cls-23{stroke:#ea9887;}.cls-24{clip-path:url(#clip-path-9);}.cls-25{clip-path:url(#clip-path-10);}</style><linearGradient id="linear-gradient" x1="966.4" y1="995.54" x2="351.1" y2="385.43" gradientTransform="matrix(1, 0, 0, -1, 0, 1344)" gradientUnits="userSpaceOnUse"><stop offset="0.39" stop-color="#e8f7ff"/><stop offset="1" stop-color="#e8f7ff" stop-opacity="0"/></linearGradient><clipPath id="clip-path"><path class="cls-1" d="M46.83,259c-42.72,0-28.47,64.08-15,95.26-28.49-5.77-26.18,42.74-5,83.56C-14,432.05,7.92,497.89,44.92,543.71c-18.86-8.47-43.12-4.25-26.18,23.48s157.09,288,157.09,545.2H504.64c33.12-57,6.94-223.31-50.82-309.56l42.35-28.49-15.91-37.57c-30-5.77-48.5-31.58-58-60.62s-8.43-60.34-7.25-90.88,2.24-61.88-7.29-90.88c-15.79-48.1-57.58-82.09-96.23-114.78-33.22-28.09-67.21-60.12-81.51-100.25A30.5,30.5,0,0,0,201.31,259Z"/></clipPath><clipPath id="clip-path-2"><path class="cls-1" d="M292.28,627.85c33.37-31.83,71.36-22.13,102.68-.06C374.42,662.19,321.54,662.76,292.28,627.85Z"/></clipPath><clipPath id="clip-path-3"><path class="cls-1" d="M521.56,901.4c-21.16-15.32-44-31.27-70.16-32.06-10.51-.32-22.09,2.58-28,11.26-4.52,6.63-4.78,15.5-2.32,23.13s7.34,14.25,12.55,20.35c26.12,30.55,62,51.1,98.52,67.83C531.61,961.81,528.61,930.64,521.56,901.4Z"/></clipPath><clipPath id="clip-path-4"><path class="cls-1" d="M678.92,803c189.9-45.62,87.1-348.27-109.26-313.62C363.66,525.77,471.13,853,678.92,803Z"/></clipPath><clipPath id="clip-path-5"><path class="cls-1" d="M711.9,757.44c42.47-44.24,44.11-70,38.37-94.78-.37-1.58-.76-3.16-1.18-4.73,0,0-9.21-5.57-24.64-21.48-16.9-17.43-30.52-7.19-30.52-7.19l-2-7.7s13.35-17.45,29.26-8.73C715,587.68,716,560.47,716,560.47l6.16-2s11.29,14.37,17.71,45.17c4.88-26.18,19.76-30.8,19.76-30.8l3.65,12.32c-17.39,20.54,3,59-3.39,72.9,7.92,53.9-14.67,78.93-35,99.43Z"/></clipPath><clipPath id="clip-path-6"><path class="cls-1" d="M579.12,564.37C582.2,577,593,583.16,601.73,581.81c3.79-.58,8.52-3.67,9.43-7.4,4.32,5.78,10.62,10.44,17.8,11.2s15.4-3.61,17.72-10.43c4.78,6.83,14.08,9.87,22.18,7.93s14.8-8.4,17.8-16.17a34.07,34.07,0,0,0-.44-24.44c-3.05-7.86-8.86-14.87-16.57-18.35s-18.08-3.4-24.85,1.67a28.1,28.1,0,0,0-10.32-11.3,20,20,0,0,0-14.9-2.44c-5,1.26-9.51,5-11.1,9.88-5-6.67-15.29-8.24-22.56-4.14A22.58,22.58,0,0,0,574.79,539Z"/></clipPath><clipPath id="clip-path-7"><path class="cls-1" d="M808.21,1014.59s22.75,37.74,67.69,60.84a40.81,40.81,0,0,1-6.63,9.62c-18.93,0-17.78,27.34-1.61,27.34h34.89a12.72,12.72,0,0,0,12-8.44c4.82-13.48,14-39.58,17.37-51.42,4.19-14.85-2.78-27-12.42-28.53-9.46-1.48-19.36,12.1-19.92,12.93-6.44-2.26-15-6.68-24.65-13.1-26-17.32-26.57-40-31.7-65.06s-14.5-26.19-31.44-26.19h-45c-8,0-40.95,0-29.35,29.69,11.61,29.52,35.67,90.26,35.67,90.26l9.7,23.28H764.87c-25,0-18.48,36.58,3.46,36.58h60.84c27.72,0,22.33-35.81-.77-35.81Z"/></clipPath><clipPath id="clip-path-8"><path class="cls-1" d="M781.66,910.64v-21c-15.9-3.9-21.8-12.63-21.8-12.63v-8.47c18.23,0,19.73-10.78,19.73-27.13H824v45.87c0,34.39-7.31,45.3-22.84,45.3S781.66,923.73,781.66,910.64Z"/></clipPath><clipPath id="clip-path-9"><path class="cls-1" d="M802.78,855.51c-6.8-9.87-19.65-8.5-23.87-.87C784.55,866,797.9,865.3,802.78,855.51Z"/></clipPath><clipPath id="clip-path-10"><path class="cls-1" d="M698.92,998.84a9,9,0,0,1,.86-6.6c-5.13-5-5.13-11.52-1.83-12.41a7.1,7.1,0,0,1-1.83-5,7.27,7.27,0,0,1,2-5c-1.56-1.77-3.17-3.64-3.43-6.09a4.32,4.32,0,0,1,1.2-3.63c2.06-2,5.11-.78,7.4.59,7.31,4.38,13.4,10.38,20.31,15.38a40.25,40.25,0,0,0,23.46,7.51h37.72l8.29,26.42a13.34,13.34,0,0,1,.6,3.91,13,13,0,0,1-13,13H761C715.16,1026.91,700.57,1005.35,698.92,998.84Z"/></clipPath></defs><path class="cls-2" d="M1236.69,518.31c-4.38-185.74-85-311.67-170.07-400.65C976.25,31.11,881-18.49,732.81,14.09,584.62,55.91,484,161.42,394.15,246,308.14,337,233.8,407.45,228.94,518.31c4.37,110.86,79.2,181.36,165.21,272.29C484,875.2,584.62,980.71,732.81,1022.53c148.2,33.06,243.44-17,333.81-103.57C1152.14,830,1232.31,704.05,1236.69,518.31Z"/><g id="art"><path class="cls-3" d="M966.06,817.64A56.74,56.74,0,0,1,920.6,766H909c.45,6.14-4.19,12.22-8.74,16.32s-10.55,6.42-16.55,7.71a58.11,58.11,0,0,1-70.09-61.65C796.4,721.13,782.09,709,770.9,694c-94.41-18.63-191.33-35.53-286.74-48-1.74,17.8-12.25,33.76-26.44,44.64a66.35,66.35,0,0,1-50.61,12.62c-22.34,28-50,52.88-80.82,71.14,3.68,21.9,7.26,44.82,9.13,67H962.61C963.19,834.48,965.49,824.54,966.06,817.64Z"/><path class="cls-4" d="M761.62,1088.28s-140.13.91-169.41,0c-22.1-.68-20.54,18-1.1,19.11,16.57,1,137.87,3.93,182,5Z"/><path class="cls-3" d="M751.62,952.58c-11.46,0-21.89-10-25.78-20L703.21,874c27-12,42.6,7.42,52.4,23.67,5.73,9.51,10.8,19.42,16.8,28.77,1.65,2.57,3.63,5.18,6.5,6.18C778.91,932.58,765.89,952.64,751.62,952.58Z"/><path class="cls-5" d="M745.23,898.7C732.91,878.1,714.62,877,705.91,881"/><path class="cls-5" d="M739.84,908.52c-11.36-21.18-22.33-21.18-30.86-19.61"/><path class="cls-5" d="M732.52,917c-7.12-18.89-16.36-18.84-19.76-18.26"/><path class="cls-4" d="M186.66,1064H122.83c-.58-5.12-5.13-9-10-10.56s-10.18-.61-15.32-.54c-22.29.26-17.16-.47-46,.32a26.57,26.57,0,0,0-11.85,2.73c-3.63,1.94-6.51,5.86-6,9.86,1.08,8.69,15.52,11.37,15.4,20.13,0,2.37-1.23,4.55-1.72,6.86-1.51,7.17,4.18,14.3,11,17s14.16,2.63,21.5,2.63H217.38C209.3,1097.26,194.66,1079.08,186.66,1064Z"/><path class="cls-6" d="M46.83,259c-42.72,0-28.47,64.08-15,95.26-28.49-5.77-26.18,42.74-5,83.56C-14,432.05,7.92,497.89,44.92,543.71c-18.86-8.47-43.12-4.25-26.18,23.48s157.09,288,157.09,545.2H504.64c33.12-57,6.94-223.31-50.82-309.56l42.35-28.49-15.91-37.57c-30-5.77-48.5-31.58-58-60.62s-8.43-60.34-7.25-90.88,2.24-61.88-7.29-90.88c-15.79-48.1-57.58-82.09-96.23-114.78-33.22-28.09-67.21-60.12-81.51-100.25A30.5,30.5,0,0,0,201.31,259Z"/><g class="cls-7"><path class="cls-8" d="M421.44,573.35c-96.26-57.75-154.78,16.18-154.78,16.18s11.55,8.47,12.32,7.7c53.9-49.29,111.66-24.65,142.46,0C421.44,597.23,425.29,581.05,421.44,573.35Z"/><path class="cls-8" d="M558.56,893,537,1124.73l-385,38.5L-137.26,625.74l69-412,338,27.72s60.66,154.21,79.4,170.86c67.18,59.71-46.29,57.08-115.23,30.86,5.57,4,11.19,8,15.74,13.17s8,11.5,8.43,18.35c.62,10.41-6.13,20.41-15.24,25.41s-20.09,5.74-30.39,4-21.67-4.48-31.3-8.48c8.09,7,16.38,14.33,21.19,23.91s5.36,22.12-1.54,30.32c-5.43,6.44-14.39,9-22.8,8.62s-18.17-4.34-26.08-7.22c0,0,45.43,52,139.38,152.19s105.5,106.31,120.13,104,21.56-27,6.16-65.45c0,0,15.4,25.41,36.19,60.83Z"/><path class="cls-6" d="M150.38,731.21c15.4,27.73,31.58,115.51,80.09,110.12s16.18-80.86-6.16-144S167.59,615.39,135.75,625C97.25,636.5,135,703.48,150.38,731.21Z"/><path class="cls-9" d="M229.74,805c-15.49-17.36-30.85-36.54-46.33-53.9,3.81-19.89,6.77-39,10.59-58.89l-49.34-45.38"/><path class="cls-9" d="M393.46,629.31C394,651.88,410.18,739,435.59,775.88"/><path class="cls-10" d="M292.28,627.85c33.37-31.83,71.36-22.13,102.68-.06C374.42,662.19,321.54,662.76,292.28,627.85Z"/><g class="cls-11"><path class="cls-8" d="M378.93,645.91l15-10.22c1.7-1.16,3.49-2.42,4.32-4.31,1.65-3.75-1.2-7.91-4.2-10.68-9.54-8.73-22.29-11.35-34.81-14.58-5.9,6.61-7.56,16.19-6.44,25s4.71,17.09,8.26,25.23C368.1,653.87,372.77,650.09,378.93,645.91Z"/></g><path class="cls-6" d="M521.56,901.4c-21.16-15.32-44-31.27-70.16-32.06-10.51-.32-22.09,2.58-28,11.26-4.52,6.63-4.78,15.5-2.32,23.13s7.34,14.25,12.55,20.35c26.12,30.55,62,51.1,98.52,67.83C531.61,961.81,528.61,930.64,521.56,901.4Z"/><g class="cls-12"><path class="cls-5" d="M516.85,933.94a647.42,647.42,0,0,1-98.5-53.3"/></g></g><rect class="cls-8" x="41.83" y="791" width="13.06" height="39.02"/><path class="cls-13" d="M38.86,678.29C40.05,695.9,29,716.17,17.3,721.9v4.54a26.62,26.62,0,0,0,15.56-5.53c-.2,10.47-7.51,27.25-20.14,36.93l.39,5.13s7.7,0,16.39-7.7c-.39,16.2-16.39,32.39-25.67,40.68v3.76H94.28v-4.55c-10.08-4.34-27.06-23.5-31.6-41.66,5.13,5.92,19.55,5.72,19.55,5.72v-5.53c-9.08-3.32-23.9-18.53-26.7-32,3.56,2.17,14.46,3.4,14.46,3.4v-5.33c-21.73-7.51-24.45-31.4-25.84-41.28C44.15,678.48,41.43,678.32,38.86,678.29Z"/><path class="cls-14" d="M636.66,791,736,1052.53h37.12S690.26,844.93,672.66,791Z"/><path class="cls-14" d="M568.05,473.72c214.61-37.88,321.34,295,113.77,344.92Z"/><path class="cls-10" d="M678.92,803c189.9-45.62,87.1-348.27-109.26-313.62C363.66,525.77,471.13,853,678.92,803Z"/><g class="cls-15"><path class="cls-5" d="M576,768.17a459.11,459.11,0,0,0-7.77-54.37"/><path class="cls-5" d="M590,784.37a728.94,728.94,0,0,0-15.75-80.87"/><path class="cls-5" d="M602.15,776.92a429.35,429.35,0,0,0-20.66-80.11"/><path class="cls-4" d="M538.86,719.66s7.5,6.75,12.89,11.75c65.07-32.34,47.36-82.94,26.76-82.94C542.66,648.47,538.86,719.66,538.86,719.66Z"/><path class="cls-5" d="M566.08,523.23q7.49,43.47,11.42,87.33"/><path class="cls-5" d="M537.93,531.18a577,577,0,0,1,31.92,80.67"/><path class="cls-8" d="M634,627a6.53,6.53,0,0,1-2.4,3.06c-1.88,1.08-4.27.33-6.18-.67-5.65-3-10.4-9.76-11.82-16A19.4,19.4,0,0,0,621,599h9.67a50.93,50.93,0,0,0,6.86,15.74C639.66,618.09,635.58,623.44,634,627Z"/><path class="cls-8" d="M669.88,627a6.31,6.31,0,0,1-2.4,3.06c-1.87,1.08-4.27.33-6.18-.67-5.64-3-10.39-9.76-11.81-16A19.4,19.4,0,0,0,656.93,599h9.66a50.72,50.72,0,0,0,6.87,15.74C675.66,618.09,671.52,623.44,669.88,627Z"/><path class="cls-16" d="M635.7,748c.71,6.8,7.47,18.51,14.19,19.8,5.47,1,14.25-4.61,14.15-12.18,3.07-5.17,36.92-58.84,54.92-79.45-3.43-3.83-4.78-5-7.3-8.08-27,14.57-51.5,35-71.83,58.11C635.31,731.31,635,741.18,635.7,748Z"/><path class="cls-13" d="M711.9,757.44c42.47-44.24,44.11-70,38.37-94.78-.37-1.58-.76-3.16-1.18-4.73,0,0-9.21-5.57-24.64-21.48-16.9-17.43-30.52-7.19-30.52-7.19l-2-7.7s13.35-17.45,29.26-8.73C715,587.68,716,560.47,716,560.47l6.16-2s11.29,14.37,17.71,45.17c4.88-26.18,19.76-30.8,19.76-30.8l3.65,12.32c-17.39,20.54,3,59-3.39,72.9,7.92,53.9-14.67,78.93-35,99.43Z"/><g class="cls-17"><rect class="cls-6" x="677.85" y="549.29" width="107.81" height="96.67"/><path class="cls-4" d="M756.31,614.64s21,33.79,3.55,43.42c-2.5,2.72-6.81,1.92-10.81-.08-7.67-.11-29.49-5.05-30.82-26.8,14.84,13.16,38.08-6,38.08-16.54"/><path class="cls-5" d="M734.19,617.63s2.57,10.78,5.93,15.58"/></g><rect class="cls-8" x="638.97" y="690.86" width="12.83" height="43.89"/><path class="cls-13" d="M649.86,779.77s-14.39-5.14-25-22.18-50-79.23-50-79.23l8.22-8.45s34.4,34.39,59,48.25,27.17,26.19,22,37.48Z"/><path class="cls-18" d="M745.28,818.6h-230s-1-32.25,0-55.87c11.81,7.69,29.26,3.12,31.32-7.67l23.91.24c3.07,6.87,10.35,12.83,20.48,13.31,7.52.35,16.21-5.13,20.21-11.52l13.62.41a21.41,21.41,0,0,0,19.93,11.19c8-.52,16.58-5.58,19.37-13.14H677c.52,0,3.89,11.48,17.66,11.48,6.57,0,13.59-4.13,17.25-9.59h13a36,36,0,0,0,24.92,13Z"/><path class="cls-6" d="M651.84,690.86c42.82,0,30.81-73.18,38-87.3a68.38,68.38,0,0,0-5.39-5.64c-13.09,10.52-19.05,19.33-28.29,38.84C656.16,636.76,651.8,648.56,651.84,690.86Z"/><path class="cls-6" d="M640.53,690.86c-42.83,0-32.82-76.18-40-90.3a63.8,63.8,0,0,1,5.39-5.64c13.09,10.52,21,22.33,30.29,41.84C636.21,636.76,640.57,648.56,640.53,690.86Z"/><path class="cls-19" d="M639,690.86c-17.3,0-25.3-22.8-21.3-42.43,4.62-22.71,19-40.94,19.25-50.43h12.32c1.56,8.44,15.41,29.52,21.56,49.44s.12,43.42-19,43.42Z"/><path class="cls-16" d="M518.13,668.33c-12.52-28.24-44.46-48.77-44.46-48.77s-1.54,6.16-4.11,15.91c23.09,11.81,51.67,79.91,77,119.64C546.56,755.11,530.65,696.57,518.13,668.33Z"/><path class="cls-8" d="M570.47,755.35C506,659.6,515.08,592.86,564,567l-9.75-14.18c-89.84,52.88-46.21,154-7.7,202.29Z"/><path class="cls-13" d="M546.56,755.11c-54.93-106.68,6.67-162.25,6.67-162.25l6.67,7.7c-24.64,51.34-24,98.51,10.57,154.79C570.47,755.35,553.49,755.11,546.56,755.11Z"/><path class="cls-13" d="M564,567a20.18,20.18,0,0,0,15.15-2.63s-2.06-13.86-4.37-25.41c-6.93.51-20.28,5.39-20.53,13.86Z"/><path class="cls-6" d="M579.12,564.37C582.2,577,593,583.16,601.73,581.81c3.79-.58,8.52-3.67,9.43-7.4,4.32,5.78,10.62,10.44,17.8,11.2s15.4-3.61,17.72-10.43c4.78,6.83,14.08,9.87,22.18,7.93s14.8-8.4,17.8-16.17a34.07,34.07,0,0,0-.44-24.44c-3.05-7.86-8.86-14.87-16.57-18.35s-18.08-3.4-24.85,1.67a28.1,28.1,0,0,0-10.32-11.3,20,20,0,0,0-14.9-2.44c-5,1.26-9.51,5-11.1,9.88-5-6.67-15.29-8.24-22.56-4.14A22.58,22.58,0,0,0,574.79,539Z"/><g class="cls-20"><path class="cls-5" d="M579.16,564.37c0-4.88.77-15.92,14.63-15.66s17.68,16.31,17.41,28.7"/><path class="cls-5" d="M574.27,543.64a16.43,16.43,0,0,1,1.27-3.73A16.89,16.89,0,0,1,606,554.45"/><path class="cls-5" d="M605.53,539c5.71-2.6,7.89-14.81,2.59-20.18"/><path class="cls-5" d="M611.81,578.08s-2.76-23.3,14.83-25c16.35-1.59,22,17.24,22.08,25.48"/><path class="cls-5" d="M638.35,556.5a18.78,18.78,0,0,0-32.55-17.1"/><path class="cls-5" d="M668.69,588.75c5.54-5,8.71-12.65,7.63-20s-6.67-14-13.9-15.76-15.6,2-18.6,8.76"/><path class="cls-5" d="M637.57,544.5A18.13,18.13,0,0,1,649,534.27a16.36,16.36,0,0,1,16.63,5,15,15,0,0,1,1.89,15.92"/><path class="cls-5" d="M690.54,562.88a14.23,14.23,0,0,0-19.12-10.5,6.43,6.43,0,0,0-3.46,2.71"/><path class="cls-5" d="M646,521c1.48,7.37-3,16.83-8.64,21.83"/><path class="cls-5" d="M675.06,526.43a16.23,16.23,0,0,1-6.4,18.87"/></g><path class="cls-4" d="M580.7,649.43c23.61-1.66,14.11-40.71-6.68-39.14C552.74,611.9,557.09,651.09,580.7,649.43Z"/><path class="cls-4" d="M566.08,523.62c6.24-.44,3.73-10.73-1.76-10.32C558.66,513.73,559.84,524.06,566.08,523.62Z"/><path class="cls-4" d="M537.27,533c6.2-.75,3.17-10.91-2.28-10.21S531.07,533.79,537.27,533Z"/><circle class="cls-8" cx="580.54" cy="621.94" r="2.02"/><circle class="cls-8" cx="571.01" cy="623.1" r="2.02"/><path class="cls-5" d="M571,630.39a6.5,6.5,0,0,0,.46,2.13A6.74,6.74,0,1,0,584,627.57"/></g><path class="cls-18" d="M864.64,914.49l-.54-11.23s31.34-53.12,35.19-79.31c66.82-6.33,76.24-73.48,78.55-91.19h32.34c2,22.33,5.77,43.81,7,52.81a74.36,74.36,0,0,0,30.26,49.92l1.22,81.47Z"/><polygon class="cls-13" points="893.16 765.9 909.33 665.38 914.72 665.38 937.43 765.9 922.6 765.9 893.16 765.9"/><path class="cls-4" d="M847,648.43c18.1,0,19.41,21.85,17.83,31.67s-5.19,19.53-4.19,29.42c.92,9.34,5.84,18.14,5.49,27.52-.24,7.23-3.68,14-4.24,21.23-.39,5.6.92,11.16,2,16.67s1.92,11.22.7,16.69-4.54,11.84-10,13.12H843.15c-5.42-1.28-8.7-7.65-10-13.12s-.39-11.18.7-16.69,2.39-11.07,1.95-16.67c-.55-7.23-4-14-4.23-21.23-.35-9.38,4.57-18.18,5.49-27.52,1-9.89-2.61-19.6-4.19-29.42S830.13,648.43,847,648.43Z"/><rect class="cls-8" x="843.29" y="804.75" width="11.29" height="36.66"/><path class="cls-8" d="M808.21,1014.59s22.75,37.74,67.69,60.84a40.81,40.81,0,0,1-6.63,9.62c-18.93,0-17.78,27.34-1.61,27.34h34.89a12.72,12.72,0,0,0,12-8.44c4.82-13.48,14-39.58,17.37-51.42,4.19-14.85-2.78-27-12.42-28.53-9.46-1.48-19.36,12.1-19.92,12.93-6.44-2.26-15-6.68-24.65-13.1-26-17.32-26.57-40-31.7-65.06s-14.5-26.19-31.44-26.19h-45c-8,0-40.95,0-29.35,29.69,11.61,29.52,35.67,90.26,35.67,90.26l9.7,23.28H764.87c-25,0-18.48,36.58,3.46,36.58h60.84c27.72,0,22.33-35.81-.77-35.81Z"/><g class="cls-21"><path class="cls-3" d="M862.05,1111.86c7.5,11.33,21.87,15.62,35.21,18.22,10.52,2.06,21.82,3.5,31.64-.8,11.59-5.06,18.57-17,23.2-28.76,4.88-12.41,8-25.74,6.88-39s-7-26.48-17.56-34.59c-14.47-11.13-47.73-21.06-64.89-14.85l-29.14,46.67C840.15,1070.33,854.55,1100.53,862.05,1111.86Z"/><path class="cls-3" d="M739.61,1068.31c-6.44,5.8-12.92,12.32-15.05,20.72-2.61,10.29,2.08,21.39,9.68,28.83s17.6,11.81,27.6,15.34c17,6,35.42,10,53.09,6.35s34.33-16.63,37.84-34.34c1.85-9.35,0-19.16-3.91-27.88a112.43,112.43,0,0,0-15.46-25H762.9C755.43,1058,746.56,1062,739.61,1068.31Z"/><path class="cls-10" d="M865.92,1081.08l25.41-.52,22.33-41.32-26-12.33L861,1071.51Z"/><path class="cls-10" d="M779,1088.24h52L833,1065H772.83Z"/><polygon class="cls-8" points="852.27 1082.74 846.49 1119.32 909.64 1138.19 986.64 1081.2 943.52 980.71 899.63 1000.35 899.63 1036.93 875.91 1075.43 852.27 1082.74"/><polygon class="cls-8" points="839.56 1069.65 854.58 1097.37 843.28 1136.26 726.36 1124.71 719.05 1069.65 779.81 1075.81 828.4 1076.58 839.56 1069.65"/></g><path class="cls-3" d="M781.66,910.64v-21c-15.9-3.9-21.8-12.63-21.8-12.63v-8.47c18.23,0,19.73-10.78,19.73-27.13H824v45.87c0,34.39-7.31,45.3-22.84,45.3S781.66,923.73,781.66,910.64Z"/><g class="cls-22"><path class="cls-8" d="M757.06,915.26l36.6,36.19,37.92-20.74L841,868.33l-17-26.87H809.66v22.77c0,23.41-17.22,25.41-28,25.41Z"/><path class="cls-23" d="M774.75,905c6.93,5.65,29.77,4.88,33.07-9.77"/></g><path class="cls-10" d="M802.78,855.51c-6.8-9.87-19.65-8.5-23.87-.87C784.55,866,797.9,865.3,802.78,855.51Z"/><g class="cls-24"><path class="cls-8" d="M778.51,851.28a9.12,9.12,0,0,1,10-5A12.2,12.2,0,0,1,782,862.06C778.66,859.75,776.91,854.91,778.51,851.28Z"/></g><path class="cls-14" d="M779.59,841.41c0-14.45,0-36.66,20.06-36.66,23.38,0,24.38,22,24.38,36.66Z"/><circle class="cls-14" cx="800.24" cy="798.28" r="6.29"/><path class="cls-8" d="M753.44,808.21c13.78-8.94,26.15,19.26,26.15,33.2C761.32,841.41,739.66,817.15,753.44,808.21Z"/><path class="cls-3" d="M698.92,998.84a9,9,0,0,1,.86-6.6c-5.13-5-5.13-11.52-1.83-12.41a7.1,7.1,0,0,1-1.83-5,7.27,7.27,0,0,1,2-5c-1.56-1.77-3.17-3.64-3.43-6.09a4.32,4.32,0,0,1,1.2-3.63c2.06-2,5.11-.78,7.4.59,7.31,4.38,13.4,10.38,20.31,15.38a40.25,40.25,0,0,0,23.46,7.51h37.72l8.29,26.42a13.34,13.34,0,0,1,.6,3.91,13,13,0,0,1-13,13H761C715.16,1026.91,700.57,1005.35,698.92,998.84Z"/><g class="cls-25"><path class="cls-5" d="M733.68,993c-13.63-3.89-35-18.1-40.63-26.66"/><path class="cls-5" d="M733.68,1001.47c-13.86-3-34.49-16.27-39.55-24"/><path class="cls-5" d="M733.68,1010.17c-17.33-2.89-31.32-12.38-37.41-18.76"/></g><line class="cls-5" x1="777.11" y1="958.08" x2="784.77" y2="983.59"/><path class="cls-4" d="M404.93,317.17a30.34,30.34,0,0,0,11.26,5.21c4.09.78,8.62.11,11.83-2.54a9.72,9.72,0,0,0,2.42-11.41c11.17,10.69,23,21.71,38.23,24.17,4.79.77,9.94.63,14.18-1.75s7.64-8.17,6.47-12.88a23.86,23.86,0,0,0,13.22,5.27c4.77.22,9.83-1.66,12.77-5.48,3.15-4,3.57-9.66,2-14.47s-4.91-8.88-8.7-12.23a32.77,32.77,0,0,0-13.7-7.6,19.82,19.82,0,0,0-15.23,2.18c-2.39-6.33-6.49-11.28-11.79-15.54s-12.43-6.52-19-4.92-12.15,7.56-12.28,14.32a50.15,50.15,0,0,0-17-16.31c-6.78-4-15.05-5.71-22.66-3.76s-14.32,7.9-16.21,15.53c-1.3,5.12-.36,10.62,1.7,15.48C386.83,300.8,395.61,310.81,404.93,317.17Z"/><path class="cls-4" d="M692.15,243.87c-14-8.27-31.25-11.86-46.84-7.27s-28.81,18.18-30.65,34.33c-1,8.71,1.12,17.66,5.13,25.51S630,312,636.2,318.29c-2.81,9.93-1.19,20.82,3.3,30.11s11.7,17.08,19.9,23.34c4.94,3.77,10.38,7.07,16.39,8.61s13.14,1.62,18.43-1.64a75.09,75.09,0,0,0,34.92,28.6c5.82,2.32,12.16,3.91,18.33,2.82s12.25-5.35,13.71-11.44c6.47,5,13,10.14,20.47,13.46s16.12,4.75,23.9,2.21,14.39-9.17,14.65-17.35a72.83,72.83,0,0,0,31,22.81c5.72,2.21,12,3.68,17.94,2,7.59-2.12,13.88-9.23,13.51-17.12,5.17,5.58,11.58,10.31,19,11.82s15.9-.79,20.34-6.92a19.77,19.77,0,0,0,3-14.88,33.29,33.29,0,0,0-6.55-14,31.15,31.15,0,0,0-10.13-9.08A17.67,17.67,0,0,0,895,370.08c-6.89-12.51-16.41-24.27-28.89-31.17s-29.48-7.27-40.15,2.32c-6.3-13.12-12.67-24.58-22-35.76s-21.36-20.55-35.24-24.92-29.86-3.25-42,4.82C720.9,269,707.08,252.73,692.15,243.87Z"/><circle class="cls-8" cx="734.35" cy="697.04" r="2.02"/><circle class="cls-8" cx="708.98" cy="708.88" r="2.02"/><circle class="cls-8" cx="704.88" cy="741.67" r="2.02"/><circle class="cls-8" cx="513.06" cy="548.71" r="2.02"/><circle class="cls-8" cx="479.95" cy="569.02" r="2.02"/><circle class="cls-8" cx="487.65" cy="605.7" r="2.02"/></g></svg>