<svg width="115" height="19" viewBox="0 0 115 19" fill="none" xmlns="http://www.w3.org/2000/svg">
<g clip-path="url(#clip0_2_1107)">
<path fill-rule="evenodd" clip-rule="evenodd" d="M105.899 6.44755H104.093L104.093 6.43808L104.093 6.4286C103.844 5.60096 100.88 1.56799 95.7063 1.56799V0C98.3211 0 100.406 0.847642 101.917 1.79413L101.914 1.79416C103.835 3.09873 104.91 5.14338 104.91 5.14338V5.1433H105.067V4.49413C105.067 4.4941 105.067 4.49407 105.068 4.49404V5.14338C105.068 5.14338 106.034 3.30595 107.771 2.0034C109.298 0.981184 111.48 0.0131303 114.286 0.0131303V1.58112C109.115 1.56889 106.151 5.5978 105.899 6.42803L105.899 6.44755Z" fill="black"/>
<path d="M8.4295 14.9775C8.4295 13.9489 7.48333 13.7733 5.70568 13.4973C3.06788 13.0959 2.13605 12.8199 1.5196 12.268C1.00351 11.8415 0.73113 11.2143 0.73113 10.3739C0.73113 8.41702 2.56612 7.125 5.17526 7.125C7.81306 7.125 9.61938 8.30413 10.0925 10.3613L8.35782 10.7126C8.04243 9.27001 6.92423 8.49229 5.17526 8.49229C3.61264 8.49229 2.5948 9.13202 2.5948 10.2359C2.5948 11.2645 3.46929 11.5906 5.30428 11.8666C7.98509 12.3056 8.84524 12.4436 9.57638 13.0708C10.0781 13.4848 10.3218 14.1245 10.3218 14.8771C10.3218 16.8716 8.41517 18.2264 5.54799 18.2264C2.45144 18.2264 0.501756 17.0723 0 14.9022L1.84933 14.5259C2.26507 16.0688 3.44061 16.8214 5.591 16.8214C7.36865 16.8214 8.4295 16.119 8.4295 14.9775Z" fill="black"/>
<path d="M17.8196 7.1123C19.8553 7.1123 21.4466 7.95275 22.3068 9.45801C22.8372 10.3988 23.1239 11.5779 23.1239 13.0079H14.121C14.2357 15.3411 15.7123 16.8087 18.006 16.8087C19.8123 16.8087 20.9305 16.0812 21.633 14.4756L23.2816 14.9773C22.3784 17.0847 20.4861 18.2513 17.9487 18.2513C14.3647 18.2513 12.0996 16.0687 12.0996 12.6818C12.1283 9.40784 14.4937 7.1123 17.8196 7.1123ZM14.164 11.8163H21.1025C21.0595 11.0887 20.9305 10.6121 20.6868 10.1605C20.1564 9.13187 19.1242 8.54231 17.791 8.54231C15.7553 8.54231 14.4077 9.78416 14.164 11.8163Z" fill="black"/>
<path d="M33.0441 15.7677H32.9724C32.27 17.2856 30.8507 18.264 28.7577 18.264C26.4783 18.264 25.0447 17.1601 25.0447 15.3162C25.0447 14.3628 25.3887 13.5851 26.1629 13.0081C26.808 12.544 27.7972 12.2178 29.1734 12.0297L30.9367 11.7788C32.528 11.553 33.0584 11.1516 33.0584 10.3362C33.0584 9.23238 32.1123 8.52992 30.564 8.52992C28.8724 8.52992 27.8115 9.25746 27.2954 10.976L25.4461 10.6373C26.1629 8.36685 27.9835 7.125 30.564 7.125C33.3308 7.125 34.9651 8.44211 34.9651 10.9634V15.3789C34.9651 16.4451 35.3378 16.8089 36.3987 16.8089C36.6281 16.8089 36.7858 16.7963 36.9435 16.7713V18.0131C36.7141 18.1135 36.198 18.1636 35.7393 18.1636C33.9759 18.1636 33.0298 17.3985 33.0298 15.8556V15.7677H33.0441ZM29.3885 16.9469C31.6679 16.9469 33.1014 15.3663 33.1014 13.0206V12.2178C32.7574 12.4938 32.1266 12.6694 31.1374 12.8325L29.5318 13.0959C27.7685 13.3719 27.066 13.9238 27.066 15.1029C27.066 16.2821 27.9549 16.9469 29.3885 16.9469Z" fill="black"/>
<path d="M45.0721 18.2641C43.0508 18.2641 41.5885 17.3609 40.843 15.7428H40.757V18.0132H38.8503V2.68457H40.8287V9.65898H40.886C41.6888 8.07845 43.1654 7.10002 45.1151 7.10002C48.097 7.10002 50.0753 9.25758 50.0753 12.6444C50.0753 16.0313 48.0396 18.2641 45.0721 18.2641ZM40.7857 12.6821C40.7857 15.2034 42.2479 16.7839 44.5417 16.7839C46.7494 16.7839 48.0396 15.2786 48.0396 12.6695C48.0396 10.1482 46.6921 8.59275 44.5417 8.59275C42.2049 8.5802 40.7857 10.098 40.7857 12.6821Z" fill="black"/>
<path d="M57.7165 7.1123C61.1284 7.1123 63.3648 9.18205 63.3648 12.6442C63.3648 16.2317 61.0997 18.2638 57.6448 18.2638C54.2328 18.2638 51.9678 16.2317 51.9678 12.6943C51.9678 9.26986 54.2902 7.1123 57.7165 7.1123ZM57.7165 8.57994C55.351 8.57994 54.0035 10.0099 54.0035 12.6442C54.0035 15.2784 55.3654 16.7837 57.7021 16.7837C60.0676 16.7837 61.3721 15.3787 61.3721 12.6818C61.3721 10.0852 59.9959 8.57994 57.7165 8.57994Z" fill="black"/>
<path d="M74.2886 10.2356C74.2886 10.6496 74.2169 11.2893 74.0879 11.7534L72.2529 11.9667C72.3675 11.5151 72.4392 10.8628 72.4392 10.4489C72.4392 9.09413 71.7941 8.41676 70.6759 8.41676C68.9843 8.41676 67.9234 10.0851 67.9234 12.7068V18.0254H65.9451V7.33799H67.8804V9.67115H67.9234C68.5685 8.07808 69.7871 7.17492 71.3784 7.17492C73.1704 7.16237 74.2886 8.20352 74.2886 10.2356Z" fill="black"/>
<path d="M78.403 7.33809V9.82179H78.4747C79.3062 8.09073 80.9261 7.1123 82.8328 7.1123C85.5136 7.1123 87.0189 8.59249 87.0189 11.4525V18.013H85.0692V11.8915C85.0692 9.55837 84.1947 8.5674 82.1303 8.5674C79.8796 8.5674 78.4747 10.173 78.4747 12.7947V18.0255H76.4963V7.33809H78.403Z" fill="black"/>
<path d="M95.1473 7.1123C97.183 7.1123 98.7742 7.95275 99.6344 9.45801C100.179 10.3988 100.452 11.5779 100.452 13.0079H91.4486C91.5633 15.3411 93.0399 16.8087 95.3336 16.8087C97.14 16.8087 98.2582 16.0812 98.9606 14.4756L100.609 14.9773C99.7061 17.0847 97.8137 18.2513 95.2763 18.2513C91.6923 18.2513 89.4272 16.0687 89.4272 12.6818C89.4559 9.40784 91.8213 7.1123 95.1473 7.1123ZM91.4916 11.8163H98.4302C98.3872 11.0887 98.2582 10.6121 98.0288 10.1605C97.484 9.13187 96.4518 8.54231 95.1329 8.54231C93.0829 8.54231 91.7353 9.78416 91.4916 11.8163Z" fill="black"/>
<path d="M78.4748 9.49609H78.4031V9.80969H78.4748V9.49609Z" fill="black"/>
</g>
<defs>
<clipPath id="clip0_2_1107">
<rect width="114.286" height="18.2639" fill="white"/>
</clipPath>
</defs>
</svg>
