<svg width="12" height="5" viewBox="0 0 12 5" fill="none" xmlns="http://www.w3.org/2000/svg">
<path d="M5.5785 4.58787C5.50751 4.10867 3.66171 1.10925 0.378326 1.10925V0C2.50809 0 4.06992 1.03826 5.00169 1.90791C5.95121 2.79532 6.68776 3.95781 6.68776 4.56124H5.5785C5.56963 4.57012 5.56963 4.57899 5.5785 4.58787Z" fill="#878787"/>
<path d="M6.68005 4.58803C6.68005 4.57915 6.68005 4.57028 6.68005 4.57028H5.5708C5.5708 3.96684 6.31622 2.80435 7.25686 1.91695C8.18864 1.04729 9.74159 0.0090332 11.8802 0.0090332V1.11829C8.59684 1.10941 6.75105 4.10883 6.68005 4.58803Z" fill="#878787"/>
<path d="M6.07693 1.25122V3.63833C6.07693 3.63833 5.41138 2.19187 4.22226 1.26897L6.07693 1.25122Z" fill="white"/>
<path d="M6.17323 1.25122V3.63833C6.17323 3.63833 6.83878 2.19187 8.0279 1.26897L6.17323 1.25122Z" fill="white"/>
<path d="M7.0081 4.56104H5.25992V4.83613H7.0081V4.56104Z" fill="white"/>
<path d="M6.17413 3.08813H6.07651V3.63832H6.17413V3.08813Z" fill="white"/>
</svg>
