<svg width="70" height="70" viewBox="0 0 70 70" fill="none" xmlns="http://www.w3.org/2000/svg">
<path d="M59 36.5V56.5046C59 57.8828 57.8776 59 56.4994 59C38.1547 59 26.8453 59 8.50061 59C7.12243 59 6 57.8828 6 56.5046V23.4954C6 22.1172 7.11723 21 8.49541 21H47.322" stroke="#0B6CFF" stroke-width="2"/>
<path d="M6 38V39.0092C6 41.7655 8.23447 44 10.9908 44H54.8947C57.162 44 59 42.162 59 39.8947V39.8947" stroke="#0B6CFF" stroke-width="2"/>
<path d="M44 21V14.9908C44 12.2345 41.7655 10 39.0092 10H25.9908C23.2345 10 21 12.2345 21 14.9908V21" stroke="#0B6CFF" stroke-width="2"/>
<mask id="path-4-inside-1" fill="white">
<rect x="28" y="37" width="9" height="13" rx="0.623853"/>
</mask>
<rect x="28" y="37" width="9" height="13" rx="0.623853" stroke="#0B6CFF" stroke-width="4" mask="url(#path-4-inside-1)"/>
<path fill-rule="evenodd" clip-rule="evenodd" d="M62.9992 26.3978C62.9997 26.4318 63 26.4659 63 26.5C63 30.0899 60.0899 33 56.5 33C52.9101 33 50 30.0899 50 26.5C50 22.9101 52.9101 20 56.5 20C57.5902 20 58.6162 20.2677 59.5176 20.7412L60.9786 19.2744C59.6779 18.4667 58.1424 18 56.5 18C51.8056 18 48 21.8056 48 26.5C48 31.1944 51.8056 35 56.5 35C61.1944 35 65 31.1944 65 26.5C65 25.8488 64.9266 25.2136 64.7872 24.6027L62.9992 26.3978Z" fill="#0B6CFF"/>
<path d="M54 25L57.0117 28L65 20" stroke="#0B6CFF" stroke-width="2"/>
</svg>
