<svg width="70" height="70" viewBox="0 0 70 70" fill="none" xmlns="http://www.w3.org/2000/svg">
<g clip-path="url(#clip0)">
<path d="M59.0348 35C59.0348 23.852 51.5747 14.4464 41.3744 11.5029" stroke="#0B6CFF" stroke-width="2"/>
<path d="M62.5019 29.0487L59.641 35.1616C59.4432 35.5843 58.8609 35.6323 58.5966 35.2476L54.6536 29.5101" stroke="#0B6CFF" stroke-width="2"/>
<path d="M34.5819 59.453C45.7299 59.453 55.1356 51.9929 58.079 41.7926" stroke="#0B6CFF" stroke-width="2"/>
<path d="M40.5332 62.9201L34.4203 60.0592C33.9976 59.8614 33.9496 59.2792 34.3343 59.0148L40.0718 55.0718" stroke="#0B6CFF" stroke-width="2"/>
<path d="M10.129 35C10.129 46.148 17.5891 55.5536 27.7894 58.4971" stroke="#0B6CFF" stroke-width="2"/>
<path d="M6.66194 40.9513L9.5228 34.8384C9.72066 34.4157 10.3029 34.3677 10.5672 34.7524L14.5103 40.4899" stroke="#0B6CFF" stroke-width="2"/>
<path d="M34.5819 10.5472C23.4339 10.5472 14.0283 18.0073 11.0848 28.2076" stroke="#0B6CFF" stroke-width="2"/>
<path d="M28.6306 7.08015L34.7435 9.94101C35.1662 10.1389 35.2142 10.7211 34.8295 10.9855L29.092 14.9285" stroke="#0B6CFF" stroke-width="2"/>
<path d="M34.5528 34.6056L32 35.882V25H38V35.882L35.4472 34.6056L35 34.382L34.5528 34.6056Z" stroke="#0B6CFF" stroke-width="2"/>
<path d="M26 25H43.5849C44.3664 25 45 25.6336 45 26.4151V30.2857V43.5849C45 44.3664 44.3664 45 43.5849 45H26.4151C25.6336 45 25 44.3664 25 43.5849V30.2857V26C25 25.4477 25.4477 25 26 25Z" stroke="#0B6CFF" stroke-width="2"/>
</g>
<defs>
<clipPath id="clip0">
<rect width="70" height="70" fill="white"/>
</clipPath>
</defs>
</svg>
