<svg width="70" height="70" viewBox="0 0 70 70" fill="none" xmlns="http://www.w3.org/2000/svg">
<path d="M59.1414 36.3327V32.4113V14.8031C59.1414 13.255 57.8864 12 56.3383 12H9.80313C8.25501 12 7 13.255 7 14.8031V51.779C7 53.3271 8.24855 54.5821 9.79668 54.5821C18.4992 54.5821 39.5279 54.5821 43.499 54.5821" stroke="#0B6CFF" stroke-width="2"/>
<path d="M7 22.4282L58.2724 22.4282" stroke="#0B6CFF" stroke-width="2"/>
<circle cx="13.6574" cy="17.6062" r="0.700784" stroke="#0B6CFF" stroke-width="1.40157"/>
<circle cx="18.2126" cy="17.6062" r="0.700784" stroke="#0B6CFF" stroke-width="1.40157"/>
<circle cx="22.4172" cy="17.6062" r="0.700784" stroke="#0B6CFF" stroke-width="1.40157"/>
<mask id="path-6-inside-1" fill="white">
<path fill-rule="evenodd" clip-rule="evenodd" d="M44.8934 36.0564C44.1056 35.785 43.351 36.5397 43.6223 37.3275L49.0636 53.1274C49.3501 53.9592 50.4936 54.0424 50.8975 53.2609L52.75 49.6765L58.2548 55.1812C58.6453 55.5717 59.2785 55.5717 59.669 55.1812L62.5478 52.3024C62.9383 51.9119 62.9383 51.2787 62.5478 50.8882L56.9795 45.32L60.8268 43.3315C61.6084 42.9276 61.5251 41.7841 60.6933 41.4977L44.8934 36.0564Z"/>
</mask>
<path d="M43.6223 37.3275L45.5133 36.6762V36.6762L43.6223 37.3275ZM44.8934 36.0564L44.2422 37.9474H44.2422L44.8934 36.0564ZM49.0636 53.1274L47.1726 53.7787L49.0636 53.1274ZM50.8975 53.2609L49.1207 52.3427L49.1207 52.3427L50.8975 53.2609ZM52.75 49.6765L54.1642 48.2622L52.2295 46.3275L50.9733 48.7582L52.75 49.6765ZM58.2548 55.1812L59.669 53.767L59.669 53.767L58.2548 55.1812ZM59.669 55.1812L58.2548 53.767L58.2548 53.767L59.669 55.1812ZM62.5478 52.3024L61.1336 50.8882L61.1336 50.8882L62.5478 52.3024ZM62.5478 50.8882L61.1336 52.3024L61.1336 52.3024L62.5478 50.8882ZM56.9795 45.32L56.0613 43.5432L53.6306 44.7995L55.5653 46.7342L56.9795 45.32ZM60.8268 43.3315L61.7451 45.1083H61.7451L60.8268 43.3315ZM60.6933 41.4977L61.3446 39.6067V39.6067L60.6933 41.4977ZM45.5133 36.6762C45.7846 37.464 45.03 38.2187 44.2422 37.9474L45.5446 34.1654C43.1812 33.3514 40.9173 35.6153 41.7313 37.9787L45.5133 36.6762ZM50.9546 52.4762L45.5133 36.6762L41.7313 37.9787L47.1726 53.7787L50.9546 52.4762ZM49.1207 52.3427C49.5246 51.5611 50.6681 51.6444 50.9546 52.4762L47.1726 53.7787C48.032 56.274 51.4625 56.5237 52.6742 54.1792L49.1207 52.3427ZM50.9733 48.7582L49.1207 52.3427L52.6742 54.1792L54.5268 50.5947L50.9733 48.7582ZM59.669 53.767L54.1642 48.2622L51.3358 51.0907L56.8406 56.5954L59.669 53.767ZM58.2548 53.767C58.6453 53.3765 59.2785 53.3765 59.669 53.767L56.8406 56.5954C58.0121 57.767 59.9116 57.767 61.0832 56.5954L58.2548 53.767ZM61.1336 50.8882L58.2548 53.767L61.0832 56.5954L63.962 53.7166L61.1336 50.8882ZM61.1336 52.3024C60.743 51.9119 60.743 51.2787 61.1336 50.8882L63.962 53.7166C65.1336 52.5451 65.1336 50.6456 63.962 49.474L61.1336 52.3024ZM55.5653 46.7342L61.1336 52.3024L63.962 49.474L58.3937 43.9057L55.5653 46.7342ZM59.9086 41.5548L56.0613 43.5432L57.8978 47.0967L61.7451 45.1083L59.9086 41.5548ZM60.0421 43.3887C59.2103 43.1022 59.1271 41.9587 59.9086 41.5548L61.7451 45.1083C64.0897 43.8965 63.8399 40.466 61.3446 39.6067L60.0421 43.3887ZM44.2422 37.9474L60.0421 43.3887L61.3446 39.6067L45.5446 34.1654L44.2422 37.9474Z" fill="#0B6CFF" mask="url(#path-6-inside-1)"/>
</svg>
