<svg width="1273" height="742" viewBox="0 0 1273 742" fill="none" xmlns="http://www.w3.org/2000/svg">
<rect width="1273" height="742" fill="white"/>
<path d="M174.651 162.792C173.254 162.792 172.168 162.455 171.395 161.782C170.634 161.108 170.173 160.266 170.01 159.256H171.975C172.137 159.805 172.437 160.248 172.873 160.584C173.322 160.909 173.909 161.071 174.632 161.071C175.48 161.071 176.123 160.859 176.559 160.435C176.996 160.011 177.214 159.468 177.214 158.807C177.214 158.096 176.965 157.553 176.466 157.179C175.979 156.792 175.368 156.599 174.632 156.599H173.416V155.083H174.595C175.281 155.083 175.855 154.915 176.316 154.578C176.79 154.241 177.027 153.724 177.027 153.025C177.027 152.364 176.803 151.84 176.353 151.453C175.917 151.067 175.331 150.873 174.595 150.873C173.909 150.873 173.36 151.042 172.948 151.378C172.549 151.703 172.293 152.133 172.181 152.67H170.291C170.441 151.721 170.859 150.911 171.545 150.237C172.231 149.563 173.254 149.227 174.613 149.227C175.599 149.227 176.416 149.408 177.065 149.769C177.713 150.131 178.187 150.599 178.487 151.173C178.798 151.734 178.954 152.326 178.954 152.95C178.954 153.611 178.805 154.154 178.505 154.578C178.206 155.002 177.882 155.314 177.532 155.514C177.183 155.713 176.952 155.813 176.84 155.813V155.925C177.002 155.95 177.258 156.056 177.607 156.243C177.969 156.418 178.306 156.73 178.618 157.179C178.942 157.628 179.104 158.227 179.104 158.975C179.104 159.661 178.942 160.297 178.618 160.884C178.293 161.458 177.794 161.919 177.121 162.268C176.46 162.618 175.636 162.792 174.651 162.792ZM183.704 162.774C183.354 162.774 183.061 162.655 182.824 162.418C182.6 162.181 182.487 161.894 182.487 161.557C182.487 161.221 182.6 160.94 182.824 160.715C183.061 160.478 183.354 160.36 183.704 160.36C184.053 160.36 184.34 160.478 184.564 160.715C184.801 160.94 184.92 161.221 184.92 161.557C184.92 161.894 184.801 162.181 184.564 162.418C184.34 162.655 184.053 162.774 183.704 162.774ZM196.035 160.921V162.643H189V160.921H191.713V151.865H191.638L188.981 154.335V152.033L191.638 149.545H193.547V160.921H196.035ZM200.862 154.765C200.013 154.765 199.377 154.497 198.953 153.961C198.541 153.424 198.336 152.788 198.336 152.052C198.336 151.316 198.541 150.686 198.953 150.162C199.365 149.626 200.001 149.358 200.862 149.358C201.722 149.358 202.346 149.62 202.733 150.144C203.132 150.667 203.332 151.304 203.332 152.052C203.332 152.8 203.132 153.443 202.733 153.979C202.346 154.503 201.722 154.765 200.862 154.765ZM207.878 149.545H209.544L202.789 162.643H201.124L207.878 149.545ZM200.88 153.642C201.329 153.642 201.629 153.487 201.778 153.175C201.928 152.863 202.003 152.489 202.003 152.052C202.003 150.992 201.629 150.462 200.88 150.462C200.431 150.462 200.126 150.624 199.964 150.948C199.814 151.272 199.739 151.64 199.739 152.052C199.739 152.476 199.82 152.85 199.982 153.175C200.144 153.487 200.444 153.642 200.88 153.642ZM209.843 162.83C208.995 162.83 208.359 162.561 207.934 162.025C207.523 161.489 207.317 160.853 207.317 160.117C207.317 159.393 207.523 158.763 207.934 158.227C208.346 157.69 208.982 157.422 209.843 157.422C210.691 157.422 211.315 157.69 211.714 158.227C212.113 158.751 212.313 159.381 212.313 160.117C212.313 160.853 212.113 161.489 211.714 162.025C211.315 162.561 210.691 162.83 209.843 162.83ZM209.862 161.707C210.311 161.707 210.61 161.557 210.76 161.258C210.91 160.946 210.984 160.566 210.984 160.117C210.984 159.68 210.91 159.306 210.76 158.994C210.623 158.682 210.323 158.526 209.862 158.526C209.425 158.526 209.126 158.688 208.964 159.013C208.814 159.324 208.739 159.692 208.739 160.117C208.739 161.177 209.113 161.707 209.862 161.707Z" fill="#24245B"/>
<path d="M1064.95 156.636L1064.89 156.599L1064.58 156.917C1063.9 157.591 1063.06 157.927 1062.05 157.927C1061.26 157.927 1060.57 157.753 1059.95 157.403C1059.34 157.042 1058.86 156.543 1058.51 155.907C1058.18 155.258 1058.01 154.516 1058.01 153.68C1058.01 152.757 1058.21 151.965 1058.61 151.304C1059.02 150.63 1059.57 150.125 1060.25 149.788C1060.94 149.451 1061.69 149.283 1062.52 149.283C1063.3 149.283 1064.05 149.451 1064.74 149.788C1065.44 150.112 1066.01 150.624 1066.45 151.322C1066.9 152.008 1067.12 152.863 1067.12 153.886C1067.12 154.622 1067.01 155.327 1066.8 156C1066.59 156.661 1066.32 157.272 1066 157.834C1065.69 158.383 1065.28 159.025 1064.78 159.761L1062.89 162.643L1060.78 162.661L1064.95 156.636ZM1062.59 156.468C1063.42 156.468 1064.06 156.2 1064.54 155.663C1065.01 155.114 1065.25 154.453 1065.25 153.68C1065.25 153.181 1065.14 152.719 1064.93 152.295C1064.72 151.871 1064.41 151.528 1064.01 151.266C1063.62 151.004 1063.14 150.873 1062.59 150.873C1062.02 150.873 1061.53 151.004 1061.11 151.266C1060.7 151.528 1060.39 151.871 1060.18 152.295C1059.98 152.719 1059.88 153.175 1059.88 153.661C1059.88 154.135 1059.98 154.591 1060.18 155.027C1060.39 155.451 1060.7 155.801 1061.11 156.075C1061.53 156.337 1062.02 156.468 1062.59 156.468ZM1071.72 162.774C1071.37 162.774 1071.08 162.655 1070.84 162.418C1070.62 162.181 1070.5 161.894 1070.5 161.557C1070.5 161.221 1070.62 160.94 1070.84 160.715C1071.08 160.478 1071.37 160.36 1071.72 160.36C1072.07 160.36 1072.36 160.478 1072.58 160.715C1072.82 160.94 1072.94 161.221 1072.94 161.557C1072.94 161.894 1072.82 162.181 1072.58 162.418C1072.36 162.655 1072.07 162.774 1071.72 162.774ZM1081.04 162.848C1079.43 162.848 1078.23 162.306 1077.43 161.221C1076.63 160.123 1076.23 158.701 1076.23 156.954V155.139C1076.23 153.393 1076.63 151.983 1077.43 150.911C1078.23 149.825 1079.43 149.283 1081.04 149.283C1082.65 149.283 1083.85 149.825 1084.65 150.911C1085.45 151.983 1085.85 153.393 1085.85 155.139V156.954C1085.85 158.701 1085.45 160.123 1084.65 161.221C1083.85 162.306 1082.65 162.848 1081.04 162.848ZM1081.04 161.164C1081.93 161.164 1082.59 160.809 1083.04 160.098C1083.49 159.387 1083.72 158.339 1083.72 156.954V155.158C1083.72 152.376 1082.82 150.986 1081.04 150.986C1079.26 150.986 1078.36 152.376 1078.36 155.158V156.954C1078.36 158.339 1078.59 159.387 1079.04 160.098C1079.49 160.809 1080.15 161.164 1081.04 161.164ZM1090.89 154.765C1090.04 154.765 1089.4 154.497 1088.98 153.961C1088.57 153.424 1088.36 152.788 1088.36 152.052C1088.36 151.316 1088.57 150.686 1088.98 150.162C1089.39 149.626 1090.03 149.358 1090.89 149.358C1091.75 149.358 1092.37 149.62 1092.76 150.144C1093.16 150.667 1093.36 151.304 1093.36 152.052C1093.36 152.8 1093.16 153.443 1092.76 153.979C1092.37 154.503 1091.75 154.765 1090.89 154.765ZM1097.91 149.545H1099.57L1092.82 162.643H1091.15L1097.91 149.545ZM1090.91 153.642C1091.36 153.642 1091.66 153.487 1091.81 153.175C1091.96 152.863 1092.03 152.489 1092.03 152.052C1092.03 150.992 1091.66 150.462 1090.91 150.462C1090.46 150.462 1090.15 150.624 1089.99 150.948C1089.84 151.272 1089.77 151.64 1089.77 152.052C1089.77 152.476 1089.85 152.85 1090.01 153.175C1090.17 153.487 1090.47 153.642 1090.91 153.642ZM1099.87 162.83C1099.02 162.83 1098.39 162.561 1097.96 162.025C1097.55 161.489 1097.34 160.853 1097.34 160.117C1097.34 159.393 1097.55 158.763 1097.96 158.227C1098.37 157.69 1099.01 157.422 1099.87 157.422C1100.72 157.422 1101.34 157.69 1101.74 158.227C1102.14 158.751 1102.34 159.381 1102.34 160.117C1102.34 160.853 1102.14 161.489 1101.74 162.025C1101.34 162.561 1100.72 162.83 1099.87 162.83ZM1099.89 161.707C1100.34 161.707 1100.64 161.557 1100.79 161.258C1100.94 160.946 1101.01 160.566 1101.01 160.117C1101.01 159.68 1100.94 159.306 1100.79 158.994C1100.65 158.682 1100.35 158.526 1099.89 158.526C1099.45 158.526 1099.15 158.688 1098.99 159.013C1098.84 159.324 1098.77 159.692 1098.77 160.117C1098.77 161.177 1099.14 161.707 1099.89 161.707Z" fill="#24245B"/>
<path d="M1063.84 233.508L1057.91 233.49V231.862L1063.32 223.61H1065.75V231.974H1067.55V233.508H1065.75V236.708H1063.84V233.508ZM1063.86 231.955V225.912L1059.8 231.955H1063.86ZM1072.1 236.839C1071.76 236.839 1071.46 236.72 1071.23 236.483C1071 236.246 1070.89 235.96 1070.89 235.623C1070.89 235.286 1071 235.005 1071.23 234.781C1071.46 234.544 1071.76 234.425 1072.1 234.425C1072.45 234.425 1072.74 234.544 1072.97 234.781C1073.2 235.005 1073.32 235.286 1073.32 235.623C1073.32 235.96 1073.2 236.246 1072.97 236.483C1072.74 236.72 1072.45 236.839 1072.1 236.839ZM1081.52 236.802C1080.64 236.802 1079.88 236.633 1079.23 236.296C1078.59 235.96 1078.07 235.517 1077.7 234.968C1077.33 234.419 1077.09 233.826 1076.99 233.19H1078.94C1079.1 233.814 1079.42 234.282 1079.89 234.594C1080.36 234.905 1080.9 235.061 1081.5 235.061C1082.33 235.061 1082.98 234.799 1083.43 234.276C1083.89 233.739 1084.12 233.034 1084.12 232.161C1084.12 231.251 1083.87 230.552 1083.37 230.066C1082.88 229.579 1082.25 229.336 1081.48 229.336C1080.72 229.336 1080.17 229.504 1079.83 229.841C1079.51 230.178 1079.28 230.515 1079.14 230.851L1077.16 230.777L1077.51 223.61H1085.19V225.388H1079.12L1078.92 229.28H1079.01C1079.19 228.993 1079.5 228.693 1079.95 228.382C1080.4 228.057 1081.06 227.895 1081.93 227.895C1082.74 227.895 1083.46 228.07 1084.08 228.419C1084.7 228.756 1085.19 229.248 1085.52 229.897C1085.87 230.546 1086.05 231.307 1086.05 232.18C1086.05 233.041 1085.86 233.82 1085.5 234.519C1085.15 235.217 1084.64 235.772 1083.95 236.184C1083.28 236.596 1082.47 236.802 1081.52 236.802ZM1091.11 228.831C1090.26 228.831 1089.62 228.562 1089.2 228.026C1088.79 227.49 1088.58 226.853 1088.58 226.117C1088.58 225.382 1088.79 224.752 1089.2 224.228C1089.61 223.691 1090.25 223.423 1091.11 223.423C1091.97 223.423 1092.59 223.685 1092.98 224.209C1093.38 224.733 1093.58 225.369 1093.58 226.117C1093.58 226.866 1093.38 227.508 1092.98 228.045C1092.59 228.569 1091.97 228.831 1091.11 228.831ZM1098.13 223.61H1099.79L1093.04 236.708H1091.37L1098.13 223.61ZM1091.13 227.708C1091.58 227.708 1091.88 227.552 1092.03 227.24C1092.17 226.928 1092.25 226.554 1092.25 226.117C1092.25 225.057 1091.88 224.527 1091.13 224.527C1090.68 224.527 1090.37 224.689 1090.21 225.014C1090.06 225.338 1089.99 225.706 1089.99 226.117C1089.99 226.542 1090.07 226.916 1090.23 227.24C1090.39 227.552 1090.69 227.708 1091.13 227.708ZM1100.09 236.895C1099.24 236.895 1098.61 236.627 1098.18 236.091C1097.77 235.554 1097.56 234.918 1097.56 234.182C1097.56 233.458 1097.77 232.829 1098.18 232.292C1098.59 231.756 1099.23 231.488 1100.09 231.488C1100.94 231.488 1101.56 231.756 1101.96 232.292C1102.36 232.816 1102.56 233.446 1102.56 234.182C1102.56 234.918 1102.36 235.554 1101.96 236.091C1101.56 236.627 1100.94 236.895 1100.09 236.895ZM1100.11 235.772C1100.56 235.772 1100.86 235.623 1101.01 235.323C1101.16 235.012 1101.23 234.631 1101.23 234.182C1101.23 233.745 1101.16 233.371 1101.01 233.059C1100.87 232.747 1100.57 232.592 1100.11 232.592C1099.67 232.592 1099.37 232.754 1099.21 233.078C1099.06 233.39 1098.99 233.758 1098.99 234.182C1098.99 235.242 1099.36 235.772 1100.11 235.772Z" fill="#24245B"/>
<path d="M1050.28 481.662C1048.88 481.662 1047.79 481.326 1047.02 480.652C1046.26 479.978 1045.8 479.136 1045.64 478.126H1047.6C1047.76 478.675 1048.06 479.118 1048.5 479.454C1048.95 479.779 1049.53 479.941 1050.26 479.941C1051.11 479.941 1051.75 479.729 1052.18 479.305C1052.62 478.881 1052.84 478.338 1052.84 477.677C1052.84 476.966 1052.59 476.423 1052.09 476.049C1051.6 475.662 1050.99 475.469 1050.26 475.469H1049.04V473.953H1050.22C1050.91 473.953 1051.48 473.785 1051.94 473.448C1052.42 473.111 1052.65 472.594 1052.65 471.895C1052.65 471.234 1052.43 470.71 1051.98 470.323C1051.54 469.937 1050.96 469.743 1050.22 469.743C1049.53 469.743 1048.98 469.912 1048.57 470.249C1048.17 470.573 1047.92 471.003 1047.81 471.54H1045.92C1046.07 470.592 1046.48 469.781 1047.17 469.107C1047.86 468.434 1048.88 468.097 1050.24 468.097C1051.22 468.097 1052.04 468.278 1052.69 468.639C1053.34 469.001 1053.81 469.469 1054.11 470.043C1054.42 470.604 1054.58 471.197 1054.58 471.82C1054.58 472.481 1054.43 473.024 1054.13 473.448C1053.83 473.872 1053.51 474.184 1053.16 474.384C1052.81 474.583 1052.58 474.683 1052.46 474.683V474.795C1052.63 474.82 1052.88 474.926 1053.23 475.113C1053.59 475.288 1053.93 475.6 1054.24 476.049C1054.57 476.498 1054.73 477.097 1054.73 477.845C1054.73 478.531 1054.57 479.168 1054.24 479.754C1053.92 480.328 1053.42 480.789 1052.75 481.138C1052.08 481.488 1051.26 481.662 1050.28 481.662ZM1062.27 481.662C1060.87 481.662 1059.78 481.326 1059.01 480.652C1058.25 479.978 1057.79 479.136 1057.63 478.126H1059.59C1059.75 478.675 1060.05 479.118 1060.49 479.454C1060.94 479.779 1061.52 479.941 1062.25 479.941C1063.1 479.941 1063.74 479.729 1064.17 479.305C1064.61 478.881 1064.83 478.338 1064.83 477.677C1064.83 476.966 1064.58 476.423 1064.08 476.049C1063.59 475.662 1062.98 475.469 1062.25 475.469H1061.03V473.953H1062.21C1062.9 473.953 1063.47 473.785 1063.93 473.448C1064.41 473.111 1064.64 472.594 1064.64 471.895C1064.64 471.234 1064.42 470.71 1063.97 470.323C1063.53 469.937 1062.95 469.743 1062.21 469.743C1061.52 469.743 1060.98 469.912 1060.56 470.249C1060.16 470.573 1059.91 471.003 1059.8 471.54H1057.91C1058.06 470.592 1058.47 469.781 1059.16 469.107C1059.85 468.434 1060.87 468.097 1062.23 468.097C1063.21 468.097 1064.03 468.278 1064.68 468.639C1065.33 469.001 1065.8 469.469 1066.1 470.043C1066.41 470.604 1066.57 471.197 1066.57 471.82C1066.57 472.481 1066.42 473.024 1066.12 473.448C1065.82 473.872 1065.5 474.184 1065.15 474.384C1064.8 474.583 1064.57 474.683 1064.46 474.683V474.795C1064.62 474.82 1064.87 474.926 1065.22 475.113C1065.58 475.288 1065.92 475.6 1066.23 476.049C1066.56 476.498 1066.72 477.097 1066.72 477.845C1066.72 478.531 1066.56 479.168 1066.23 479.754C1065.91 480.328 1065.41 480.789 1064.74 481.138C1064.08 481.488 1063.25 481.662 1062.27 481.662ZM1071.32 481.644C1070.97 481.644 1070.68 481.525 1070.44 481.288C1070.22 481.051 1070.1 480.764 1070.1 480.427C1070.1 480.091 1070.22 479.81 1070.44 479.585C1070.68 479.348 1070.97 479.23 1071.32 479.23C1071.67 479.23 1071.96 479.348 1072.18 479.585C1072.42 479.81 1072.54 480.091 1072.54 480.427C1072.54 480.764 1072.42 481.051 1072.18 481.288C1071.96 481.525 1071.67 481.644 1071.32 481.644ZM1081.69 478.313L1075.75 478.294V476.666L1081.16 468.415H1083.59V476.779H1085.39V478.313H1083.59V481.513H1081.69V478.313ZM1081.71 476.76V470.716L1077.64 476.76H1081.71ZM1090.41 473.635C1089.57 473.635 1088.93 473.367 1088.51 472.831C1088.09 472.294 1087.89 471.658 1087.89 470.922C1087.89 470.186 1088.09 469.556 1088.51 469.032C1088.92 468.496 1089.55 468.228 1090.41 468.228C1091.27 468.228 1091.9 468.49 1092.29 469.014C1092.68 469.538 1092.88 470.174 1092.88 470.922C1092.88 471.671 1092.68 472.313 1092.29 472.849C1091.9 473.373 1091.27 473.635 1090.41 473.635ZM1097.43 468.415H1099.1L1092.34 481.513H1090.68L1097.43 468.415ZM1090.43 472.513C1090.88 472.513 1091.18 472.357 1091.33 472.045C1091.48 471.733 1091.56 471.359 1091.56 470.922C1091.56 469.862 1091.18 469.332 1090.43 469.332C1089.98 469.332 1089.68 469.494 1089.52 469.818C1089.37 470.143 1089.29 470.511 1089.29 470.922C1089.29 471.346 1089.37 471.721 1089.53 472.045C1089.7 472.357 1090 472.513 1090.43 472.513ZM1099.4 481.7C1098.55 481.7 1097.91 481.432 1097.49 480.895C1097.08 480.359 1096.87 479.723 1096.87 478.987C1096.87 478.263 1097.08 477.633 1097.49 477.097C1097.9 476.56 1098.53 476.292 1099.4 476.292C1100.24 476.292 1100.87 476.56 1101.27 477.097C1101.67 477.621 1101.87 478.251 1101.87 478.987C1101.87 479.723 1101.67 480.359 1101.27 480.895C1100.87 481.432 1100.24 481.7 1099.4 481.7ZM1099.41 480.577C1099.86 480.577 1100.16 480.427 1100.31 480.128C1100.46 479.816 1100.54 479.436 1100.54 478.987C1100.54 478.55 1100.46 478.176 1100.31 477.864C1100.18 477.552 1099.88 477.396 1099.41 477.396C1098.98 477.396 1098.68 477.558 1098.52 477.883C1098.37 478.195 1098.29 478.563 1098.29 478.987C1098.29 480.047 1098.67 480.577 1099.41 480.577Z" fill="#24245B"/>
<path d="M174.782 448.082C173.909 448.082 173.148 447.913 172.499 447.577C171.85 447.24 171.339 446.797 170.965 446.248C170.59 445.699 170.353 445.107 170.254 444.471H172.2C172.362 445.094 172.68 445.562 173.154 445.874C173.628 446.186 174.164 446.342 174.763 446.342C175.599 446.342 176.241 446.08 176.69 445.556C177.152 445.019 177.383 444.315 177.383 443.441C177.383 442.531 177.133 441.832 176.634 441.346C176.148 440.859 175.518 440.616 174.744 440.616C173.983 440.616 173.435 440.784 173.098 441.121C172.773 441.458 172.543 441.795 172.405 442.132L170.422 442.057L170.778 434.89H178.449V436.668H172.387L172.181 440.56H172.274C172.449 440.273 172.761 439.974 173.21 439.662C173.659 439.337 174.32 439.175 175.193 439.175C176.004 439.175 176.721 439.35 177.345 439.699C177.969 440.036 178.449 440.529 178.786 441.177C179.135 441.826 179.31 442.587 179.31 443.46C179.31 444.321 179.129 445.101 178.767 445.799C178.418 446.498 177.9 447.053 177.214 447.464C176.541 447.876 175.73 448.082 174.782 448.082ZM186.88 448.194C185.271 448.194 184.067 447.651 183.268 446.566C182.47 445.469 182.071 444.046 182.071 442.3V440.485C182.071 438.739 182.47 437.329 183.268 436.256C184.067 435.171 185.271 434.628 186.88 434.628C188.489 434.628 189.693 435.171 190.491 436.256C191.289 437.329 191.688 438.739 191.688 440.485V442.3C191.688 444.046 191.289 445.469 190.491 446.566C189.693 447.651 188.489 448.194 186.88 448.194ZM186.88 446.51C187.765 446.51 188.433 446.155 188.882 445.444C189.331 444.733 189.555 443.685 189.555 442.3V440.504C189.555 437.722 188.664 436.331 186.88 436.331C185.096 436.331 184.204 437.722 184.204 440.504V442.3C184.204 443.685 184.429 444.733 184.878 445.444C185.327 446.155 185.994 446.51 186.88 446.51ZM196.261 448.119C195.911 448.119 195.618 448.001 195.381 447.764C195.157 447.527 195.044 447.24 195.044 446.903C195.044 446.566 195.157 446.286 195.381 446.061C195.618 445.824 195.911 445.706 196.261 445.706C196.61 445.706 196.897 445.824 197.121 446.061C197.358 446.286 197.477 446.566 197.477 446.903C197.477 447.24 197.358 447.527 197.121 447.764C196.897 448.001 196.61 448.119 196.261 448.119ZM205.58 448.194C203.971 448.194 202.767 447.651 201.969 446.566C201.17 445.469 200.771 444.046 200.771 442.3V440.485C200.771 438.739 201.17 437.329 201.969 436.256C202.767 435.171 203.971 434.628 205.58 434.628C207.189 434.628 208.393 435.171 209.191 436.256C209.99 437.329 210.389 438.739 210.389 440.485V442.3C210.389 444.046 209.99 445.469 209.191 446.566C208.393 447.651 207.189 448.194 205.58 448.194ZM205.58 446.51C206.466 446.51 207.133 446.155 207.582 445.444C208.031 444.733 208.256 443.685 208.256 442.3V440.504C208.256 437.722 207.364 436.331 205.58 436.331C203.796 436.331 202.904 437.722 202.904 440.504V442.3C202.904 443.685 203.129 444.733 203.578 445.444C204.027 446.155 204.694 446.51 205.58 446.51ZM215.429 440.111C214.58 440.111 213.944 439.843 213.52 439.306C213.108 438.77 212.903 438.134 212.903 437.398C212.903 436.662 213.108 436.032 213.52 435.508C213.932 434.972 214.568 434.703 215.429 434.703C216.289 434.703 216.913 434.965 217.3 435.489C217.699 436.013 217.898 436.649 217.898 437.398C217.898 438.146 217.699 438.789 217.3 439.325C216.913 439.849 216.289 440.111 215.429 440.111ZM222.445 434.89H224.111L217.356 447.988H215.691L222.445 434.89ZM215.447 438.988C215.896 438.988 216.196 438.832 216.345 438.52C216.495 438.209 216.57 437.834 216.57 437.398C216.57 436.337 216.196 435.807 215.447 435.807C214.998 435.807 214.693 435.969 214.53 436.294C214.381 436.618 214.306 436.986 214.306 437.398C214.306 437.822 214.387 438.196 214.549 438.52C214.711 438.832 215.011 438.988 215.447 438.988ZM224.41 448.175C223.562 448.175 222.926 447.907 222.501 447.371C222.09 446.834 221.884 446.198 221.884 445.462C221.884 444.739 222.09 444.109 222.501 443.572C222.913 443.036 223.549 442.768 224.41 442.768C225.258 442.768 225.882 443.036 226.281 443.572C226.68 444.096 226.88 444.726 226.88 445.462C226.88 446.198 226.68 446.834 226.281 447.371C225.882 447.907 225.258 448.175 224.41 448.175ZM224.429 447.053C224.878 447.053 225.177 446.903 225.327 446.604C225.476 446.292 225.551 445.911 225.551 445.462C225.551 445.026 225.476 444.651 225.327 444.34C225.19 444.028 224.89 443.872 224.429 443.872C223.992 443.872 223.693 444.034 223.531 444.358C223.381 444.67 223.306 445.038 223.306 445.462C223.306 446.523 223.68 447.053 224.429 447.053Z" fill="#24245B"/>
<path d="M663.287 114.653C712.802 114.653 761.29 128.775 803.062 155.361L663.287 374.973V114.653Z" fill="#C57DBA"/>
<path d="M803.062 155.361C823.883 168.613 842.714 184.759 858.989 203.313L663.287 374.973L803.062 155.361Z" fill="#EA9887"/>
<path d="M858.989 203.313C920.394 273.319 939.729 370.793 909.694 458.937C879.659 547.08 804.828 612.467 713.454 630.413L663.287 374.973L858.989 203.313Z" fill="#ABC3A1"/>
<path d="M613.68 119.424C630.025 116.251 646.636 114.653 663.287 114.653V374.973L613.68 119.424Z" fill="#AEC6F8"/>
<path d="M713.454 630.413C622.128 648.348 528.173 616.163 467.029 545.995C405.884 475.827 386.851 378.354 417.11 290.339C447.369 202.324 522.315 137.16 613.681 119.424L663.288 374.973L713.454 630.413Z" fill="#006CFF"/>
<path d="M169 137.186H338.18L638.339 137.186" stroke="#24245B" stroke-width="1.55927" stroke-miterlimit="10"/>
<path d="M169 422.53H338.18H433.296" stroke="#24245B" stroke-width="1.55927" stroke-miterlimit="10"/>
<path d="M641.458 137.185C641.458 135.463 640.062 134.066 638.339 134.066C636.617 134.066 635.221 135.463 635.221 137.185C635.221 138.907 636.617 140.303 638.339 140.303C640.062 140.303 641.458 138.907 641.458 137.185Z" fill="#24245B"/>
<path d="M436.414 422.366C436.414 420.643 435.018 419.247 433.295 419.247C431.573 419.247 430.177 420.643 430.177 422.366C430.177 424.088 431.573 425.484 433.295 425.484C435.018 425.484 436.414 424.088 436.414 422.366Z" fill="#24245B"/>
<path d="M1102.14 138.822H932.962L732.438 137.534" stroke="#24245B" stroke-width="1.55927" stroke-miterlimit="10"/>
<path d="M735.557 137.535C735.557 135.812 734.161 134.416 732.439 134.416C730.716 134.416 729.32 135.812 729.32 137.535C729.32 139.257 730.716 140.653 732.439 140.653C734.161 140.653 735.557 139.257 735.557 137.535Z" fill="#24245B"/>
<path d="M1102.14 210.057H932.962H824.258" stroke="#24245B" stroke-width="1.55927" stroke-miterlimit="10"/>
<path d="M827.377 210.056C827.377 208.334 825.98 206.938 824.258 206.938C822.536 206.938 821.14 208.334 821.14 210.056C821.14 211.778 822.536 213.175 824.258 213.175C825.98 213.175 827.377 211.778 827.377 210.056Z" fill="#24245B"/>
<path d="M1102.22 454.496L925.727 454.496L888.601 454.496" stroke="#24245B" stroke-width="1.55927" stroke-miterlimit="10"/>
<path d="M891.719 454.739C891.719 453.016 890.323 451.62 888.601 451.62C886.879 451.62 885.482 453.016 885.482 454.739C885.482 456.461 886.879 457.857 888.601 457.857C890.323 457.857 891.719 456.461 891.719 454.739Z" fill="#24245B"/>
<path d="M175.867 126.131C174.632 126.131 173.566 125.838 172.667 125.252C171.782 124.653 171.108 123.842 170.647 122.819C170.185 121.796 169.954 120.649 169.954 119.376C169.954 118.104 170.185 116.956 170.647 115.933C171.121 114.911 171.8 114.106 172.686 113.52C173.584 112.921 174.645 112.622 175.867 112.622C177.364 112.622 178.593 113.046 179.553 113.894C180.514 114.742 181.15 115.871 181.462 117.281H179.572C179.347 116.407 178.904 115.703 178.243 115.166C177.595 114.63 176.809 114.362 175.886 114.362C174.626 114.362 173.659 114.817 172.985 115.728C172.312 116.638 171.975 117.854 171.975 119.376C171.975 120.898 172.312 122.114 172.985 123.025C173.659 123.936 174.626 124.391 175.886 124.391C176.771 124.391 177.526 124.148 178.15 123.661C178.773 123.175 179.216 122.545 179.478 121.771H181.368C181.031 123.081 180.389 124.135 179.441 124.933C178.493 125.732 177.302 126.131 175.867 126.131ZM190.086 126.131C188.826 126.131 187.747 125.844 186.849 125.27C185.964 124.684 185.29 123.886 184.828 122.875C184.367 121.852 184.136 120.698 184.136 119.414C184.136 118.129 184.367 116.975 184.828 115.952C185.29 114.917 185.97 114.106 186.868 113.52C187.766 112.921 188.839 112.622 190.086 112.622C191.321 112.622 192.382 112.915 193.267 113.501C194.165 114.087 194.845 114.898 195.307 115.933C195.768 116.956 195.999 118.123 195.999 119.432C195.999 120.73 195.768 121.884 195.307 122.894C194.845 123.904 194.165 124.696 193.267 125.27C192.382 125.844 191.321 126.131 190.086 126.131ZM190.068 124.372C190.866 124.372 191.558 124.16 192.145 123.736C192.731 123.312 193.18 122.726 193.492 121.977C193.804 121.216 193.96 120.355 193.96 119.395C193.96 118.434 193.804 117.58 193.492 116.832C193.18 116.071 192.731 115.472 192.145 115.035C191.558 114.599 190.866 114.38 190.068 114.38C189.269 114.38 188.577 114.599 187.991 115.035C187.404 115.472 186.955 116.071 186.643 116.832C186.332 117.592 186.176 118.447 186.176 119.395C186.176 120.343 186.332 121.197 186.643 121.958C186.955 122.707 187.404 123.299 187.991 123.736C188.577 124.16 189.269 124.372 190.068 124.372ZM199.169 112.902H201.377L207.851 122.95H207.907V112.902H209.835V126H207.589L201.153 116.158H201.096V126H199.169V112.902ZM218.171 126.15C217.148 126.15 216.269 125.944 215.533 125.532C214.809 125.108 214.26 124.565 213.886 123.904C213.524 123.243 213.344 122.551 213.344 121.827V121.734H215.477V121.827C215.477 122.227 215.57 122.626 215.757 123.025C215.944 123.412 216.244 123.742 216.655 124.017C217.067 124.279 217.585 124.41 218.209 124.41C218.969 124.41 219.587 124.216 220.061 123.83C220.547 123.443 220.791 122.919 220.791 122.258C220.791 121.709 220.604 121.272 220.229 120.948C219.868 120.624 219.406 120.405 218.845 120.293L217.048 119.938C216.263 119.775 215.502 119.445 214.766 118.946C214.042 118.434 213.68 117.586 213.68 116.401C213.68 115.64 213.861 114.973 214.223 114.399C214.597 113.825 215.115 113.389 215.776 113.089C216.437 112.777 217.192 112.622 218.04 112.622C219.013 112.622 219.849 112.815 220.547 113.202C221.246 113.588 221.77 114.093 222.119 114.717C222.481 115.328 222.662 115.971 222.662 116.644V116.719H220.529V116.663C220.529 116.326 220.448 115.977 220.285 115.615C220.123 115.254 219.849 114.948 219.462 114.698C219.088 114.436 218.595 114.306 217.984 114.306C217.26 114.306 216.687 114.505 216.263 114.904C215.851 115.291 215.645 115.777 215.645 116.364C215.645 116.875 215.82 117.293 216.169 117.617C216.531 117.942 216.999 118.16 217.572 118.272L219.238 118.609C220.198 118.809 221.034 119.177 221.745 119.713C222.468 120.249 222.83 121.079 222.83 122.202C222.83 122.975 222.631 123.661 222.231 124.26C221.845 124.859 221.296 125.326 220.585 125.663C219.886 125.988 219.082 126.15 218.171 126.15ZM231.018 126.168C229.359 126.168 228.068 125.663 227.145 124.653C226.222 123.642 225.76 122.17 225.76 120.237V112.902H227.669V120.162C227.669 121.222 227.893 122.183 228.342 123.044C228.804 123.892 229.696 124.316 231.018 124.316C232.303 124.316 233.17 123.892 233.619 123.044C234.08 122.195 234.311 121.235 234.311 120.162V112.902H236.238V120.237C236.238 122.17 235.771 123.642 234.835 124.653C233.912 125.663 232.64 126.168 231.018 126.168ZM239.691 112.902H242.553L246.127 122.276H246.183L249.738 112.902H252.601V126H250.693V115.802H250.618L246.82 126H245.472L241.674 115.802H241.599V126H239.691V112.902ZM258.214 114.624V118.553H263.696V120.106H258.214V124.279H264.52V126H256.249V112.902H264.52V114.624H258.214ZM271.899 120.929H269.747V126H267.819V112.902H272.404C273.464 112.902 274.337 113.102 275.023 113.501C275.709 113.888 276.208 114.387 276.52 114.998C276.832 115.609 276.988 116.258 276.988 116.944C276.988 117.842 276.732 118.647 276.221 119.358C275.709 120.069 274.923 120.543 273.863 120.78L277.156 126H275.061L271.899 120.929ZM269.747 119.301H272.142C272.978 119.301 273.682 119.127 274.256 118.777C274.83 118.416 275.117 117.805 275.117 116.944C275.117 116.096 274.83 115.497 274.256 115.148C273.682 114.798 272.978 114.624 272.142 114.624H269.747V119.301ZM290.477 126.168C288.818 126.168 287.527 125.663 286.604 124.653C285.681 123.642 285.219 122.17 285.219 120.237V112.902H287.128V120.162C287.128 121.222 287.352 122.183 287.801 123.044C288.263 123.892 289.155 124.316 290.477 124.316C291.762 124.316 292.629 123.892 293.078 123.044C293.54 122.195 293.77 121.235 293.77 120.162V112.902H295.698V120.237C295.698 122.17 295.23 123.642 294.294 124.653C293.371 125.663 292.099 126.168 290.477 126.168ZM303.53 126.15C302.507 126.15 301.628 125.944 300.892 125.532C300.168 125.108 299.619 124.565 299.245 123.904C298.883 123.243 298.702 122.551 298.702 121.827V121.734H300.836V121.827C300.836 122.227 300.929 122.626 301.116 123.025C301.303 123.412 301.603 123.742 302.014 124.017C302.426 124.279 302.944 124.41 303.567 124.41C304.328 124.41 304.946 124.216 305.42 123.83C305.906 123.443 306.149 122.919 306.149 122.258C306.149 121.709 305.962 121.272 305.588 120.948C305.226 120.624 304.765 120.405 304.204 120.293L302.407 119.938C301.621 119.775 300.86 119.445 300.124 118.946C299.401 118.434 299.039 117.586 299.039 116.401C299.039 115.64 299.22 114.973 299.582 114.399C299.956 113.825 300.474 113.389 301.135 113.089C301.796 112.777 302.551 112.622 303.399 112.622C304.372 112.622 305.208 112.815 305.906 113.202C306.605 113.588 307.129 114.093 307.478 114.717C307.84 115.328 308.021 115.971 308.021 116.644V116.719H305.888V116.663C305.888 116.326 305.806 115.977 305.644 115.615C305.482 115.254 305.208 114.948 304.821 114.698C304.447 114.436 303.954 114.306 303.343 114.306C302.619 114.306 302.045 114.505 301.621 114.904C301.21 115.291 301.004 115.777 301.004 116.364C301.004 116.875 301.179 117.293 301.528 117.617C301.89 117.942 302.357 118.16 302.931 118.272L304.596 118.609C305.557 118.809 306.393 119.177 307.104 119.713C307.827 120.249 308.189 121.079 308.189 122.202C308.189 122.975 307.989 123.661 307.59 124.26C307.204 124.859 306.655 125.326 305.944 125.663C305.245 125.988 304.441 126.15 303.53 126.15ZM313.288 114.624V118.553H318.77V120.106H313.288V124.279H319.593V126H311.323V112.902H319.593V114.624H313.288Z" fill="#24245B"/>
<path d="M953.05 120.929H950.899V126H948.971V112.902H953.556C954.616 112.902 955.489 113.102 956.175 113.501C956.861 113.888 957.36 114.387 957.672 114.998C957.984 115.609 958.14 116.258 958.14 116.944C958.14 117.842 957.884 118.647 957.373 119.358C956.861 120.069 956.075 120.543 955.015 120.78L958.308 126H956.213L953.05 120.929ZM950.899 119.301H953.294C954.129 119.301 954.834 119.127 955.408 118.777C955.982 118.416 956.269 117.805 956.269 116.944C956.269 116.096 955.982 115.497 955.408 115.148C954.834 114.798 954.129 114.624 953.294 114.624H950.899V119.301ZM967.992 122.389H962.922L961.668 126H959.703L964.549 112.902H966.383L971.248 126H969.283L967.992 122.389ZM967.45 120.854L965.485 115.353H965.391L963.464 120.854H967.45ZM971.668 112.902H973.595L976.308 123.586H976.42L979.826 112.902H981.566L984.971 123.586H985.083L987.815 112.902H989.743L986.281 126H983.811L980.761 116.326H980.649L977.58 126H975.11L971.668 112.902ZM997.482 112.902H1000.34L1003.92 122.276H1003.97L1007.53 112.902H1010.39V126H1008.48V115.802H1008.41L1004.61 126H1003.26L999.465 115.802H999.39V126H997.482V112.902ZM1021.51 122.389H1016.44L1015.18 126H1013.22L1018.07 112.902H1019.9L1024.76 126H1022.8L1021.51 122.389ZM1020.97 120.854L1019 115.353H1018.91L1016.98 120.854H1020.97ZM1034.96 114.624H1031.2V126H1029.27V114.624H1025.51V112.902H1034.96V114.624ZM1039.84 114.624V118.553H1045.32V120.106H1039.84V124.279H1046.15V126H1037.88V112.902H1046.15V114.624H1039.84ZM1053.52 120.929H1051.37V126H1049.45V112.902H1054.03C1055.09 112.902 1055.96 113.102 1056.65 113.501C1057.34 113.888 1057.83 114.387 1058.15 114.998C1058.46 115.609 1058.61 116.258 1058.61 116.944C1058.61 117.842 1058.36 118.647 1057.85 119.358C1057.34 120.069 1056.55 120.543 1055.49 120.78L1058.78 126H1056.69L1053.52 120.929ZM1051.37 119.301H1053.77C1054.6 119.301 1055.31 119.127 1055.88 118.777C1056.46 118.416 1056.74 117.805 1056.74 116.944C1056.74 116.096 1056.46 115.497 1055.88 115.148C1055.31 114.798 1054.6 114.624 1053.77 114.624H1051.37V119.301ZM1062.1 112.902H1064.06V126H1062.1V112.902ZM1075.25 122.389H1070.18L1068.92 126H1066.96L1071.81 112.902H1073.64L1078.5 126H1076.54L1075.25 122.389ZM1074.71 120.854L1072.74 115.353H1072.65L1070.72 120.854H1074.71ZM1089.18 124.279V126H1081.27V112.902H1083.23L1083.21 124.279H1089.18ZM1096.58 126.15C1095.56 126.15 1094.68 125.944 1093.94 125.532C1093.22 125.108 1092.67 124.565 1092.3 123.904C1091.93 123.243 1091.75 122.551 1091.75 121.827V121.734H1093.89V121.827C1093.89 122.227 1093.98 122.626 1094.17 123.025C1094.35 123.412 1094.65 123.742 1095.06 124.017C1095.48 124.279 1095.99 124.41 1096.62 124.41C1097.38 124.41 1098 124.216 1098.47 123.83C1098.96 123.443 1099.2 122.919 1099.2 122.258C1099.2 121.709 1099.01 121.272 1098.64 120.948C1098.28 120.624 1097.81 120.405 1097.25 120.293L1095.46 119.938C1094.67 119.775 1093.91 119.445 1093.17 118.946C1092.45 118.434 1092.09 117.586 1092.09 116.401C1092.09 115.64 1092.27 114.973 1092.63 114.399C1093.01 113.825 1093.52 113.389 1094.18 113.089C1094.85 112.777 1095.6 112.622 1096.45 112.622C1097.42 112.622 1098.26 112.815 1098.96 113.202C1099.65 113.588 1100.18 114.093 1100.53 114.717C1100.89 115.328 1101.07 115.971 1101.07 116.644V116.719H1098.94V116.663C1098.94 116.326 1098.86 115.977 1098.69 115.615C1098.53 115.254 1098.26 114.948 1097.87 114.698C1097.5 114.436 1097 114.306 1096.39 114.306C1095.67 114.306 1095.1 114.505 1094.67 114.904C1094.26 115.291 1094.05 115.777 1094.05 116.364C1094.05 116.875 1094.23 117.293 1094.58 117.617C1094.94 117.942 1095.41 118.16 1095.98 118.272L1097.65 118.609C1098.61 118.809 1099.44 119.177 1100.15 119.713C1100.88 120.249 1101.24 121.079 1101.24 122.202C1101.24 122.975 1101.04 123.661 1100.64 124.26C1100.25 124.859 1099.7 125.326 1098.99 125.663C1098.3 125.988 1097.49 126.15 1096.58 126.15Z" fill="#24245B"/>
<path d="M937.089 186.967H939.952L943.526 196.341H943.582L947.137 186.967H950V200.064H948.091V189.867H948.017L944.218 200.064H942.871L939.073 189.867H938.998V200.064H937.089V186.967ZM961.117 196.453H956.046L954.792 200.064H952.828L957.674 186.967H959.508L964.373 200.064H962.408L961.117 196.453ZM960.574 194.919L958.609 189.418H958.516L956.589 194.919H960.574ZM967.137 186.967H969.345L975.819 197.015H975.875V186.967H977.802V200.064H975.557L969.12 190.222H969.064V200.064H967.137V186.967ZM986.447 200.233C984.788 200.233 983.497 199.728 982.574 198.717C981.651 197.707 981.189 196.235 981.189 194.301V186.967H983.098V194.227C983.098 195.287 983.322 196.247 983.771 197.108C984.233 197.956 985.125 198.38 986.447 198.38C987.732 198.38 988.599 197.956 989.048 197.108C989.509 196.26 989.74 195.299 989.74 194.227V186.967H991.667V194.301C991.667 196.235 991.2 197.707 990.264 198.717C989.341 199.728 988.069 200.233 986.447 200.233ZM997.084 188.688V192.636L1002.42 192.599V194.17H997.084V200.064H995.138V186.967H1003.11V188.688H997.084ZM1012.93 196.453H1007.86L1006.61 200.064H1004.65L1009.49 186.967H1011.33L1016.19 200.064H1014.23L1012.93 196.453ZM1012.39 194.919L1010.43 189.418H1010.33L1008.41 194.919H1012.39ZM1024.07 200.195C1022.84 200.195 1021.77 199.902 1020.87 199.316C1019.99 198.717 1019.31 197.906 1018.85 196.884C1018.39 195.861 1018.16 194.713 1018.16 193.441C1018.16 192.168 1018.39 191.021 1018.85 189.998C1019.33 188.975 1020.01 188.17 1020.89 187.584C1021.79 186.985 1022.85 186.686 1024.07 186.686C1025.57 186.686 1026.8 187.11 1027.76 187.958C1028.72 188.807 1029.36 189.935 1029.67 191.345H1027.78C1027.55 190.472 1027.11 189.767 1026.45 189.231C1025.8 188.694 1025.02 188.426 1024.09 188.426C1022.83 188.426 1021.87 188.881 1021.19 189.792C1020.52 190.703 1020.18 191.919 1020.18 193.441C1020.18 194.963 1020.52 196.179 1021.19 197.089C1021.87 198 1022.83 198.455 1024.09 198.455C1024.98 198.455 1025.73 198.212 1026.36 197.726C1026.98 197.239 1027.42 196.609 1027.68 195.836H1029.57C1029.24 197.146 1028.6 198.2 1027.65 198.998C1026.7 199.796 1025.51 200.195 1024.07 200.195ZM1040.93 188.688H1037.17V200.064H1035.24V188.688H1031.48V186.967H1040.93V188.688ZM1049.09 200.233C1047.43 200.233 1046.14 199.728 1045.21 198.717C1044.29 197.707 1043.83 196.235 1043.83 194.301V186.967H1045.74V194.227C1045.74 195.287 1045.96 196.247 1046.41 197.108C1046.87 197.956 1047.76 198.38 1049.09 198.38C1050.37 198.38 1051.24 197.956 1051.69 197.108C1052.15 196.26 1052.38 195.299 1052.38 194.227V186.967H1054.31V194.301C1054.31 196.235 1053.84 197.707 1052.9 198.717C1051.98 199.728 1050.71 200.233 1049.09 200.233ZM1061.84 194.994H1059.69V200.064H1057.76V186.967H1062.34C1063.4 186.967 1064.28 187.166 1064.96 187.565C1065.65 187.952 1066.15 188.451 1066.46 189.062C1066.77 189.674 1066.93 190.322 1066.93 191.008C1066.93 191.906 1066.67 192.711 1066.16 193.422C1065.65 194.133 1064.86 194.607 1063.8 194.844L1067.1 200.064H1065L1061.84 194.994ZM1059.69 193.366H1062.08C1062.92 193.366 1063.62 193.191 1064.19 192.842C1064.77 192.48 1065.06 191.869 1065.06 191.008C1065.06 190.16 1064.77 189.561 1064.19 189.212C1063.62 188.863 1062.92 188.688 1062.08 188.688H1059.69V193.366ZM1070.41 186.967H1072.37V200.064H1070.41V186.967ZM1076.09 186.967H1078.3L1084.77 197.015H1084.83V186.967H1086.76V200.064H1084.51L1078.08 190.222H1078.02V200.064H1076.09V186.967ZM1095.61 200.195C1094.35 200.195 1093.29 199.871 1092.43 199.222C1091.58 198.574 1090.95 197.738 1090.54 196.715C1090.13 195.692 1089.92 194.613 1089.92 193.478C1089.92 192.318 1090.13 191.227 1090.54 190.204C1090.96 189.168 1091.61 188.326 1092.48 187.678C1093.37 187.017 1094.47 186.686 1095.78 186.686C1097.25 186.686 1098.44 187.091 1099.35 187.902C1100.27 188.701 1100.91 189.717 1101.26 190.952H1099.22C1098.98 190.154 1098.58 189.536 1098 189.1C1097.44 188.663 1096.7 188.445 1095.78 188.445C1094.54 188.445 1093.58 188.9 1092.9 189.811C1092.22 190.721 1091.89 191.956 1091.89 193.516C1091.89 195.112 1092.24 196.36 1092.95 197.258C1093.66 198.156 1094.64 198.605 1095.87 198.605C1096.61 198.605 1097.24 198.449 1097.76 198.137C1098.3 197.825 1098.7 197.401 1098.98 196.865C1099.25 196.328 1099.39 195.73 1099.41 195.069L1099.43 194.619H1096.06V193.197H1101.28V200.064H1099.78V197.969H1099.63C1099.44 198.293 1099.25 198.593 1099.03 198.867C1098.83 199.129 1098.44 199.416 1097.85 199.728C1097.27 200.04 1096.52 200.195 1095.61 200.195Z" fill="#24245B"/>
<path d="M996.678 431.771C997.739 431.771 998.612 431.983 999.298 432.407C999.984 432.832 1000.48 433.374 1000.79 434.035C1001.11 434.696 1001.26 435.401 1001.26 436.15C1001.26 436.886 1001.11 437.578 1000.79 438.227C1000.48 438.875 999.984 439.412 999.298 439.836C998.612 440.247 997.739 440.453 996.678 440.453H993.984V444.869H992.094V431.771H996.678ZM996.416 438.807C997.252 438.807 997.957 438.607 998.531 438.208C999.104 437.809 999.391 437.123 999.391 436.15C999.391 435.177 999.104 434.497 998.531 434.11C997.957 433.711 997.252 433.511 996.416 433.511H993.984V438.807H996.416ZM1010.71 441.258H1005.64L1004.39 444.869H1002.42L1007.27 431.771H1009.1L1013.97 444.869H1012L1010.71 441.258ZM1010.17 439.724L1008.21 434.222H1008.11L1006.18 439.724H1010.17ZM1021.85 445C1020.62 445 1019.55 444.707 1018.65 444.121C1017.77 443.522 1017.09 442.711 1016.63 441.688C1016.17 440.665 1015.94 439.518 1015.94 438.245C1015.94 436.973 1016.17 435.825 1016.63 434.803C1017.11 433.78 1017.79 432.975 1018.67 432.389C1019.57 431.79 1020.63 431.491 1021.85 431.491C1023.35 431.491 1024.58 431.915 1025.54 432.763C1026.5 433.611 1027.13 434.74 1027.45 436.15H1025.56C1025.33 435.277 1024.89 434.572 1024.23 434.035C1023.58 433.499 1022.79 433.231 1021.87 433.231C1020.61 433.231 1019.64 433.686 1018.97 434.597C1018.3 435.507 1017.96 436.724 1017.96 438.245C1017.96 439.767 1018.3 440.983 1018.97 441.894C1019.64 442.805 1020.61 443.26 1021.87 443.26C1022.76 443.26 1023.51 443.017 1024.13 442.53C1024.76 442.044 1025.2 441.414 1025.46 440.64H1027.35C1027.02 441.95 1026.37 443.004 1025.43 443.803C1024.48 444.601 1023.29 445 1021.85 445ZM1030.44 431.771H1032.37V437.403H1032.46L1037.44 431.771H1039.76L1034.71 437.385L1040.04 444.869H1037.81L1033.51 438.769L1032.37 440.004V444.869H1030.44V431.771ZM1050.85 441.258H1045.78L1044.53 444.869H1042.56L1047.41 431.771H1049.24L1054.11 444.869H1052.14L1050.85 441.258ZM1050.31 439.724L1048.34 434.222H1048.25L1046.32 439.724H1050.31ZM1061.75 445C1060.49 445 1059.43 444.676 1058.57 444.027C1057.72 443.378 1057.09 442.543 1056.68 441.52C1056.26 440.497 1056.06 439.418 1056.06 438.283C1056.06 437.123 1056.26 436.031 1056.68 435.008C1057.1 433.973 1057.75 433.131 1058.62 432.482C1059.51 431.821 1060.61 431.491 1061.91 431.491C1063.39 431.491 1064.58 431.896 1065.49 432.707C1066.41 433.505 1067.05 434.522 1067.4 435.757H1065.36C1065.12 434.958 1064.72 434.341 1064.14 433.904C1063.58 433.468 1062.84 433.249 1061.91 433.249C1060.68 433.249 1059.72 433.705 1059.03 434.615C1058.36 435.526 1058.02 436.761 1058.02 438.32C1058.02 439.917 1058.38 441.164 1059.09 442.062C1059.8 442.961 1060.77 443.41 1062.01 443.41C1062.74 443.41 1063.37 443.254 1063.9 442.942C1064.43 442.63 1064.84 442.206 1065.11 441.67C1065.39 441.133 1065.53 440.534 1065.54 439.873L1065.56 439.424H1062.2V438.002H1067.42V444.869H1065.92V442.773H1065.77C1065.58 443.098 1065.38 443.397 1065.17 443.672C1064.97 443.934 1064.58 444.22 1063.99 444.532C1063.41 444.844 1062.66 445 1061.75 445ZM1070.98 431.771H1072.95V444.869H1070.98V431.771ZM1076.67 431.771H1078.88L1085.35 441.819H1085.41V431.771H1087.33V444.869H1085.09L1078.65 435.027H1078.59V444.869H1076.67V431.771ZM1096.18 445C1094.92 445 1093.86 444.676 1093 444.027C1092.15 443.378 1091.52 442.543 1091.11 441.52C1090.7 440.497 1090.49 439.418 1090.49 438.283C1090.49 437.123 1090.7 436.031 1091.11 435.008C1091.54 433.973 1092.19 433.131 1093.06 432.482C1093.94 431.821 1095.04 431.491 1096.35 431.491C1097.82 431.491 1099.01 431.896 1099.93 432.707C1100.85 433.505 1101.48 434.522 1101.83 435.757H1099.79C1099.56 434.958 1099.15 434.341 1098.58 433.904C1098.02 433.468 1097.27 433.249 1096.35 433.249C1095.12 433.249 1094.16 433.705 1093.47 434.615C1092.8 435.526 1092.46 436.761 1092.46 438.32C1092.46 439.917 1092.82 441.164 1093.53 442.062C1094.24 442.961 1095.21 443.41 1096.44 443.41C1097.18 443.41 1097.81 443.254 1098.33 442.942C1098.87 442.63 1099.28 442.206 1099.55 441.67C1099.83 441.133 1099.97 440.534 1099.98 439.873L1100 439.424H1096.63V438.002H1101.85V444.869H1100.36V442.773H1100.21C1100.02 443.098 1099.82 443.397 1099.61 443.672C1099.41 443.934 1099.01 444.22 1098.43 444.532C1097.84 444.844 1097.09 445 1096.18 445Z" fill="#24245B"/>
<path d="M170.291 398.248H175.175C176.347 398.248 177.37 398.51 178.243 399.034C179.129 399.558 179.815 400.312 180.302 401.298C180.788 402.283 181.031 403.443 181.031 404.778C181.031 406.125 180.788 407.298 180.302 408.296C179.815 409.281 179.129 410.036 178.243 410.56C177.358 411.084 176.329 411.346 175.156 411.346H170.291V398.248ZM174.857 409.568C176.104 409.568 177.102 409.169 177.85 408.371C178.599 407.572 178.973 406.375 178.973 404.778C178.973 403.181 178.599 401.984 177.85 401.186C177.114 400.387 176.116 399.988 174.857 399.988H172.181V409.568H174.857ZM184.092 398.248H186.057V411.346H184.092V398.248ZM194.468 411.495C193.445 411.495 192.566 411.29 191.83 410.878C191.106 410.454 190.557 409.911 190.183 409.25C189.821 408.589 189.64 407.897 189.64 407.173V407.08H191.773V407.173C191.773 407.572 191.867 407.971 192.054 408.371C192.241 408.757 192.541 409.088 192.952 409.362C193.364 409.624 193.882 409.755 194.505 409.755C195.266 409.755 195.884 409.562 196.358 409.175C196.844 408.789 197.087 408.265 197.087 407.603C197.087 407.055 196.9 406.618 196.526 406.294C196.164 405.969 195.703 405.751 195.141 405.639L193.345 405.283C192.559 405.121 191.798 404.791 191.062 404.292C190.339 403.78 189.977 402.932 189.977 401.747C189.977 400.986 190.158 400.319 190.52 399.745C190.894 399.171 191.412 398.734 192.073 398.435C192.734 398.123 193.489 397.967 194.337 397.967C195.31 397.967 196.146 398.161 196.844 398.547C197.543 398.934 198.067 399.439 198.416 400.063C198.778 400.674 198.959 401.317 198.959 401.99V402.065H196.825V402.009C196.825 401.672 196.744 401.323 196.582 400.961C196.42 400.599 196.146 400.294 195.759 400.044C195.385 399.782 194.892 399.651 194.281 399.651C193.557 399.651 192.983 399.851 192.559 400.25C192.148 400.637 191.942 401.123 191.942 401.709C191.942 402.221 192.116 402.639 192.466 402.963C192.827 403.287 193.295 403.506 193.869 403.618L195.534 403.955C196.495 404.154 197.331 404.522 198.042 405.059C198.765 405.595 199.127 406.425 199.127 407.547C199.127 408.321 198.927 409.007 198.528 409.606C198.141 410.204 197.593 410.672 196.882 411.009C196.183 411.333 195.378 411.495 194.468 411.495ZM210.931 399.969H207.17V411.346H205.243V399.969H201.482V398.248H210.931V399.969ZM217.928 406.275H215.777V411.346H213.849V398.248H218.434C219.494 398.248 220.367 398.447 221.053 398.847C221.739 399.233 222.238 399.732 222.55 400.344C222.862 400.955 223.018 401.603 223.018 402.289C223.018 403.188 222.762 403.992 222.251 404.703C221.739 405.414 220.953 405.888 219.893 406.125L223.186 411.346H221.091L217.928 406.275ZM215.777 404.647H218.172C219.007 404.647 219.712 404.472 220.286 404.123C220.86 403.761 221.147 403.15 221.147 402.289C221.147 401.441 220.86 400.842 220.286 400.493C219.712 400.144 219.007 399.969 218.172 399.969H215.777V404.647ZM226.499 398.248H228.464V411.346H226.499V398.248ZM232.184 398.248H237.517C238.378 398.248 239.082 398.41 239.631 398.734C240.193 399.059 240.598 399.477 240.847 399.988C241.097 400.487 241.222 401.017 241.222 401.578C241.222 402.127 241.109 402.601 240.885 403.001C240.66 403.4 240.38 403.718 240.043 403.955C239.719 404.179 239.407 404.323 239.107 404.385V404.497C239.457 404.535 239.843 404.666 240.267 404.89C240.692 405.102 241.06 405.433 241.371 405.882C241.696 406.331 241.858 406.899 241.858 407.585C241.858 408.208 241.714 408.807 241.427 409.381C241.153 409.955 240.716 410.429 240.118 410.803C239.519 411.165 238.764 411.346 237.854 411.346H232.184V398.248ZM236.956 403.899C237.604 403.899 238.166 403.73 238.64 403.393C239.126 403.044 239.369 402.514 239.369 401.803C239.369 401.117 239.138 400.618 238.677 400.306C238.215 399.994 237.642 399.838 236.956 399.838H234.074V403.899H236.956ZM237.386 409.755C238.109 409.755 238.721 409.587 239.22 409.25C239.731 408.901 239.987 408.327 239.987 407.529C239.987 406.755 239.731 406.2 239.22 405.863C238.721 405.527 238.109 405.358 237.386 405.358H234.074V409.755H237.386ZM249.923 411.514C248.264 411.514 246.973 411.009 246.05 409.998C245.127 408.988 244.665 407.516 244.665 405.583V398.248H246.574V405.508C246.574 406.568 246.798 407.529 247.247 408.389C247.709 409.238 248.601 409.662 249.923 409.662C251.208 409.662 252.075 409.238 252.524 408.389C252.985 407.541 253.216 406.581 253.216 405.508V398.248H255.143V405.583C255.143 407.516 254.675 408.988 253.74 409.998C252.817 411.009 251.544 411.514 249.923 411.514ZM267.466 399.969H263.705V411.346H261.778V399.969H258.017V398.248H267.466V399.969ZM270.46 398.248H272.424V411.346H270.46V398.248ZM281.574 411.477C280.314 411.477 279.235 411.19 278.337 410.616C277.451 410.03 276.778 409.231 276.316 408.221C275.854 407.198 275.624 406.044 275.624 404.759C275.624 403.475 275.854 402.321 276.316 401.298C276.778 400.262 277.457 399.452 278.355 398.865C279.254 398.267 280.326 397.967 281.574 397.967C282.809 397.967 283.869 398.26 284.755 398.847C285.653 399.433 286.333 400.244 286.794 401.279C287.256 402.302 287.487 403.468 287.487 404.778C287.487 406.075 287.256 407.229 286.794 408.24C286.333 409.25 285.653 410.042 284.755 410.616C283.869 411.19 282.809 411.477 281.574 411.477ZM281.555 409.718C282.353 409.718 283.046 409.506 283.632 409.082C284.218 408.658 284.667 408.071 284.979 407.323C285.291 406.562 285.447 405.701 285.447 404.741C285.447 403.78 285.291 402.926 284.979 402.177C284.667 401.416 284.218 400.818 283.632 400.381C283.046 399.944 282.353 399.726 281.555 399.726C280.757 399.726 280.064 399.944 279.478 400.381C278.892 400.818 278.443 401.416 278.131 402.177C277.819 402.938 277.663 403.793 277.663 404.741C277.663 405.689 277.819 406.543 278.131 407.304C278.443 408.053 278.892 408.645 279.478 409.082C280.064 409.506 280.757 409.718 281.555 409.718ZM290.657 398.248H292.865L299.339 408.296H299.395V398.248H301.322V411.346H299.077L292.64 401.504H292.584V411.346H290.657V398.248ZM315.533 415.369C314.697 414.882 313.924 414.184 313.213 413.273C312.501 412.375 311.928 411.296 311.491 410.036C311.054 408.764 310.836 407.385 310.836 405.901C310.836 404.366 311.061 402.957 311.51 401.672C311.959 400.387 312.539 399.302 313.25 398.416C313.961 397.518 314.716 396.851 315.514 396.414L316.057 396.976C315.533 397.45 315.015 398.136 314.504 399.034C313.992 399.919 313.574 400.961 313.25 402.159C312.926 403.356 312.763 404.603 312.763 405.901C312.763 407.198 312.926 408.445 313.25 409.643C313.587 410.828 314.005 411.87 314.504 412.768C315.015 413.666 315.533 414.352 316.057 414.826L315.533 415.369ZM327.409 407.734H322.338L321.085 411.346H319.12L323.966 398.248H325.8L330.665 411.346H328.7L327.409 407.734ZM326.867 406.2L324.902 400.699H324.808L322.881 406.2H326.867ZM331.066 398.248H333.03L336.773 409.344H336.885L340.627 398.248H342.573L338.139 411.346H335.519L331.066 398.248ZM350.04 411.477C348.78 411.477 347.72 411.152 346.859 410.504C346.011 409.855 345.381 409.019 344.969 407.996C344.557 406.974 344.352 405.895 344.352 404.759C344.352 403.599 344.557 402.508 344.969 401.485C345.393 400.45 346.042 399.608 346.915 398.959C347.801 398.298 348.898 397.967 350.208 397.967C351.68 397.967 352.871 398.373 353.782 399.183C354.705 399.982 355.341 400.998 355.691 402.233H353.651C353.414 401.435 353.009 400.818 352.435 400.381C351.873 399.944 351.131 399.726 350.208 399.726C348.973 399.726 348.013 400.181 347.327 401.092C346.653 402.003 346.316 403.238 346.316 404.797C346.316 406.393 346.672 407.641 347.383 408.539C348.094 409.437 349.067 409.886 350.302 409.886C351.038 409.886 351.668 409.73 352.192 409.418C352.728 409.107 353.133 408.682 353.408 408.146C353.682 407.61 353.826 407.011 353.838 406.35L353.857 405.901H350.489V404.479H355.709V411.346H354.212V409.25H354.063C353.876 409.574 353.676 409.874 353.464 410.148C353.264 410.41 352.871 410.697 352.285 411.009C351.699 411.321 350.95 411.477 350.04 411.477ZM360.028 414.826C360.552 414.352 361.064 413.666 361.563 412.768C362.074 411.87 362.492 410.828 362.816 409.643C363.153 408.445 363.321 407.198 363.321 405.901C363.321 404.603 363.153 403.362 362.816 402.177C362.492 400.98 362.074 399.932 361.563 399.034C361.064 398.136 360.552 397.45 360.028 396.976L360.552 396.414C361.35 396.851 362.105 397.518 362.816 398.416C363.527 399.302 364.107 400.387 364.556 401.672C365.018 402.957 365.249 404.366 365.249 405.901C365.249 407.385 365.03 408.764 364.594 410.036C364.157 411.296 363.583 412.375 362.872 413.273C362.161 414.184 361.388 414.882 360.552 415.369L360.028 414.826Z" fill="#24245B"/>
</svg>
