<svg width="1273" height="742" viewBox="0 0 1273 742" fill="none" xmlns="http://www.w3.org/2000/svg">
<rect width="1273" height="742" fill="white"/>
<path d="M46.248 99.192C44.456 99.192 43.064 98.76 42.072 97.896C41.096 97.032 40.504 95.952 40.296 94.656H42.816C43.024 95.36 43.408 95.928 43.968 96.36C44.544 96.776 45.296 96.984 46.224 96.984C47.312 96.984 48.136 96.712 48.696 96.168C49.256 95.624 49.536 94.928 49.536 94.08C49.536 93.168 49.216 92.472 48.576 91.992C47.952 91.496 47.168 91.248 46.224 91.248H44.664V89.304H46.176C47.056 89.304 47.792 89.088 48.384 88.656C48.992 88.224 49.296 87.56 49.296 86.664C49.296 85.816 49.008 85.144 48.432 84.648C47.872 84.152 47.12 83.904 46.176 83.904C45.296 83.904 44.592 84.12 44.064 84.552C43.552 84.968 43.224 85.52 43.08 86.208H40.656C40.848 84.992 41.384 83.952 42.264 83.088C43.144 82.224 44.456 81.792 46.2 81.792C47.464 81.792 48.512 82.024 49.344 82.488C50.176 82.952 50.784 83.552 51.168 84.288C51.568 85.008 51.768 85.768 51.768 86.568C51.768 87.416 51.576 88.112 51.192 88.656C50.808 89.2 50.392 89.6 49.944 89.856C49.496 90.112 49.2 90.24 49.056 90.24V90.384C49.264 90.416 49.592 90.552 50.04 90.792C50.504 91.016 50.936 91.416 51.336 91.992C51.752 92.568 51.96 93.336 51.96 94.296C51.96 95.176 51.752 95.992 51.336 96.744C50.92 97.48 50.28 98.072 49.416 98.52C48.568 98.968 47.512 99.192 46.248 99.192ZM57.8597 99.168C57.4117 99.168 57.0357 99.016 56.7317 98.712C56.4437 98.408 56.2997 98.04 56.2997 97.608C56.2997 97.176 56.4437 96.816 56.7317 96.528C57.0357 96.224 57.4117 96.072 57.8597 96.072C58.3077 96.072 58.6757 96.224 58.9637 96.528C59.2677 96.816 59.4197 97.176 59.4197 97.608C59.4197 98.04 59.2677 98.408 58.9637 98.712C58.6757 99.016 58.3077 99.168 57.8597 99.168ZM73.6772 96.792V99H64.6532V96.792H68.1332V85.176H68.0372L64.6292 88.344V85.392L68.0372 82.2H70.4852V96.792H73.6772ZM79.8675 88.896C78.7795 88.896 77.9635 88.552 77.4195 87.864C76.8915 87.176 76.6275 86.36 76.6275 85.416C76.6275 84.472 76.8915 83.664 77.4195 82.992C77.9475 82.304 78.7635 81.96 79.8675 81.96C80.9715 81.96 81.7715 82.296 82.2675 82.968C82.7795 83.64 83.0355 84.456 83.0355 85.416C83.0355 86.376 82.7795 87.2 82.2675 87.888C81.7715 88.56 80.9715 88.896 79.8675 88.896ZM88.8675 82.2H91.0035L82.3395 99H80.2035L88.8675 82.2ZM79.8915 87.456C80.4675 87.456 80.8515 87.256 81.0435 86.856C81.2355 86.456 81.3315 85.976 81.3315 85.416C81.3315 84.056 80.8515 83.376 79.8915 83.376C79.3155 83.376 78.9235 83.584 78.7155 84C78.5235 84.416 78.4275 84.888 78.4275 85.416C78.4275 85.96 78.5315 86.44 78.7395 86.856C78.9475 87.256 79.3315 87.456 79.8915 87.456ZM91.3875 99.24C90.2995 99.24 89.4835 98.896 88.9395 98.208C88.4115 97.52 88.1475 96.704 88.1475 95.76C88.1475 94.832 88.4115 94.024 88.9395 93.336C89.4675 92.648 90.2835 92.304 91.3875 92.304C92.4755 92.304 93.2755 92.648 93.7875 93.336C94.2995 94.008 94.5555 94.816 94.5555 95.76C94.5555 96.704 94.2995 97.52 93.7875 98.208C93.2755 98.896 92.4755 99.24 91.3875 99.24ZM91.4115 97.8C91.9875 97.8 92.3715 97.608 92.5635 97.224C92.7555 96.824 92.8515 96.336 92.8515 95.76C92.8515 95.2 92.7555 94.72 92.5635 94.32C92.3875 93.92 92.0035 93.72 91.4115 93.72C90.8515 93.72 90.4675 93.928 90.2595 94.344C90.0675 94.744 89.9715 95.216 89.9715 95.76C89.9715 97.12 90.4515 97.8 91.4115 97.8Z" fill="#24245B"/>
<path d="M1188.19 91.296L1188.12 91.248L1187.71 91.656C1186.85 92.52 1185.77 92.952 1184.47 92.952C1183.46 92.952 1182.57 92.728 1181.78 92.28C1181 91.816 1180.38 91.176 1179.94 90.36C1179.5 89.528 1179.29 88.576 1179.29 87.504C1179.29 86.32 1179.54 85.304 1180.06 84.456C1180.58 83.592 1181.29 82.944 1182.17 82.512C1183.05 82.08 1184.02 81.864 1185.07 81.864C1186.08 81.864 1187.03 82.08 1187.93 82.512C1188.82 82.928 1189.55 83.584 1190.11 84.48C1190.69 85.36 1190.98 86.456 1190.98 87.768C1190.98 88.712 1190.84 89.616 1190.57 90.48C1190.3 91.328 1189.95 92.112 1189.54 92.832C1189.14 93.536 1188.62 94.36 1187.98 95.304L1185.55 99L1182.84 99.024L1188.19 91.296ZM1185.17 91.08C1186.22 91.08 1187.06 90.736 1187.66 90.048C1188.27 89.344 1188.58 88.496 1188.58 87.504C1188.58 86.864 1188.44 86.272 1188.17 85.728C1187.9 85.184 1187.5 84.744 1186.99 84.408C1186.48 84.072 1185.87 83.904 1185.17 83.904C1184.43 83.904 1183.8 84.072 1183.27 84.408C1182.74 84.744 1182.34 85.184 1182.07 85.728C1181.82 86.272 1181.69 86.856 1181.69 87.48C1181.69 88.088 1181.82 88.672 1182.07 89.232C1182.34 89.776 1182.74 90.224 1183.27 90.576C1183.8 90.912 1184.43 91.08 1185.17 91.08ZM1196.88 99.168C1196.43 99.168 1196.05 99.016 1195.75 98.712C1195.46 98.408 1195.32 98.04 1195.32 97.608C1195.32 97.176 1195.46 96.816 1195.75 96.528C1196.05 96.224 1196.43 96.072 1196.88 96.072C1197.32 96.072 1197.69 96.224 1197.98 96.528C1198.28 96.816 1198.44 97.176 1198.44 97.608C1198.44 98.04 1198.28 98.408 1197.98 98.712C1197.69 99.016 1197.32 99.168 1196.88 99.168ZM1208.83 99.264C1206.77 99.264 1205.22 98.568 1204.2 97.176C1203.17 95.768 1202.66 93.944 1202.66 91.704V89.376C1202.66 87.136 1203.17 85.328 1204.2 83.952C1205.22 82.56 1206.77 81.864 1208.83 81.864C1210.89 81.864 1212.44 82.56 1213.46 83.952C1214.49 85.328 1215 87.136 1215 89.376V91.704C1215 93.944 1214.49 95.768 1213.46 97.176C1212.44 98.568 1210.89 99.264 1208.83 99.264ZM1208.83 97.104C1209.97 97.104 1210.82 96.648 1211.4 95.736C1211.97 94.824 1212.26 93.48 1212.26 91.704V89.4C1212.26 85.832 1211.12 84.048 1208.83 84.048C1206.54 84.048 1205.4 85.832 1205.4 89.4V91.704C1205.4 93.48 1205.69 94.824 1206.26 95.736C1206.84 96.648 1207.69 97.104 1208.83 97.104ZM1221.46 88.896C1220.37 88.896 1219.56 88.552 1219.01 87.864C1218.49 87.176 1218.22 86.36 1218.22 85.416C1218.22 84.472 1218.49 83.664 1219.01 82.992C1219.54 82.304 1220.36 81.96 1221.46 81.96C1222.57 81.96 1223.37 82.296 1223.86 82.968C1224.37 83.64 1224.63 84.456 1224.63 85.416C1224.63 86.376 1224.37 87.2 1223.86 87.888C1223.37 88.56 1222.57 88.896 1221.46 88.896ZM1230.46 82.2H1232.6L1223.93 99H1221.8L1230.46 82.2ZM1221.49 87.456C1222.06 87.456 1222.45 87.256 1222.64 86.856C1222.83 86.456 1222.93 85.976 1222.93 85.416C1222.93 84.056 1222.45 83.376 1221.49 83.376C1220.91 83.376 1220.52 83.584 1220.31 84C1220.12 84.416 1220.02 84.888 1220.02 85.416C1220.02 85.96 1220.13 86.44 1220.33 86.856C1220.54 87.256 1220.93 87.456 1221.49 87.456ZM1232.98 99.24C1231.89 99.24 1231.08 98.896 1230.53 98.208C1230.01 97.52 1229.74 96.704 1229.74 95.76C1229.74 94.832 1230.01 94.024 1230.53 93.336C1231.06 92.648 1231.88 92.304 1232.98 92.304C1234.07 92.304 1234.87 92.648 1235.38 93.336C1235.89 94.008 1236.15 94.816 1236.15 95.76C1236.15 96.704 1235.89 97.52 1235.38 98.208C1234.87 98.896 1234.07 99.24 1232.98 99.24ZM1233.01 97.8C1233.58 97.8 1233.97 97.608 1234.16 97.224C1234.35 96.824 1234.45 96.336 1234.45 95.76C1234.45 95.2 1234.35 94.72 1234.16 94.32C1233.98 93.92 1233.6 93.72 1233.01 93.72C1232.45 93.72 1232.06 93.928 1231.85 94.344C1231.66 94.744 1231.57 95.216 1231.57 95.76C1231.57 97.12 1232.05 97.8 1233.01 97.8Z" fill="#24245B"/>
<path d="M1186.49 189.896L1178.89 189.872V187.784L1185.82 177.2H1188.94V187.928H1191.25V189.896H1188.94V194H1186.49V189.896ZM1186.52 187.904V180.152L1181.31 187.904H1186.52ZM1197.09 194.168C1196.64 194.168 1196.26 194.016 1195.96 193.712C1195.67 193.408 1195.53 193.04 1195.53 192.608C1195.53 192.176 1195.67 191.816 1195.96 191.528C1196.26 191.224 1196.64 191.072 1197.09 191.072C1197.54 191.072 1197.9 191.224 1198.19 191.528C1198.5 191.816 1198.65 192.176 1198.65 192.608C1198.65 193.04 1198.5 193.408 1198.19 193.712C1197.9 194.016 1197.54 194.168 1197.09 194.168ZM1209.16 194.12C1208.04 194.12 1207.07 193.904 1206.23 193.472C1205.4 193.04 1204.75 192.472 1204.27 191.768C1203.79 191.064 1203.48 190.304 1203.35 189.488H1205.85C1206.06 190.288 1206.47 190.888 1207.07 191.288C1207.68 191.688 1208.37 191.888 1209.14 191.888C1210.21 191.888 1211.03 191.552 1211.61 190.88C1212.2 190.192 1212.5 189.288 1212.5 188.168C1212.5 187 1212.18 186.104 1211.54 185.48C1210.91 184.856 1210.11 184.544 1209.11 184.544C1208.14 184.544 1207.43 184.76 1207 185.192C1206.59 185.624 1206.29 186.056 1206.11 186.488L1203.57 186.392L1204.03 177.2H1213.87V179.48H1206.09L1205.83 184.472H1205.95C1206.17 184.104 1206.57 183.72 1207.15 183.32C1207.72 182.904 1208.57 182.696 1209.69 182.696C1210.73 182.696 1211.65 182.92 1212.45 183.368C1213.25 183.8 1213.87 184.432 1214.3 185.264C1214.75 186.096 1214.97 187.072 1214.97 188.192C1214.97 189.296 1214.74 190.296 1214.27 191.192C1213.83 192.088 1213.16 192.8 1212.28 193.328C1211.42 193.856 1210.38 194.12 1209.16 194.12ZM1221.46 183.896C1220.37 183.896 1219.56 183.552 1219.01 182.864C1218.49 182.176 1218.22 181.36 1218.22 180.416C1218.22 179.472 1218.49 178.664 1219.01 177.992C1219.54 177.304 1220.36 176.96 1221.46 176.96C1222.57 176.96 1223.37 177.296 1223.86 177.968C1224.37 178.64 1224.63 179.456 1224.63 180.416C1224.63 181.376 1224.37 182.2 1223.86 182.888C1223.37 183.56 1222.57 183.896 1221.46 183.896ZM1230.46 177.2H1232.6L1223.93 194H1221.8L1230.46 177.2ZM1221.49 182.456C1222.06 182.456 1222.45 182.256 1222.64 181.856C1222.83 181.456 1222.93 180.976 1222.93 180.416C1222.93 179.056 1222.45 178.376 1221.49 178.376C1220.91 178.376 1220.52 178.584 1220.31 179C1220.12 179.416 1220.02 179.888 1220.02 180.416C1220.02 180.96 1220.13 181.44 1220.33 181.856C1220.54 182.256 1220.93 182.456 1221.49 182.456ZM1232.98 194.24C1231.89 194.24 1231.08 193.896 1230.53 193.208C1230.01 192.52 1229.74 191.704 1229.74 190.76C1229.74 189.832 1230.01 189.024 1230.53 188.336C1231.06 187.648 1231.88 187.304 1232.98 187.304C1234.07 187.304 1234.87 187.648 1235.38 188.336C1235.89 189.008 1236.15 189.816 1236.15 190.76C1236.15 191.704 1235.89 192.52 1235.38 193.208C1234.87 193.896 1234.07 194.24 1232.98 194.24ZM1233.01 192.8C1233.58 192.8 1233.97 192.608 1234.16 192.224C1234.35 191.824 1234.45 191.336 1234.45 190.76C1234.45 190.2 1234.35 189.72 1234.16 189.32C1233.98 188.92 1233.6 188.72 1233.01 188.72C1232.45 188.72 1232.06 188.928 1231.85 189.344C1231.66 189.744 1231.57 190.216 1231.57 190.76C1231.57 192.12 1232.05 192.8 1233.01 192.8Z" fill="#24245B"/>
<path d="M1169.98 508.192C1168.19 508.192 1166.8 507.76 1165.8 506.896C1164.83 506.032 1164.24 504.952 1164.03 503.656H1166.55C1166.76 504.36 1167.14 504.928 1167.7 505.36C1168.28 505.776 1169.03 505.984 1169.96 505.984C1171.04 505.984 1171.87 505.712 1172.43 505.168C1172.99 504.624 1173.27 503.928 1173.27 503.08C1173.27 502.168 1172.95 501.472 1172.31 500.992C1171.68 500.496 1170.9 500.248 1169.96 500.248H1168.4V498.304H1169.91C1170.79 498.304 1171.52 498.088 1172.12 497.656C1172.72 497.224 1173.03 496.56 1173.03 495.664C1173.03 494.816 1172.74 494.144 1172.16 493.648C1171.6 493.152 1170.85 492.904 1169.91 492.904C1169.03 492.904 1168.32 493.12 1167.8 493.552C1167.28 493.968 1166.96 494.52 1166.81 495.208H1164.39C1164.58 493.992 1165.12 492.952 1166 492.088C1166.88 491.224 1168.19 490.792 1169.93 490.792C1171.2 490.792 1172.24 491.024 1173.08 491.488C1173.91 491.952 1174.52 492.552 1174.9 493.288C1175.3 494.008 1175.5 494.768 1175.5 495.568C1175.5 496.416 1175.31 497.112 1174.92 497.656C1174.54 498.2 1174.12 498.6 1173.68 498.856C1173.23 499.112 1172.93 499.24 1172.79 499.24V499.384C1173 499.416 1173.32 499.552 1173.77 499.792C1174.24 500.016 1174.67 500.416 1175.07 500.992C1175.48 501.568 1175.69 502.336 1175.69 503.296C1175.69 504.176 1175.48 504.992 1175.07 505.744C1174.65 506.48 1174.01 507.072 1173.15 507.52C1172.3 507.968 1171.24 508.192 1169.98 508.192ZM1185.36 508.192C1183.57 508.192 1182.17 507.76 1181.18 506.896C1180.21 506.032 1179.61 504.952 1179.41 503.656H1181.93C1182.13 504.36 1182.52 504.928 1183.08 505.36C1183.65 505.776 1184.41 505.984 1185.33 505.984C1186.42 505.984 1187.25 505.712 1187.81 505.168C1188.37 504.624 1188.65 503.928 1188.65 503.08C1188.65 502.168 1188.33 501.472 1187.69 500.992C1187.06 500.496 1186.28 500.248 1185.33 500.248H1183.77V498.304H1185.29C1186.17 498.304 1186.9 498.088 1187.49 497.656C1188.1 497.224 1188.41 496.56 1188.41 495.664C1188.41 494.816 1188.12 494.144 1187.54 493.648C1186.98 493.152 1186.23 492.904 1185.29 492.904C1184.41 492.904 1183.7 493.12 1183.17 493.552C1182.66 493.968 1182.33 494.52 1182.19 495.208H1179.77C1179.96 493.992 1180.49 492.952 1181.37 492.088C1182.25 491.224 1183.57 490.792 1185.31 490.792C1186.57 490.792 1187.62 491.024 1188.45 491.488C1189.29 491.952 1189.89 492.552 1190.28 493.288C1190.68 494.008 1190.88 494.768 1190.88 495.568C1190.88 496.416 1190.69 497.112 1190.3 497.656C1189.92 498.2 1189.5 498.6 1189.05 498.856C1188.61 499.112 1188.31 499.24 1188.17 499.24V499.384C1188.37 499.416 1188.7 499.552 1189.15 499.792C1189.61 500.016 1190.05 500.416 1190.45 500.992C1190.86 501.568 1191.07 502.336 1191.07 503.296C1191.07 504.176 1190.86 504.992 1190.45 505.744C1190.03 506.48 1189.39 507.072 1188.53 507.52C1187.68 507.968 1186.62 508.192 1185.36 508.192ZM1196.97 508.168C1196.52 508.168 1196.15 508.016 1195.84 507.712C1195.55 507.408 1195.41 507.04 1195.41 506.608C1195.41 506.176 1195.55 505.816 1195.84 505.528C1196.15 505.224 1196.52 505.072 1196.97 505.072C1197.42 505.072 1197.79 505.224 1198.07 505.528C1198.38 505.816 1198.53 506.176 1198.53 506.608C1198.53 507.04 1198.38 507.408 1198.07 507.712C1197.79 508.016 1197.42 508.168 1196.97 508.168ZM1210.27 503.896L1202.66 503.872V501.784L1209.6 491.2H1212.72V501.928H1215.02V503.896H1212.72V508H1210.27V503.896ZM1210.29 501.904V494.152L1205.08 501.904H1210.29ZM1221.46 497.896C1220.37 497.896 1219.56 497.552 1219.01 496.864C1218.49 496.176 1218.22 495.36 1218.22 494.416C1218.22 493.472 1218.49 492.664 1219.01 491.992C1219.54 491.304 1220.36 490.96 1221.46 490.96C1222.57 490.96 1223.37 491.296 1223.86 491.968C1224.37 492.64 1224.63 493.456 1224.63 494.416C1224.63 495.376 1224.37 496.2 1223.86 496.888C1223.37 497.56 1222.57 497.896 1221.46 497.896ZM1230.46 491.2H1232.6L1223.93 508H1221.8L1230.46 491.2ZM1221.49 496.456C1222.06 496.456 1222.45 496.256 1222.64 495.856C1222.83 495.456 1222.93 494.976 1222.93 494.416C1222.93 493.056 1222.45 492.376 1221.49 492.376C1220.91 492.376 1220.52 492.584 1220.31 493C1220.12 493.416 1220.02 493.888 1220.02 494.416C1220.02 494.96 1220.13 495.44 1220.33 495.856C1220.54 496.256 1220.93 496.456 1221.49 496.456ZM1232.98 508.24C1231.89 508.24 1231.08 507.896 1230.53 507.208C1230.01 506.52 1229.74 505.704 1229.74 504.76C1229.74 503.832 1230.01 503.024 1230.53 502.336C1231.06 501.648 1231.88 501.304 1232.98 501.304C1234.07 501.304 1234.87 501.648 1235.38 502.336C1235.89 503.008 1236.15 503.816 1236.15 504.76C1236.15 505.704 1235.89 506.52 1235.38 507.208C1234.87 507.896 1234.07 508.24 1232.98 508.24ZM1233.01 506.8C1233.58 506.8 1233.97 506.608 1234.16 506.224C1234.35 505.824 1234.45 505.336 1234.45 504.76C1234.45 504.2 1234.35 503.72 1234.16 503.32C1233.98 502.92 1233.6 502.72 1233.01 502.72C1232.45 502.72 1232.06 502.928 1231.85 503.344C1231.66 503.744 1231.57 504.216 1231.57 504.76C1231.57 506.12 1232.05 506.8 1233.01 506.8Z" fill="#24245B"/>
<path d="M46.416 465.12C45.296 465.12 44.32 464.904 43.488 464.472C42.656 464.04 42 463.472 41.52 462.768C41.04 462.064 40.736 461.304 40.608 460.488H43.104C43.312 461.288 43.72 461.888 44.328 462.288C44.936 462.688 45.624 462.888 46.392 462.888C47.464 462.888 48.288 462.552 48.864 461.88C49.456 461.192 49.752 460.288 49.752 459.168C49.752 458 49.432 457.104 48.792 456.48C48.168 455.856 47.36 455.544 46.368 455.544C45.392 455.544 44.688 455.76 44.256 456.192C43.84 456.624 43.544 457.056 43.368 457.488L40.824 457.392L41.28 448.2H51.12V450.48H43.344L43.08 455.472H43.2C43.424 455.104 43.824 454.72 44.4 454.32C44.976 453.904 45.824 453.696 46.944 453.696C47.984 453.696 48.904 453.92 49.704 454.368C50.504 454.8 51.12 455.432 51.552 456.264C52 457.096 52.224 458.072 52.224 459.192C52.224 460.296 51.992 461.296 51.528 462.192C51.08 463.088 50.416 463.8 49.536 464.328C48.672 464.856 47.632 465.12 46.416 465.12ZM61.9335 465.264C59.8695 465.264 58.3255 464.568 57.3015 463.176C56.2775 461.768 55.7655 459.944 55.7655 457.704V455.376C55.7655 453.136 56.2775 451.328 57.3015 449.952C58.3255 448.56 59.8695 447.864 61.9335 447.864C63.9975 447.864 65.5415 448.56 66.5655 449.952C67.5895 451.328 68.1015 453.136 68.1015 455.376V457.704C68.1015 459.944 67.5895 461.768 66.5655 463.176C65.5415 464.568 63.9975 465.264 61.9335 465.264ZM61.9335 463.104C63.0695 463.104 63.9255 462.648 64.5015 461.736C65.0775 460.824 65.3655 459.48 65.3655 457.704V455.4C65.3655 451.832 64.2215 450.048 61.9335 450.048C59.6455 450.048 58.5015 451.832 58.5015 455.4V457.704C58.5015 459.48 58.7895 460.824 59.3655 461.736C59.9415 462.648 60.7975 463.104 61.9335 463.104ZM73.9659 465.168C73.5179 465.168 73.1419 465.016 72.8379 464.712C72.5499 464.408 72.4059 464.04 72.4059 463.608C72.4059 463.176 72.5499 462.816 72.8379 462.528C73.1419 462.224 73.5179 462.072 73.9659 462.072C74.4139 462.072 74.7819 462.224 75.0699 462.528C75.3739 462.816 75.5259 463.176 75.5259 463.608C75.5259 464.04 75.3739 464.408 75.0699 464.712C74.7819 465.016 74.4139 465.168 73.9659 465.168ZM85.9194 465.264C83.8554 465.264 82.3114 464.568 81.2874 463.176C80.2634 461.768 79.7514 459.944 79.7514 457.704V455.376C79.7514 453.136 80.2634 451.328 81.2874 449.952C82.3114 448.56 83.8554 447.864 85.9194 447.864C87.9834 447.864 89.5274 448.56 90.5514 449.952C91.5754 451.328 92.0874 453.136 92.0874 455.376V457.704C92.0874 459.944 91.5754 461.768 90.5514 463.176C89.5274 464.568 87.9834 465.264 85.9194 465.264ZM85.9194 463.104C87.0554 463.104 87.9114 462.648 88.4874 461.736C89.0634 460.824 89.3514 459.48 89.3514 457.704V455.4C89.3514 451.832 88.2074 450.048 85.9194 450.048C83.6314 450.048 82.4874 451.832 82.4874 455.4V457.704C82.4874 459.48 82.7754 460.824 83.3514 461.736C83.9274 462.648 84.7834 463.104 85.9194 463.104ZM98.5519 454.896C97.4639 454.896 96.6479 454.552 96.1039 453.864C95.5759 453.176 95.3119 452.36 95.3119 451.416C95.3119 450.472 95.5759 449.664 96.1039 448.992C96.6319 448.304 97.4479 447.96 98.5519 447.96C99.6559 447.96 100.456 448.296 100.952 448.968C101.464 449.64 101.72 450.456 101.72 451.416C101.72 452.376 101.464 453.2 100.952 453.888C100.456 454.56 99.6559 454.896 98.5519 454.896ZM107.552 448.2H109.688L101.024 465H98.8879L107.552 448.2ZM98.5759 453.456C99.1519 453.456 99.5359 453.256 99.7279 452.856C99.9199 452.456 100.016 451.976 100.016 451.416C100.016 450.056 99.5359 449.376 98.5759 449.376C97.9999 449.376 97.6079 449.584 97.3999 450C97.2079 450.416 97.1119 450.888 97.1119 451.416C97.1119 451.96 97.2159 452.44 97.4239 452.856C97.6319 453.256 98.0159 453.456 98.5759 453.456ZM110.072 465.24C108.984 465.24 108.168 464.896 107.624 464.208C107.096 463.52 106.832 462.704 106.832 461.76C106.832 460.832 107.096 460.024 107.624 459.336C108.152 458.648 108.968 458.304 110.072 458.304C111.16 458.304 111.96 458.648 112.472 459.336C112.984 460.008 113.24 460.816 113.24 461.76C113.24 462.704 112.984 463.52 112.472 464.208C111.96 464.896 111.16 465.24 110.072 465.24ZM110.096 463.8C110.672 463.8 111.056 463.608 111.248 463.224C111.44 462.824 111.536 462.336 111.536 461.76C111.536 461.2 111.44 460.72 111.248 460.32C111.072 459.92 110.688 459.72 110.096 459.72C109.536 459.72 109.152 459.928 108.944 460.344C108.752 460.744 108.656 461.216 108.656 461.76C108.656 463.12 109.136 463.8 110.096 463.8Z" fill="#24245B"/>
<path d="M673 37.1C736.511 37.1 798.704 55.2132 852.283 89.3144L673 371V37.1Z" fill="#C57DBA"/>
<path d="M852.283 89.3144C878.989 106.312 903.143 127.021 924.018 150.82L673 371L852.283 89.3144Z" fill="#EA9887"/>
<path d="M924.018 150.82C1002.78 240.613 1027.58 365.639 989.055 478.697C950.53 591.755 854.549 675.624 737.346 698.641L673 371L924.018 150.82Z" fill="#ABC3A1"/>
<path d="M609.371 43.2187C630.336 39.1489 651.644 37.1 673 37.1V371L609.371 43.2187Z" fill="#AEC6F8"/>
<path d="M737.346 698.641C620.206 721.647 499.695 680.363 421.267 590.362C342.84 500.361 318.428 375.337 357.239 262.444C396.051 149.551 492.181 65.9676 609.371 43.2187L673 371L737.346 698.641Z" fill="#006CFF"/>
<path d="M39 66H256L641 66" stroke="#24245B" stroke-width="2" stroke-miterlimit="10"/>
<path d="M39 432H256H378" stroke="#24245B" stroke-width="2" stroke-miterlimit="10"/>
<path d="M645 66C645 63.7909 643.209 62 641 62C638.791 62 637 63.7909 637 66C637 68.2091 638.791 70 641 70C643.209 70 645 68.2091 645 66Z" fill="#24245B"/>
<path d="M382 431.788C382 429.579 380.209 427.788 378 427.788C375.791 427.788 374 429.579 374 431.788C374 433.997 375.791 435.788 378 435.788C380.209 435.788 382 433.997 382 431.788Z" fill="#24245B"/>
<path d="M1235.9 68.1H1018.9L761.698 66.4483" stroke="#24245B" stroke-width="2" stroke-miterlimit="10"/>
<path d="M765.698 66.4483C765.698 64.2392 763.907 62.4483 761.698 62.4483C759.488 62.4483 757.698 64.2392 757.698 66.4483C757.698 68.6574 759.488 70.4483 761.698 70.4483C763.907 70.4483 765.698 68.6574 765.698 66.4483Z" fill="#24245B"/>
<path d="M1235.9 159.469H1018.9H879.47" stroke="#24245B" stroke-width="2" stroke-miterlimit="10"/>
<path d="M883.47 159.469C883.47 157.26 881.68 155.469 879.47 155.469C877.261 155.469 875.47 157.26 875.47 159.469C875.47 161.678 877.261 163.469 879.47 163.469C881.68 163.469 883.47 161.678 883.47 159.469Z" fill="#24245B"/>
<path d="M1236 473L1009.62 473L962 473" stroke="#24245B" stroke-width="2" stroke-miterlimit="10"/>
<path d="M966 473.312C966 471.103 964.209 469.312 962 469.312C959.791 469.312 958 471.103 958 473.312C958 475.521 959.791 477.312 962 477.312C964.209 477.312 966 475.521 966 473.312Z" fill="#24245B"/>
<path d="M47.808 52.168C46.224 52.168 44.856 51.792 43.704 51.04C42.568 50.272 41.704 49.232 41.112 47.92C40.52 46.608 40.224 45.136 40.224 43.504C40.224 41.872 40.52 40.4 41.112 39.088C41.72 37.776 42.592 36.744 43.728 35.992C44.88 35.224 46.24 34.84 47.808 34.84C49.728 34.84 51.304 35.384 52.536 36.472C53.768 37.56 54.584 39.008 54.984 40.816H52.56C52.272 39.696 51.704 38.792 50.856 38.104C50.024 37.416 49.016 37.072 47.832 37.072C46.216 37.072 44.976 37.656 44.112 38.824C43.248 39.992 42.816 41.552 42.816 43.504C42.816 45.456 43.248 47.016 44.112 48.184C44.976 49.352 46.216 49.936 47.832 49.936C48.968 49.936 49.936 49.624 50.736 49C51.536 48.376 52.104 47.568 52.44 46.576H54.864C54.432 48.256 53.608 49.608 52.392 50.632C51.176 51.656 49.648 52.168 47.808 52.168ZM66.0465 52.168C64.4305 52.168 63.0465 51.8 61.8945 51.064C60.7585 50.312 59.8945 49.288 59.3025 47.992C58.7105 46.68 58.4145 45.2 58.4145 43.552C58.4145 41.904 58.7105 40.424 59.3025 39.112C59.8945 37.784 60.7665 36.744 61.9185 35.992C63.0705 35.224 64.4465 34.84 66.0465 34.84C67.6305 34.84 68.9905 35.216 70.1265 35.968C71.2785 36.72 72.1505 37.76 72.7425 39.088C73.3345 40.4 73.6305 41.896 73.6305 43.576C73.6305 45.24 73.3345 46.72 72.7425 48.016C72.1505 49.312 71.2785 50.328 70.1265 51.064C68.9905 51.8 67.6305 52.168 66.0465 52.168ZM66.0225 49.912C67.0465 49.912 67.9345 49.64 68.6865 49.096C69.4385 48.552 70.0145 47.8 70.4145 46.84C70.8145 45.864 71.0145 44.76 71.0145 43.528C71.0145 42.296 70.8145 41.2 70.4145 40.24C70.0145 39.264 69.4385 38.496 68.6865 37.936C67.9345 37.376 67.0465 37.096 66.0225 37.096C64.9985 37.096 64.1105 37.376 63.3585 37.936C62.6065 38.496 62.0305 39.264 61.6305 40.24C61.2305 41.216 61.0305 42.312 61.0305 43.528C61.0305 44.744 61.2305 45.84 61.6305 46.816C62.0305 47.776 62.6065 48.536 63.3585 49.096C64.1105 49.64 64.9985 49.912 66.0225 49.912ZM77.6966 35.2H80.5286L88.8326 48.088H88.9046V35.2H91.3766V52H88.4966L80.2406 39.376H80.1686V52H77.6966V35.2ZM102.07 52.192C100.758 52.192 99.6296 51.928 98.6856 51.4C97.7576 50.856 97.0536 50.16 96.5736 49.312C96.1096 48.464 95.8776 47.576 95.8776 46.648V46.528H98.6136V46.648C98.6136 47.16 98.7336 47.672 98.9736 48.184C99.2136 48.68 99.5976 49.104 100.126 49.456C100.654 49.792 101.318 49.96 102.118 49.96C103.094 49.96 103.886 49.712 104.494 49.216C105.118 48.72 105.43 48.048 105.43 47.2C105.43 46.496 105.19 45.936 104.71 45.52C104.246 45.104 103.654 44.824 102.934 44.68L100.63 44.224C99.6216 44.016 98.6456 43.592 97.7016 42.952C96.7736 42.296 96.3096 41.208 96.3096 39.688C96.3096 38.712 96.5416 37.856 97.0056 37.12C97.4856 36.384 98.1496 35.824 98.9976 35.44C99.8456 35.04 100.814 34.84 101.902 34.84C103.15 34.84 104.222 35.088 105.118 35.584C106.014 36.08 106.686 36.728 107.134 37.528C107.598 38.312 107.83 39.136 107.83 40V40.096H105.094V40.024C105.094 39.592 104.99 39.144 104.782 38.68C104.574 38.216 104.222 37.824 103.726 37.504C103.246 37.168 102.614 37 101.83 37C100.902 37 100.166 37.256 99.6216 37.768C99.0936 38.264 98.8296 38.888 98.8296 39.64C98.8296 40.296 99.0536 40.832 99.5016 41.248C99.9656 41.664 100.566 41.944 101.302 42.088L103.438 42.52C104.67 42.776 105.742 43.248 106.654 43.936C107.582 44.624 108.046 45.688 108.046 47.128C108.046 48.12 107.79 49 107.278 49.768C106.782 50.536 106.078 51.136 105.166 51.568C104.27 51.984 103.238 52.192 102.07 52.192ZM118.548 52.216C116.42 52.216 114.764 51.568 113.58 50.272C112.396 48.976 111.804 47.088 111.804 44.608V35.2H114.252V44.512C114.252 45.872 114.54 47.104 115.116 48.208C115.708 49.296 116.852 49.84 118.548 49.84C120.196 49.84 121.308 49.296 121.884 48.208C122.476 47.12 122.772 45.888 122.772 44.512V35.2H125.244V44.608C125.244 47.088 124.644 48.976 123.444 50.272C122.26 51.568 120.628 52.216 118.548 52.216ZM129.672 35.2H133.344L137.928 47.224H138L142.56 35.2H146.232V52H143.784V38.92H143.688L138.816 52H137.088L132.216 38.92H132.12V52H129.672V35.2ZM153.431 37.408V42.448H160.463V44.44H153.431V49.792H161.519V52H150.911V35.2H161.519V37.408H153.431ZM170.983 45.496H168.223V52H165.751V35.2H171.631C172.991 35.2 174.111 35.456 174.991 35.968C175.871 36.464 176.511 37.104 176.911 37.888C177.311 38.672 177.511 39.504 177.511 40.384C177.511 41.536 177.183 42.568 176.527 43.48C175.871 44.392 174.863 45 173.503 45.304L177.727 52H175.039L170.983 45.496ZM168.223 43.408H171.295C172.367 43.408 173.271 43.184 174.007 42.736C174.743 42.272 175.111 41.488 175.111 40.384C175.111 39.296 174.743 38.528 174.007 38.08C173.271 37.632 172.367 37.408 171.295 37.408H168.223V43.408ZM194.813 52.216C192.685 52.216 191.029 51.568 189.845 50.272C188.661 48.976 188.069 47.088 188.069 44.608V35.2H190.517V44.512C190.517 45.872 190.805 47.104 191.381 48.208C191.973 49.296 193.117 49.84 194.813 49.84C196.461 49.84 197.573 49.296 198.149 48.208C198.741 47.12 199.037 45.888 199.037 44.512V35.2H201.509V44.608C201.509 47.088 200.909 48.976 199.709 50.272C198.525 51.568 196.893 52.216 194.813 52.216ZM211.556 52.192C210.244 52.192 209.116 51.928 208.172 51.4C207.244 50.856 206.54 50.16 206.06 49.312C205.596 48.464 205.364 47.576 205.364 46.648V46.528H208.1V46.648C208.1 47.16 208.22 47.672 208.46 48.184C208.7 48.68 209.084 49.104 209.612 49.456C210.14 49.792 210.804 49.96 211.604 49.96C212.58 49.96 213.372 49.712 213.98 49.216C214.604 48.72 214.916 48.048 214.916 47.2C214.916 46.496 214.676 45.936 214.196 45.52C213.732 45.104 213.14 44.824 212.42 44.68L210.116 44.224C209.108 44.016 208.132 43.592 207.188 42.952C206.26 42.296 205.796 41.208 205.796 39.688C205.796 38.712 206.028 37.856 206.492 37.12C206.972 36.384 207.636 35.824 208.484 35.44C209.332 35.04 210.3 34.84 211.388 34.84C212.636 34.84 213.708 35.088 214.604 35.584C215.5 36.08 216.172 36.728 216.62 37.528C217.084 38.312 217.316 39.136 217.316 40V40.096H214.58V40.024C214.58 39.592 214.476 39.144 214.268 38.68C214.06 38.216 213.708 37.824 213.212 37.504C212.732 37.168 212.1 37 211.316 37C210.388 37 209.652 37.256 209.108 37.768C208.58 38.264 208.316 38.888 208.316 39.64C208.316 40.296 208.54 40.832 208.988 41.248C209.452 41.664 210.052 41.944 210.788 42.088L212.924 42.52C214.156 42.776 215.228 43.248 216.14 43.936C217.068 44.624 217.532 45.688 217.532 47.128C217.532 48.12 217.276 49 216.764 49.768C216.268 50.536 215.564 51.136 214.652 51.568C213.756 51.984 212.724 52.192 211.556 52.192ZM224.071 37.408V42.448H231.103V44.44H224.071V49.792H232.159V52H221.551V35.2H232.159V37.408H224.071Z" fill="#24245B"/>
<path d="M1044.86 45.496H1042.1V52H1039.62V35.2H1045.5C1046.86 35.2 1047.98 35.456 1048.86 35.968C1049.74 36.464 1050.38 37.104 1050.78 37.888C1051.18 38.672 1051.38 39.504 1051.38 40.384C1051.38 41.536 1051.06 42.568 1050.4 43.48C1049.74 44.392 1048.74 45 1047.38 45.304L1051.6 52H1048.91L1044.86 45.496ZM1042.1 43.408H1045.17C1046.24 43.408 1047.14 43.184 1047.88 42.736C1048.62 42.272 1048.98 41.488 1048.98 40.384C1048.98 39.296 1048.62 38.528 1047.88 38.08C1047.14 37.632 1046.24 37.408 1045.17 37.408H1042.1V43.408ZM1064.02 47.368H1057.52L1055.91 52H1053.39L1059.6 35.2H1061.96L1068.2 52H1065.68L1064.02 47.368ZM1063.32 45.4L1060.8 38.344H1060.68L1058.21 45.4H1063.32ZM1068.73 35.2H1071.21L1074.69 48.904H1074.83L1079.2 35.2H1081.43L1085.8 48.904H1085.94L1089.45 35.2H1091.92L1087.48 52H1084.31L1080.4 39.592H1080.25L1076.32 52H1073.15L1068.73 35.2ZM1101.85 35.2H1105.52L1110.1 47.224H1110.17L1114.73 35.2H1118.41V52H1115.96V38.92H1115.86L1110.99 52H1109.26L1104.39 38.92H1104.29V52H1101.85V35.2ZM1132.66 47.368H1126.16L1124.55 52H1122.03L1128.25 35.2H1130.6L1136.84 52H1134.32L1132.66 47.368ZM1131.97 45.4L1129.45 38.344H1129.33L1126.86 45.4H1131.97ZM1149.91 37.408H1145.09V52H1142.62V37.408H1137.79V35.2H1149.91V37.408ZM1156.18 37.408V42.448H1163.21V44.44H1156.18V49.792H1164.26V52H1153.66V35.2H1164.26V37.408H1156.18ZM1173.73 45.496H1170.97V52H1168.5V35.2H1174.38C1175.74 35.2 1176.86 35.456 1177.74 35.968C1178.62 36.464 1179.26 37.104 1179.66 37.888C1180.06 38.672 1180.26 39.504 1180.26 40.384C1180.26 41.536 1179.93 42.568 1179.27 43.48C1178.62 44.392 1177.61 45 1176.25 45.304L1180.47 52H1177.78L1173.73 45.496ZM1170.97 43.408H1174.04C1175.11 43.408 1176.02 43.184 1176.75 42.736C1177.49 42.272 1177.86 41.488 1177.86 40.384C1177.86 39.296 1177.49 38.528 1176.75 38.08C1176.02 37.632 1175.11 37.408 1174.04 37.408H1170.97V43.408ZM1184.72 35.2H1187.24V52H1184.72V35.2ZM1201.59 47.368H1195.09L1193.48 52H1190.96L1197.18 35.2H1199.53L1205.77 52H1203.25L1201.59 47.368ZM1200.9 45.4L1198.38 38.344H1198.26L1195.79 45.4H1200.9ZM1219.47 49.792V52H1209.32V35.2H1211.84L1211.81 49.792H1219.47ZM1228.95 52.192C1227.64 52.192 1226.51 51.928 1225.57 51.4C1224.64 50.856 1223.94 50.16 1223.46 49.312C1222.99 48.464 1222.76 47.576 1222.76 46.648V46.528H1225.5V46.648C1225.5 47.16 1225.62 47.672 1225.86 48.184C1226.1 48.68 1226.48 49.104 1227.01 49.456C1227.54 49.792 1228.2 49.96 1229 49.96C1229.98 49.96 1230.77 49.712 1231.38 49.216C1232 48.72 1232.31 48.048 1232.31 47.2C1232.31 46.496 1232.07 45.936 1231.59 45.52C1231.13 45.104 1230.54 44.824 1229.82 44.68L1227.51 44.224C1226.51 44.016 1225.53 43.592 1224.59 42.952C1223.66 42.296 1223.19 41.208 1223.19 39.688C1223.19 38.712 1223.43 37.856 1223.89 37.12C1224.37 36.384 1225.03 35.824 1225.88 35.44C1226.73 35.04 1227.7 34.84 1228.79 34.84C1230.03 34.84 1231.11 35.088 1232 35.584C1232.9 36.08 1233.57 36.728 1234.02 37.528C1234.48 38.312 1234.71 39.136 1234.71 40V40.096H1231.98V40.024C1231.98 39.592 1231.87 39.144 1231.67 38.68C1231.46 38.216 1231.11 37.824 1230.61 37.504C1230.13 37.168 1229.5 37 1228.71 37C1227.79 37 1227.05 37.256 1226.51 37.768C1225.98 38.264 1225.71 38.888 1225.71 39.64C1225.71 40.296 1225.94 40.832 1226.39 41.248C1226.85 41.664 1227.45 41.944 1228.19 42.088L1230.32 42.52C1231.55 42.776 1232.63 43.248 1233.54 43.936C1234.47 44.624 1234.93 45.688 1234.93 47.128C1234.93 48.12 1234.67 49 1234.16 49.768C1233.67 50.536 1232.96 51.136 1232.05 51.568C1231.15 51.984 1230.12 52.192 1228.95 52.192Z" fill="#24245B"/>
<path d="M1023.99 130.2H1027.66L1032.25 142.224H1032.32L1036.88 130.2H1040.55V147H1038.1V133.92H1038.01L1033.13 147H1031.41L1026.53 133.92H1026.44V147H1023.99V130.2ZM1054.81 142.368H1048.31L1046.7 147H1044.18L1050.39 130.2H1052.75L1058.99 147H1056.47L1054.81 142.368ZM1054.11 140.4L1051.59 133.344H1051.47L1049 140.4H1054.11ZM1062.53 130.2H1065.36L1073.67 143.088H1073.74V130.2H1076.21V147H1073.33L1065.08 134.376H1065V147H1062.53V130.2ZM1087.3 147.216C1085.17 147.216 1083.52 146.568 1082.33 145.272C1081.15 143.976 1080.56 142.088 1080.56 139.608V130.2H1083V139.512C1083 140.872 1083.29 142.104 1083.87 143.208C1084.46 144.296 1085.6 144.84 1087.3 144.84C1088.95 144.84 1090.06 144.296 1090.64 143.208C1091.23 142.12 1091.52 140.888 1091.52 139.512V130.2H1094V139.608C1094 142.088 1093.4 143.976 1092.2 145.272C1091.01 146.568 1089.38 147.216 1087.3 147.216ZM1100.94 132.408V137.472L1107.78 137.424V139.44H1100.94V147H1098.45V130.2H1108.67V132.408H1100.94ZM1121.27 142.368H1114.77L1113.16 147H1110.64L1116.86 130.2H1119.21L1125.45 147H1122.93L1121.27 142.368ZM1120.58 140.4L1118.06 133.344H1117.94L1115.47 140.4H1120.58ZM1135.56 147.168C1133.98 147.168 1132.61 146.792 1131.46 146.04C1130.32 145.272 1129.46 144.232 1128.87 142.92C1128.27 141.608 1127.98 140.136 1127.98 138.504C1127.98 136.872 1128.27 135.4 1128.87 134.088C1129.47 132.776 1130.35 131.744 1131.48 130.992C1132.63 130.224 1133.99 129.84 1135.56 129.84C1137.48 129.84 1139.06 130.384 1140.29 131.472C1141.52 132.56 1142.34 134.008 1142.74 135.816H1140.31C1140.03 134.696 1139.46 133.792 1138.61 133.104C1137.78 132.416 1136.77 132.072 1135.59 132.072C1133.97 132.072 1132.73 132.656 1131.87 133.824C1131 134.992 1130.57 136.552 1130.57 138.504C1130.57 140.456 1131 142.016 1131.87 143.184C1132.73 144.352 1133.97 144.936 1135.59 144.936C1136.72 144.936 1137.69 144.624 1138.49 144C1139.29 143.376 1139.86 142.568 1140.19 141.576H1142.62C1142.19 143.256 1141.36 144.608 1140.15 145.632C1138.93 146.656 1137.4 147.168 1135.56 147.168ZM1157.18 132.408H1152.36V147H1149.89V132.408H1145.06V130.2H1157.18V132.408ZM1167.64 147.216C1165.51 147.216 1163.86 146.568 1162.67 145.272C1161.49 143.976 1160.9 142.088 1160.9 139.608V130.2H1163.35V139.512C1163.35 140.872 1163.63 142.104 1164.21 143.208C1164.8 144.296 1165.95 144.84 1167.64 144.84C1169.29 144.84 1170.4 144.296 1170.98 143.208C1171.57 142.12 1171.87 140.888 1171.87 139.512V130.2H1174.34V139.608C1174.34 142.088 1173.74 143.976 1172.54 145.272C1171.35 146.568 1169.72 147.216 1167.64 147.216ZM1184 140.496H1181.24V147H1178.77V130.2H1184.65C1186.01 130.2 1187.13 130.456 1188.01 130.968C1188.89 131.464 1189.53 132.104 1189.93 132.888C1190.33 133.672 1190.53 134.504 1190.53 135.384C1190.53 136.536 1190.2 137.568 1189.54 138.48C1188.89 139.392 1187.88 140 1186.52 140.304L1190.74 147H1188.05L1184 140.496ZM1181.24 138.408H1184.31C1185.38 138.408 1186.29 138.184 1187.02 137.736C1187.76 137.272 1188.13 136.488 1188.13 135.384C1188.13 134.296 1187.76 133.528 1187.02 133.08C1186.29 132.632 1185.38 132.408 1184.31 132.408H1181.24V138.408ZM1194.99 130.2H1197.51V147H1194.99V130.2ZM1202.28 130.2H1205.12L1213.42 143.088H1213.49V130.2H1215.96V147H1213.08L1204.83 134.376H1204.76V147H1202.28V130.2ZM1227.32 147.168C1225.7 147.168 1224.34 146.752 1223.24 145.92C1222.15 145.088 1221.34 144.016 1220.81 142.704C1220.28 141.392 1220.02 140.008 1220.02 138.552C1220.02 137.064 1220.28 135.664 1220.81 134.352C1221.36 133.024 1222.19 131.944 1223.31 131.112C1224.44 130.264 1225.85 129.84 1227.53 129.84C1229.42 129.84 1230.95 130.36 1232.12 131.4C1233.3 132.424 1234.12 133.728 1234.56 135.312H1231.95C1231.64 134.288 1231.12 133.496 1230.39 132.936C1229.67 132.376 1228.72 132.096 1227.53 132.096C1225.95 132.096 1224.72 132.68 1223.84 133.848C1222.97 135.016 1222.54 136.6 1222.54 138.6C1222.54 140.648 1223 142.248 1223.91 143.4C1224.82 144.552 1226.07 145.128 1227.65 145.128C1228.6 145.128 1229.4 144.928 1230.08 144.528C1230.76 144.128 1231.28 143.584 1231.64 142.896C1231.99 142.208 1232.17 141.44 1232.19 140.592L1232.21 140.016H1227.89V138.192H1234.59V147H1232.67V144.312H1232.48C1232.24 144.728 1231.98 145.112 1231.71 145.464C1231.45 145.8 1230.95 146.168 1230.2 146.568C1229.44 146.968 1228.48 147.168 1227.32 147.168Z" fill="#24245B"/>
<path d="M1099.69 444.2C1101.05 444.2 1102.17 444.472 1103.05 445.016C1103.93 445.56 1104.57 446.256 1104.97 447.104C1105.37 447.952 1105.57 448.856 1105.57 449.816C1105.57 450.76 1105.37 451.648 1104.97 452.48C1104.57 453.312 1103.93 454 1103.05 454.544C1102.17 455.072 1101.05 455.336 1099.69 455.336H1096.23V461H1093.81V444.2H1099.69ZM1099.35 453.224C1100.42 453.224 1101.33 452.968 1102.06 452.456C1102.8 451.944 1103.17 451.064 1103.17 449.816C1103.17 448.568 1102.8 447.696 1102.06 447.2C1101.33 446.688 1100.42 446.432 1099.35 446.432H1096.23V453.224H1099.35ZM1117.69 456.368H1111.18L1109.58 461H1107.06L1113.27 444.2H1115.62L1121.86 461H1119.34L1117.69 456.368ZM1116.99 454.4L1114.47 447.344H1114.35L1111.88 454.4H1116.99ZM1131.98 461.168C1130.39 461.168 1129.02 460.792 1127.87 460.04C1126.74 459.272 1125.87 458.232 1125.28 456.92C1124.69 455.608 1124.39 454.136 1124.39 452.504C1124.39 450.872 1124.69 449.4 1125.28 448.088C1125.89 446.776 1126.76 445.744 1127.9 444.992C1129.05 444.224 1130.41 443.84 1131.98 443.84C1133.9 443.84 1135.47 444.384 1136.7 445.472C1137.94 446.56 1138.75 448.008 1139.15 449.816H1136.73C1136.44 448.696 1135.87 447.792 1135.02 447.104C1134.19 446.416 1133.18 446.072 1132 446.072C1130.38 446.072 1129.14 446.656 1128.28 447.824C1127.42 448.992 1126.98 450.552 1126.98 452.504C1126.98 454.456 1127.42 456.016 1128.28 457.184C1129.14 458.352 1130.38 458.936 1132 458.936C1133.14 458.936 1134.1 458.624 1134.9 458C1135.7 457.376 1136.27 456.568 1136.61 455.576H1139.03C1138.6 457.256 1137.78 458.608 1136.56 459.632C1135.34 460.656 1133.82 461.168 1131.98 461.168ZM1142.99 444.2H1145.46V451.424H1145.58L1151.97 444.2H1154.94L1148.46 451.4L1155.3 461H1152.45L1146.93 453.176L1145.46 454.76V461H1142.99V444.2ZM1169.17 456.368H1162.67L1161.06 461H1158.54L1164.75 444.2H1167.11L1173.35 461H1170.83L1169.17 456.368ZM1168.47 454.4L1165.95 447.344H1165.83L1163.36 454.4H1168.47ZM1183.15 461.168C1181.53 461.168 1180.17 460.752 1179.07 459.92C1177.98 459.088 1177.17 458.016 1176.64 456.704C1176.11 455.392 1175.85 454.008 1175.85 452.552C1175.85 451.064 1176.11 449.664 1176.64 448.352C1177.19 447.024 1178.02 445.944 1179.14 445.112C1180.27 444.264 1181.68 443.84 1183.36 443.84C1185.25 443.84 1186.78 444.36 1187.95 445.4C1189.13 446.424 1189.95 447.728 1190.39 449.312H1187.78C1187.47 448.288 1186.95 447.496 1186.22 446.936C1185.5 446.376 1184.55 446.096 1183.36 446.096C1181.78 446.096 1180.55 446.68 1179.67 447.848C1178.8 449.016 1178.37 450.6 1178.37 452.6C1178.37 454.648 1178.83 456.248 1179.74 457.4C1180.65 458.552 1181.9 459.128 1183.48 459.128C1184.43 459.128 1185.23 458.928 1185.91 458.528C1186.59 458.128 1187.11 457.584 1187.47 456.896C1187.82 456.208 1188 455.44 1188.02 454.592L1188.04 454.016H1183.72V452.192H1190.42V461H1188.5V458.312H1188.31C1188.07 458.728 1187.81 459.112 1187.54 459.464C1187.28 459.8 1186.78 460.168 1186.03 460.568C1185.27 460.968 1184.31 461.168 1183.15 461.168ZM1194.99 444.2H1197.51V461H1194.99V444.2ZM1202.28 444.2H1205.12L1213.42 457.088H1213.49V444.2H1215.96V461H1213.08L1204.83 448.376H1204.76V461H1202.28V444.2ZM1227.32 461.168C1225.7 461.168 1224.34 460.752 1223.24 459.92C1222.15 459.088 1221.34 458.016 1220.81 456.704C1220.28 455.392 1220.02 454.008 1220.02 452.552C1220.02 451.064 1220.28 449.664 1220.81 448.352C1221.36 447.024 1222.19 445.944 1223.31 445.112C1224.44 444.264 1225.85 443.84 1227.53 443.84C1229.42 443.84 1230.95 444.36 1232.12 445.4C1233.3 446.424 1234.12 447.728 1234.56 449.312H1231.95C1231.64 448.288 1231.12 447.496 1230.39 446.936C1229.67 446.376 1228.72 446.096 1227.53 446.096C1225.95 446.096 1224.72 446.68 1223.84 447.848C1222.97 449.016 1222.54 450.6 1222.54 452.6C1222.54 454.648 1223 456.248 1223.91 457.4C1224.82 458.552 1226.07 459.128 1227.65 459.128C1228.6 459.128 1229.4 458.928 1230.08 458.528C1230.76 458.128 1231.28 457.584 1231.64 456.896C1231.99 456.208 1232.17 455.44 1232.19 454.592L1232.21 454.016H1227.89V452.192H1234.59V461H1232.67V458.312H1232.48C1232.24 458.728 1231.98 459.112 1231.71 459.464C1231.45 459.8 1230.95 460.168 1230.2 460.568C1229.44 460.968 1228.48 461.168 1227.32 461.168Z" fill="#24245B"/>
<path d="M40.656 401.2H46.92C48.424 401.2 49.736 401.536 50.856 402.208C51.992 402.88 52.872 403.848 53.496 405.112C54.12 406.376 54.432 407.864 54.432 409.576C54.432 411.304 54.12 412.808 53.496 414.088C52.872 415.352 51.992 416.32 50.856 416.992C49.72 417.664 48.4 418 46.896 418H40.656V401.2ZM46.512 415.72C48.112 415.72 49.392 415.208 50.352 414.184C51.312 413.16 51.792 411.624 51.792 409.576C51.792 407.528 51.312 405.992 50.352 404.968C49.408 403.944 48.128 403.432 46.512 403.432H43.08V415.72H46.512ZM58.3583 401.2H60.8783V418H58.3583V401.2ZM71.6664 418.192C70.3544 418.192 69.2264 417.928 68.2824 417.4C67.3544 416.856 66.6504 416.16 66.1704 415.312C65.7064 414.464 65.4744 413.576 65.4744 412.648V412.528H68.2104V412.648C68.2104 413.16 68.3304 413.672 68.5704 414.184C68.8104 414.68 69.1944 415.104 69.7224 415.456C70.2504 415.792 70.9144 415.96 71.7144 415.96C72.6904 415.96 73.4824 415.712 74.0904 415.216C74.7144 414.72 75.0264 414.048 75.0264 413.2C75.0264 412.496 74.7864 411.936 74.3064 411.52C73.8424 411.104 73.2504 410.824 72.5304 410.68L70.2264 410.224C69.2184 410.016 68.2424 409.592 67.2984 408.952C66.3704 408.296 65.9064 407.208 65.9064 405.688C65.9064 404.712 66.1384 403.856 66.6024 403.12C67.0824 402.384 67.7464 401.824 68.5944 401.44C69.4424 401.04 70.4104 400.84 71.4984 400.84C72.7464 400.84 73.8184 401.088 74.7144 401.584C75.6104 402.08 76.2824 402.728 76.7304 403.528C77.1944 404.312 77.4264 405.136 77.4264 406V406.096H74.6904V406.024C74.6904 405.592 74.5864 405.144 74.3784 404.68C74.1704 404.216 73.8184 403.824 73.3224 403.504C72.8424 403.168 72.2104 403 71.4264 403C70.4984 403 69.7624 403.256 69.2184 403.768C68.6904 404.264 68.4264 404.888 68.4264 405.64C68.4264 406.296 68.6504 406.832 69.0984 407.248C69.5624 407.664 70.1624 407.944 70.8984 408.088L73.0344 408.52C74.2664 408.776 75.3384 409.248 76.2504 409.936C77.1784 410.624 77.6424 411.688 77.6424 413.128C77.6424 414.12 77.3864 415 76.8744 415.768C76.3784 416.536 75.6744 417.136 74.7624 417.568C73.8664 417.984 72.8344 418.192 71.6664 418.192ZM92.7827 403.408H87.9587V418H85.4867V403.408H80.6627V401.2H92.7827V403.408ZM101.758 411.496H98.9983V418H96.5263V401.2H102.406C103.766 401.2 104.886 401.456 105.766 401.968C106.646 402.464 107.286 403.104 107.686 403.888C108.086 404.672 108.286 405.504 108.286 406.384C108.286 407.536 107.958 408.568 107.302 409.48C106.646 410.392 105.638 411 104.278 411.304L108.502 418H105.814L101.758 411.496ZM98.9983 409.408H102.07C103.142 409.408 104.046 409.184 104.782 408.736C105.518 408.272 105.886 407.488 105.886 406.384C105.886 405.296 105.518 404.528 104.782 404.08C104.046 403.632 103.142 403.408 102.07 403.408H98.9983V409.408ZM112.752 401.2H115.272V418H112.752V401.2ZM120.043 401.2H126.883C127.987 401.2 128.891 401.408 129.595 401.824C130.315 402.24 130.835 402.776 131.155 403.432C131.475 404.072 131.635 404.752 131.635 405.472C131.635 406.176 131.491 406.784 131.203 407.296C130.915 407.808 130.555 408.216 130.123 408.52C129.707 408.808 129.307 408.992 128.923 409.072V409.216C129.371 409.264 129.867 409.432 130.411 409.72C130.955 409.992 131.427 410.416 131.827 410.992C132.243 411.568 132.451 412.296 132.451 413.176C132.451 413.976 132.267 414.744 131.899 415.48C131.547 416.216 130.987 416.824 130.219 417.304C129.451 417.768 128.483 418 127.315 418H120.043V401.2ZM126.163 408.448C126.995 408.448 127.715 408.232 128.323 407.8C128.947 407.352 129.259 406.672 129.259 405.76C129.259 404.88 128.963 404.24 128.371 403.84C127.779 403.44 127.043 403.24 126.163 403.24H122.467V408.448H126.163ZM126.715 415.96C127.643 415.96 128.427 415.744 129.067 415.312C129.723 414.864 130.051 414.128 130.051 413.104C130.051 412.112 129.723 411.4 129.067 410.968C128.427 410.536 127.643 410.32 126.715 410.32H122.467V415.96H126.715ZM142.796 418.216C140.668 418.216 139.012 417.568 137.828 416.272C136.644 414.976 136.052 413.088 136.052 410.608V401.2H138.5V410.512C138.5 411.872 138.788 413.104 139.364 414.208C139.956 415.296 141.1 415.84 142.796 415.84C144.444 415.84 145.556 415.296 146.132 414.208C146.724 413.12 147.02 411.888 147.02 410.512V401.2H149.492V410.608C149.492 413.088 148.892 414.976 147.692 416.272C146.508 417.568 144.876 418.216 142.796 418.216ZM165.298 403.408H160.474V418H158.002V403.408H153.178V401.2H165.298V403.408ZM169.138 401.2H171.658V418H169.138V401.2ZM183.393 418.168C181.777 418.168 180.393 417.8 179.241 417.064C178.105 416.312 177.241 415.288 176.649 413.992C176.057 412.68 175.761 411.2 175.761 409.552C175.761 407.904 176.057 406.424 176.649 405.112C177.241 403.784 178.113 402.744 179.265 401.992C180.417 401.224 181.793 400.84 183.393 400.84C184.977 400.84 186.337 401.216 187.473 401.968C188.625 402.72 189.497 403.76 190.089 405.088C190.681 406.4 190.977 407.896 190.977 409.576C190.977 411.24 190.681 412.72 190.089 414.016C189.497 415.312 188.625 416.328 187.473 417.064C186.337 417.8 184.977 418.168 183.393 418.168ZM183.369 415.912C184.393 415.912 185.281 415.64 186.033 415.096C186.785 414.552 187.361 413.8 187.761 412.84C188.161 411.864 188.361 410.76 188.361 409.528C188.361 408.296 188.161 407.2 187.761 406.24C187.361 405.264 186.785 404.496 186.033 403.936C185.281 403.376 184.393 403.096 183.369 403.096C182.345 403.096 181.457 403.376 180.705 403.936C179.953 404.496 179.377 405.264 178.977 406.24C178.577 407.216 178.377 408.312 178.377 409.528C178.377 410.744 178.577 411.84 178.977 412.816C179.377 413.776 179.953 414.536 180.705 415.096C181.457 415.64 182.345 415.912 183.369 415.912ZM195.043 401.2H197.875L206.179 414.088H206.251V401.2H208.723V418H205.843L197.587 405.376H197.515V418H195.043V401.2ZM226.951 423.16C225.879 422.536 224.887 421.64 223.975 420.472C223.063 419.32 222.327 417.936 221.767 416.32C221.207 414.688 220.927 412.92 220.927 411.016C220.927 409.048 221.215 407.24 221.791 405.592C222.367 403.944 223.111 402.552 224.023 401.416C224.935 400.264 225.903 399.408 226.927 398.848L227.623 399.568C226.951 400.176 226.287 401.056 225.631 402.208C224.975 403.344 224.439 404.68 224.023 406.216C223.607 407.752 223.399 409.352 223.399 411.016C223.399 412.68 223.607 414.28 224.023 415.816C224.455 417.336 224.991 418.672 225.631 419.824C226.287 420.976 226.951 421.856 227.623 422.464L226.951 423.16ZM242.184 413.368H235.68L234.072 418H231.552L237.768 401.2H240.12L246.36 418H243.84L242.184 413.368ZM241.488 411.4L238.968 404.344H238.848L236.376 411.4H241.488ZM246.875 401.2H249.395L254.195 415.432H254.339L259.139 401.2H261.635L255.947 418H252.587L246.875 401.2ZM271.212 418.168C269.596 418.168 268.236 417.752 267.132 416.92C266.044 416.088 265.236 415.016 264.708 413.704C264.18 412.392 263.916 411.008 263.916 409.552C263.916 408.064 264.18 406.664 264.708 405.352C265.252 404.024 266.084 402.944 267.204 402.112C268.34 401.264 269.748 400.84 271.428 400.84C273.316 400.84 274.844 401.36 276.012 402.4C277.196 403.424 278.012 404.728 278.46 406.312H275.844C275.54 405.288 275.02 404.496 274.284 403.936C273.564 403.376 272.612 403.096 271.428 403.096C269.844 403.096 268.612 403.68 267.732 404.848C266.868 406.016 266.436 407.6 266.436 409.6C266.436 411.648 266.892 413.248 267.804 414.4C268.716 415.552 269.964 416.128 271.548 416.128C272.492 416.128 273.3 415.928 273.972 415.528C274.66 415.128 275.18 414.584 275.532 413.896C275.884 413.208 276.068 412.44 276.084 411.592L276.108 411.016H271.788V409.192H278.484V418H276.564V415.312H276.372C276.132 415.728 275.876 416.112 275.604 416.464C275.348 416.8 274.844 417.168 274.092 417.568C273.34 417.968 272.38 418.168 271.212 418.168ZM284.023 422.464C284.695 421.856 285.351 420.976 285.991 419.824C286.647 418.672 287.183 417.336 287.599 415.816C288.031 414.28 288.247 412.68 288.247 411.016C288.247 409.352 288.031 407.76 287.599 406.24C287.183 404.704 286.647 403.36 285.991 402.208C285.351 401.056 284.695 400.176 284.023 399.568L284.695 398.848C285.719 399.408 286.687 400.264 287.599 401.416C288.511 402.552 289.255 403.944 289.831 405.592C290.423 407.24 290.719 409.048 290.719 411.016C290.719 412.92 290.439 414.688 289.879 416.32C289.319 417.936 288.583 419.32 287.671 420.472C286.759 421.64 285.767 422.536 284.695 423.16L284.023 422.464Z" fill="#24245B"/>
</svg>
